<?xml version="1.0" encoding="UTF-8" standalone="no"?><svg xmlns="http://www.w3.org/2000/svg" xmlns:xlink="http://www.w3.org/1999/xlink" contentStyleType="text/css" height="473px" preserveAspectRatio="none" style="width:784px;height:473px;background:#FFFFFF;" version="1.1" viewBox="0 0 784 473" width="784px" zoomAndPan="magnify"><defs/><g><!--MD5=[59ba56c73eddd34a65c642179fc088bb]
cluster activityOperator--><g id="cluster_activityOperator"><rect fill="none" height="460" rx="2.5" ry="2.5" style="stroke:#181818;stroke-width:1.0;" width="345" x="433.5" y="7"/><path d="M555.5,7 L555.5,16.24 L545.5,26.24 L433.5,26.24 " fill="none" style="stroke:#181818;stroke-width:1.0;"/><text fill="#000000" font-family="D2Coding" font-size="14" font-weight="bold" lengthAdjust="spacing" textLength="112" x="436.5" y="21.02">activityOperator</text></g><!--MD5=[9b337d90539dad35a42c2412af8f9a43]
cluster closeableGroupBy--><g id="cluster_closeableGroupBy"><rect fill="none" height="77" rx="2.5" ry="2.5" style="stroke:#181818;stroke-width:1.0;" width="247" x="457.5" y="50"/><path d="M579.5,50 L579.5,59.24 L569.5,69.24 L457.5,69.24 " fill="none" style="stroke:#181818;stroke-width:1.0;"/><text fill="#000000" font-family="D2Coding" font-size="14" font-weight="bold" lengthAdjust="spacing" textLength="112" x="460.5" y="64.02">closeableGroupBy</text></g><!--MD5=[63abe65537b6f4e9555de22561e9c750]
cluster mergeMapWithState--><g id="cluster_mergeMapWithState"><rect fill="none" height="77" rx="2.5" ry="2.5" style="stroke:#181818;stroke-width:1.0;" width="213" x="492.5" y="301"/><path d="M621.5,301 L621.5,310.24 L611.5,320.24 L492.5,320.24 " fill="none" style="stroke:#181818;stroke-width:1.0;"/><text fill="#000000" font-family="D2Coding" font-size="14" font-weight="bold" lengthAdjust="spacing" textLength="119" x="495.5" y="315.02">mergeMapWithState</text></g><!--MD5=[7d8bb4a7e617b1a3dc52b5547321fd79]
entity mergeMap_01--><g id="elem_mergeMap_01"><path d="M596,216 L683,216 C688,216 688,229.12 688,229.12 C688,229.12 688,242.24 683,242.24 L596,242.24 C591,242.24 591,229.12 591,229.12 C591,229.12 591,216 596,216 " fill="#F1F1F1" style="stroke:#181818;stroke-width:0.5;"/><path d="M683,216 C678,216 678,229.12 678,229.12 C678,242.24 683,242.24 683,242.24 " fill="none" style="stroke:#181818;stroke-width:0.5;"/><text fill="#000000" font-family="D2Coding" font-size="14" lengthAdjust="spacing" textLength="77" x="596" y="234.02">mergeMap_01</text></g><!--MD5=[974726bfd7be6d9ad57ab41e2b64d000]
entity mergeMap_02--><g id="elem_mergeMap_02"><path d="M455,425 L542,425 C547,425 547,438.12 547,438.12 C547,438.12 547,451.24 542,451.24 L455,451.24 C450,451.24 450,438.12 450,438.12 C450,438.12 450,425 455,425 " fill="#F1F1F1" style="stroke:#181818;stroke-width:0.5;"/><path d="M542,425 C537,425 537,438.12 537,438.12 C537,451.24 542,451.24 542,451.24 " fill="none" style="stroke:#181818;stroke-width:0.5;"/><text fill="#000000" font-family="D2Coding" font-size="14" lengthAdjust="spacing" textLength="77" x="455" y="443.02">mergeMap 02</text></g><!--MD5=[6cfc2bacc7fd500ce3d7efd51d6950a3]
entity filter_01--><g id="elem_filter_01"><path d="M587,425 L660,425 C665,425 665,438.12 665,438.12 C665,438.12 665,451.24 660,451.24 L587,451.24 C582,451.24 582,438.12 582,438.12 C582,438.12 582,425 587,425 " fill="#F1F1F1" style="stroke:#181818;stroke-width:0.5;"/><path d="M660,425 C655,425 655,438.12 655,438.12 C655,451.24 660,451.24 660,451.24 " fill="none" style="stroke:#181818;stroke-width:0.5;"/><text fill="#000000" font-family="D2Coding" font-size="14" lengthAdjust="spacing" textLength="63" x="587" y="443.02">filter_01</text></g><!--MD5=[1c68d1c2b8dd6c7adcb9cb8794ff8cbf]
entity map_05--><g id="elem_map_05"><path d="M705.5,425 L757.5,425 C762.5,425 762.5,438.12 762.5,438.12 C762.5,438.12 762.5,451.24 757.5,451.24 L705.5,451.24 C700.5,451.24 700.5,438.12 700.5,438.12 C700.5,438.12 700.5,425 705.5,425 " fill="#F1F1F1" style="stroke:#181818;stroke-width:0.5;"/><path d="M757.5,425 C752.5,425 752.5,438.12 752.5,438.12 C752.5,451.24 757.5,451.24 757.5,451.24 " fill="none" style="stroke:#181818;stroke-width:0.5;"/><text fill="#000000" font-family="D2Coding" font-size="14" lengthAdjust="spacing" textLength="42" x="705.5" y="443.02">map_05</text></g><!--MD5=[5ba77ddced669ea715a6f0d23c84175a]
entity groupBy01--><g id="elem_groupBy01"><path d="M478.5,85 L586.5,85 C591.5,85 591.5,98.12 591.5,98.12 C591.5,98.12 591.5,111.24 586.5,111.24 L478.5,111.24 C473.5,111.24 473.5,98.12 473.5,98.12 C473.5,98.12 473.5,85 478.5,85 " fill="#F1F1F1" style="stroke:#181818;stroke-width:0.5;"/><path d="M586.5,85 C581.5,85 581.5,98.12 581.5,98.12 C581.5,111.24 586.5,111.24 586.5,111.24 " fill="none" style="stroke:#181818;stroke-width:0.5;"/><text fill="#000000" font-family="D2Coding" font-size="14" lengthAdjust="spacing" textLength="98" x="478.5" y="103.02">groupBy(token)</text></g><!--MD5=[0cd9a1f36ab60e48445a74c1c6b8f7f8]
entity map_01--><g id="elem_map_01"><path d="M631.5,85 L683.5,85 C688.5,85 688.5,98.12 688.5,98.12 C688.5,98.12 688.5,111.24 683.5,111.24 L631.5,111.24 C626.5,111.24 626.5,98.12 626.5,98.12 C626.5,98.12 626.5,85 631.5,85 " fill="#F1F1F1" style="stroke:#181818;stroke-width:0.5;"/><path d="M683.5,85 C678.5,85 678.5,98.12 678.5,98.12 C678.5,111.24 683.5,111.24 683.5,111.24 " fill="none" style="stroke:#181818;stroke-width:0.5;"/><text fill="#000000" font-family="D2Coding" font-size="14" lengthAdjust="spacing" textLength="42" x="631.5" y="103.02">map_01</text></g><!--MD5=[9ea0f7722be0771dad19b50d201fe975]
entity mergeScan01--><g id="elem_mergeScan01"><path d="M514,336 L587,336 C592,336 592,349.12 592,349.12 C592,349.12 592,362.24 587,362.24 L514,362.24 C509,362.24 509,349.12 509,349.12 C509,349.12 509,336 514,336 " fill="#F1F1F1" style="stroke:#181818;stroke-width:0.5;"/><path d="M587,336 C582,336 582,349.12 582,349.12 C582,362.24 587,362.24 587,362.24 " fill="none" style="stroke:#181818;stroke-width:0.5;"/><text fill="#000000" font-family="D2Coding" font-size="14" lengthAdjust="spacing" textLength="63" x="514" y="354.02">mergeScan</text></g><!--MD5=[1abc05fb8a6b3422ca443083a6f20496]
entity map_04--><g id="elem_map_04"><path d="M632.5,336 L684.5,336 C689.5,336 689.5,349.12 689.5,349.12 C689.5,349.12 689.5,362.24 684.5,362.24 L632.5,362.24 C627.5,362.24 627.5,349.12 627.5,349.12 C627.5,349.12 627.5,336 632.5,336 " fill="#F1F1F1" style="stroke:#181818;stroke-width:0.5;"/><path d="M684.5,336 C679.5,336 679.5,349.12 679.5,349.12 C679.5,362.24 684.5,362.24 684.5,362.24 " fill="none" style="stroke:#181818;stroke-width:0.5;"/><text fill="#000000" font-family="D2Coding" font-size="14" lengthAdjust="spacing" textLength="42" x="632.5" y="354.02">map_04</text></g><g id="elem_activityPoll"><rect fill="#F1F1F1" height="50.16" style="stroke:#181818;stroke-width:0.5;" width="98" x="319.5" y="73"/><text fill="#000000" font-family="D2Coding" font-size="12" font-style="italic" lengthAdjust="spacing" textLength="72" x="332.5" y="84.16">«Observable»</text><text fill="#000000" font-family="D2Coding" font-size="14" lengthAdjust="spacing" textLength="84" x="326.5" y="101.94">activityPoll</text><line style="stroke:#181818;stroke-width:0.5;" x1="320.5" x2="416.5" y1="107.16" y2="107.16"/></g><g id="elem_pollLoop"><rect fill="#F1F1F1" height="58.4" style="stroke:#181818;stroke-width:0.5;" width="201" x="7" y="69"/><text fill="#000000" font-family="D2Coding" font-size="12" font-style="italic" lengthAdjust="spacing" textLength="72" x="71.5" y="80.16">«Observable»</text><text fill="#000000" font-family="D2Coding" font-size="14" lengthAdjust="spacing" textLength="56" x="79.5" y="97.94">pollLoop</text><line style="stroke:#181818;stroke-width:0.5;" x1="8" x2="207" y1="103.16" y2="103.16"/><text fill="#000000" font-family="D2Coding" font-size="14" lengthAdjust="spacing" textLength="189" x="13" y="120.18">ActivityTaskWithBase64Token</text></g><g id="elem_activityPollerStateSubject"><rect fill="#F1F1F1" height="50.16" style="stroke:#181818;stroke-width:0.5;" width="196" x="98.5" y="204"/><text fill="#000000" font-family="D2Coding" font-size="12" font-style="italic" lengthAdjust="spacing" textLength="108" x="142.5" y="215.16">«BehaviourSubject»</text><text fill="#000000" font-family="D2Coding" font-size="14" lengthAdjust="spacing" textLength="182" x="105.5" y="232.94">activityPollerStateSubject</text><line style="stroke:#181818;stroke-width:0.5;" x1="99.5" x2="293.5" y1="238.16" y2="238.16"/></g><!--MD5=[fc4e39cd4238b57a3039d77c692bedc9]
entity tap01--><g id="elem_tap01"><path d="M248,85 L279,85 C284,85 284,98.12 284,98.12 C284,98.12 284,111.24 279,111.24 L248,111.24 C243,111.24 243,98.12 243,98.12 C243,98.12 243,85 248,85 " fill="#F1F1F1" style="stroke:#181818;stroke-width:0.5;"/><path d="M279,85 C274,85 274,98.12 274,98.12 C274,111.24 279,111.24 279,111.24 " fill="none" style="stroke:#181818;stroke-width:0.5;"/><text fill="#000000" font-family="D2Coding" font-size="14" lengthAdjust="spacing" textLength="21" x="248" y="103.02">tap</text></g><!--MD5=[003ebb6b6d4943057f7a4c65071746c7]
link pollLoop to tap01--><g id="link_pollLoop_tap01"><path codeLine="15" d="M208.35,98 C217.69,98 227.02,98 236.36,98 " fill="none" id="pollLoop-to-tap01" style="stroke:#181818;stroke-width:1.0;"/><polygon fill="#181818" points="241.31,98,232.31,94,236.31,98,232.31,102,241.31,98" style="stroke:#181818;stroke-width:1.0;"/></g><!--MD5=[b78d4b79b76f2a3b261e1821c8239c73]
link tap01 to activityPollerStateSubject--><g id="link_tap01_activityPollerStateSubject"><path codeLine="16" d="M253.86,111.29 C246.86,119.33 236.69,129.35 225.5,135 C175.93,160.04 138.14,114.41 102.5,157 C88.64,173.56 102.2,188.53 122.92,200.41 " fill="none" id="tap01-to-activityPollerStateSubject" style="stroke:#181818;stroke-width:1.0;stroke-dasharray:7.0,7.0;"/><polygon fill="#181818" points="127.3,202.8,121.2948,194.9938,122.9045,200.4167,117.4816,202.0265,127.3,202.8" style="stroke:#181818;stroke-width:1.0;"/><text fill="#000000" font-family="D2Coding" font-size="13" lengthAdjust="spacing" textLength="140" x="103.5" y="170.09">SHUTDOWN on complete</text></g><!--MD5=[b78d4b79b76f2a3b261e1821c8239c73]
link tap01 to activityPollerStateSubject--><g id="link_tap01_activityPollerStateSubject"><path codeLine="17" d="M263.13,111.39 C262.22,126.86 259.09,153.76 248.5,174 C243.8,182.98 237.16,191.49 230.18,198.99 " fill="none" id="tap01-to-activityPollerStateSubject-1" style="stroke:#181818;stroke-width:1.0;stroke-dasharray:7.0,7.0;"/><polygon fill="#181818" points="226.85,202.43,235.9766,198.7279,230.3207,198.8308,230.2178,193.1749,226.85,202.43" style="stroke:#181818;stroke-width:1.0;"/><text fill="#000000" font-family="D2Coding" font-size="13" lengthAdjust="spacing" textLength="105" x="256.5" y="170.09">FAILED on error</text></g><!--MD5=[27a1db414dfc3ecd0559038f4105c7bc]
link tap01 to activityPoll--><g id="link_tap01_activityPoll"><path codeLine="19" d="M284.42,98 C293.94,98 303.46,98 312.98,98 " fill="none" id="tap01-to-activityPoll" style="stroke:#181818;stroke-width:1.0;"/><polygon fill="#181818" points="317.72,98,308.72,94,312.72,98,308.72,102,317.72,98" style="stroke:#181818;stroke-width:1.0;"/></g><!--MD5=[83347ae3abc883411c53a2c46203a14a]
link activityPoll to groupBy01--><g id="link_activityPoll_groupBy01"><path codeLine="63" d="M417.83,98 C434.17,98 450.52,98 466.86,98 " fill="none" id="activityPoll-to-groupBy01" style="stroke:#181818;stroke-width:1.0;"/><polygon fill="#181818" points="471.86,98,462.86,94,466.86,98,462.86,102,471.86,98" style="stroke:#181818;stroke-width:1.0;"/></g><!--MD5=[817b3c28d24fe868299ccb62781489c7]
link groupBy01 to map_01--><g id="link_groupBy01_map_01"><path codeLine="64" d="M591.58,98 C600.93,98 610.27,98 619.62,98 " fill="none" id="groupBy01-to-map_01" style="stroke:#181818;stroke-width:1.0;"/><polygon fill="#181818" points="624.57,98,615.57,94,619.57,98,615.57,102,624.57,98" style="stroke:#181818;stroke-width:1.0;"/></g><!--MD5=[18db15526802b9691456b3a23d891a4a]
link map_01 to mergeMap_01--><g id="link_map_01_mergeMap_01"><path codeLine="65" d="M655.77,111.37 C652.59,134.16 645.8,182.88 642.07,209.57 " fill="none" id="map_01-to-mergeMap_01" style="stroke:#181818;stroke-width:1.0;"/><polygon fill="#181818" points="641.4,214.36,646.6191,206.0077,642.0991,209.4091,638.6977,204.8891,641.4,214.36" style="stroke:#181818;stroke-width:1.0;"/></g><!--MD5=[24e2b6482f3f01163ddf7c7a0f9ebaba]
link mergeMap_01 to mergeScan01--><g id="link_mergeMap_01_mergeScan01"><path codeLine="67" d="M630.31,242.18 C614.46,263.21 581.91,306.36 563.66,330.56 " fill="none" id="mergeMap_01-to-mergeScan01" style="stroke:#181818;stroke-width:1.0;"/><polygon fill="#181818" points="560.68,334.5,569.2991,329.7345,563.696,330.512,562.9184,324.9089,560.68,334.5" style="stroke:#181818;stroke-width:1.0;"/></g><!--MD5=[47866244a6e1ee5116ff469304fb580e]
link mergeScan01 to map_04--><g id="link_mergeScan01_map_04"><path codeLine="68" d="M592.27,349 C601.82,349 611.37,349 620.92,349 " fill="none" id="mergeScan01-to-map_04" style="stroke:#181818;stroke-width:1.0;"/><polygon fill="#181818" points="625.68,349,616.68,345,620.68,349,616.68,353,625.68,349" style="stroke:#181818;stroke-width:1.0;"/></g><!--MD5=[0c3143672be1bd673c434647c314f808]
link map_04 to mergeMap_02--><g id="link_map_04_mergeMap_02"><path codeLine="70" d="M643.6,362.18 C634.16,369.58 621.51,378.93 609.5,386 C585.85,399.93 557.74,412.81 535.72,422.14 " fill="none" id="map_04-to-mergeMap_02" style="stroke:#181818;stroke-width:1.0;"/><polygon fill="#181818" points="531.37,423.97,541.2169,424.164,535.9782,422.0297,538.1125,416.7909,531.37,423.97" style="stroke:#181818;stroke-width:1.0;"/></g><!--MD5=[bb6238424440d830272f0b403186e043]
link mergeMap_02 to filter_01--><g id="link_mergeMap_02_filter_01"><path codeLine="71" d="M547.33,438 C556.6,438 565.86,438 575.13,438 " fill="none" id="mergeMap_02-to-filter_01" style="stroke:#181818;stroke-width:1.0;"/><polygon fill="#181818" points="580.03,438,571.03,434,575.03,438,571.03,442,580.03,438" style="stroke:#181818;stroke-width:1.0;"/></g><!--MD5=[12ae0146dd9772f820076d5431c406c9]
link filter_01 to map_05--><g id="link_filter_01_map_05"><path codeLine="72" d="M665.27,438 C674.82,438 684.37,438 693.92,438 " fill="none" id="filter_01-to-map_05" style="stroke:#181818;stroke-width:1.0;"/><polygon fill="#181818" points="698.68,438,689.68,434,693.68,438,689.68,442,698.68,438" style="stroke:#181818;stroke-width:1.0;"/></g><!--MD5=[0451b9581700f214609dabefbf0eb203]
@startuml activity

skinparam defaultFontName D2Coding

object activityPoll <<Observable>>
object pollLoop <<Observable>> {
  ActivityTaskWithBase64Token
}

object activityPollerStateSubject <<BehaviourSubject>>

queue tap01 [
  tap
]

pollLoop -> tap01
tap01 ..> activityPollerStateSubject: SHUTDOWN on complete
tap01 ..> activityPollerStateSubject: FAILED on error

tap01 -> activityPoll

frame activityOperator {

  frame closeableGroupBy {

    queue groupBy01 [
      groupBy(token)
    ]

    queue map_01 [
      map_01
    ]
  }

  queue mergeMap_01 [
    mergeMap_01
  ]

  frame mergeMapWithState {

    queue mergeScan01 [
      mergeScan
    ]

    queue map_04 [
      map_04
    ]

  }

  queue mergeMap_02 [
    mergeMap 02
  ]

  queue filter_01 [
    filter_01
  ]

  queue map_05 [
    map_05
  ]
}

activityPoll -right-> groupBy01
groupBy01 -right-> map_01
map_01 - -> mergeMap_01

mergeMap_01 - -> mergeScan01
mergeScan01 -> map_04

map_04 - -> mergeMap_02
mergeMap_02 -> filter_01
filter_01 -> map_05

@enduml

PlantUML version 1.2022.7(Tue Aug 23 02:01:30 KST 2022)
(GPL source distribution)
Java Runtime: OpenJDK Runtime Environment
JVM: OpenJDK 64-Bit Server VM
Default Encoding: UTF-8
Language: ko
Country: KR
--></g></svg>