<?xml version="1.0" encoding="UTF-8" standalone="no"?><svg xmlns="http://www.w3.org/2000/svg" xmlns:xlink="http://www.w3.org/1999/xlink" contentStyleType="text/css" height="208px" preserveAspectRatio="none" style="width:456px;height:208px;background:#FFFFFF;" version="1.1" viewBox="0 0 456 208" width="456px" zoomAndPan="magnify"><defs/><g><rect fill="#DDDDDD" height="196.8" style="stroke:#181818;stroke-width:0.5;" width="78" x="1" y="6"/><text fill="#000000" font-family="D2Coding" font-size="13" font-weight="bold" lengthAdjust="spacing" textLength="49" x="15.5" y="18.09">yuebing</text><rect fill="#FFFFFF" height="64.16" style="stroke:#181818;stroke-width:1.0;" width="10" x="35" y="95.4"/><line style="stroke:#181818;stroke-width:0.5;stroke-dasharray:5.0,5.0;" x1="40" x2="40" y1="56.32" y2="168.56"/><rect fill="#E2E2F0" height="30.24" rx="2.5" ry="2.5" style="stroke:#181818;stroke-width:0.5;" width="70" x="5" y="25.08"/><text fill="#000000" font-family="D2Coding" font-size="14" lengthAdjust="spacing" textLength="56" x="12" y="45.1">userUtil</text><rect fill="#E2E2F0" height="30.24" rx="2.5" ry="2.5" style="stroke:#181818;stroke-width:0.5;" width="70" x="5" y="167.56"/><text fill="#000000" font-family="D2Coding" font-size="14" lengthAdjust="spacing" textLength="56" x="12" y="187.58">userUtil</text><rect fill="#FFFFFF" height="64.16" style="stroke:#181818;stroke-width:1.0;" width="10" x="35" y="95.4"/><line style="stroke:#181818;stroke-width:1.0;" x1="40" x2="87" y1="82.4" y2="82.4"/><line style="stroke:#181818;stroke-width:1.0;" x1="87" x2="87" y1="82.4" y2="95.4"/><line style="stroke:#181818;stroke-width:1.0;" x1="46" x2="87" y1="95.4" y2="95.4"/><polygon fill="#181818" points="56,91.4,46,95.4,56,99.4,52,95.4" style="stroke:#181818;stroke-width:1.0;"/><text fill="#000000" font-family="D2Coding" font-size="13" lengthAdjust="spacing" textLength="168" x="52" y="77.41">registerInitialAdminUser</text><line style="stroke:#181818;stroke-width:1.0;" x1="45" x2="87" y1="133.52" y2="133.52"/><line style="stroke:#181818;stroke-width:1.0;" x1="87" x2="87" y1="133.52" y2="146.52"/><line style="stroke:#181818;stroke-width:1.0;" x1="46" x2="87" y1="146.52" y2="146.52"/><polygon fill="#181818" points="56,142.52,46,146.52,56,150.52,52,146.52" style="stroke:#181818;stroke-width:1.0;"/><text fill="#000000" font-family="D2Coding" font-size="13" lengthAdjust="spacing" textLength="112" x="52" y="128.53">createUserRecord</text><path d="M176,113.4 L176,153.4 L449,153.4 L449,123.4 L439,113.4 L176,113.4 " fill="#FEFFDD" style="stroke:#181818;stroke-width:0.5;"/><path d="M439,113.4 L439,123.4 L449,123.4 L439,113.4 " fill="#FEFFDD" style="stroke:#181818;stroke-width:0.5;"/><text fill="#000000" font-family="D2Coding" font-size="13" lengthAdjust="spacing" textLength="252" x="182" y="130.49">/users/{shasum(`/users/{username}`)}</text><text fill="#000000" font-family="D2Coding" font-size="13" lengthAdjust="spacing" textLength="245" x="182" y="145.57">/emails/{shasum(`/emails/{email}`)}</text><!--MD5=[86d4895daaff1e400e42d104b2bf051a]
--></g></svg>
