<?xml version="1.0" encoding="UTF-8" standalone="no"?><svg xmlns="http://www.w3.org/2000/svg" xmlns:xlink="http://www.w3.org/1999/xlink" contentStyleType="text/css" height="1324px" preserveAspectRatio="none" style="width:630px;height:1324px;background:#FFFFFF;" version="1.1" viewBox="0 0 630 1324" width="630px" zoomAndPan="magnify"><defs/><g><rect fill="#FFFFFF" height="281.88" style="stroke:#181818;stroke-width:1.0;" width="10" x="180" y="843.12"/><rect fill="#FFFFFF" height="90.16" style="stroke:#181818;stroke-width:1.0;" width="10" x="185" y="1020.84"/><rect fill="#FFFFFF" height="48.08" style="stroke:#181818;stroke-width:1.0;" width="10" x="190" y="1062.92"/><rect fill="#FFFFFF" height="802.16" style="stroke:#181818;stroke-width:1.0;" width="10" x="439.5" y="433"/><rect fill="#FFFFFF" height="714.92" style="stroke:#181818;stroke-width:1.0;" width="10" x="444.5" y="520.24"/><rect fill="#FFFFFF" height="28" style="stroke:#181818;stroke-width:1.0;" width="10" x="449.5" y="562.32"/><rect fill="#FFFFFF" height="315.96" style="stroke:#181818;stroke-width:1.0;" width="10" x="449.5" y="809.04"/><rect fill="#FFFFFF" height="28" style="stroke:#181818;stroke-width:1.0;" width="10" x="449.5" y="1162.08"/><line style="stroke:#181818;stroke-width:0.5;stroke-dasharray:5.0,5.0;" x1="22" x2="22" y1="81.24" y2="1244.16"/><line style="stroke:#181818;stroke-width:0.5;stroke-dasharray:5.0,5.0;" x1="98" x2="98" y1="121.86" y2="1244.16"/><line style="stroke:#181818;stroke-width:0.5;stroke-dasharray:5.0,5.0;" x1="185" x2="185" y1="163.1" y2="1244.16"/><line style="stroke:#181818;stroke-width:0.5;stroke-dasharray:5.0,5.0;" x1="346.5" x2="346.5" y1="204.34" y2="1244.16"/><line style="stroke:#181818;stroke-width:0.5;stroke-dasharray:5.0,5.0;" x1="444.5" x2="444.5" y1="401.3" y2="1244.16"/><line style="stroke:#181818;stroke-width:0.5;stroke-dasharray:5.0,5.0;" x1="606" x2="606" y1="81.24" y2="1244.16"/><text fill="#000000" font-family="D2Coding" font-size="14" lengthAdjust="spacing" textLength="28" x="5" y="78.02">User</text><ellipse cx="22" cy="13.5" fill="#E2E2F0" rx="8" ry="8" style="stroke:#181818;stroke-width:0.5;"/><path d="M22,21.5 L22,48.5 M9,29.5 L35,29.5 M22,48.5 L9,63.5 M22,48.5 L35,63.5 " fill="none" style="stroke:#181818;stroke-width:0.5;"/><text fill="#000000" font-family="D2Coding" font-size="14" lengthAdjust="spacing" textLength="28" x="5" y="1256.18">User</text><ellipse cx="22" cy="1267.9" fill="#E2E2F0" rx="8" ry="8" style="stroke:#181818;stroke-width:0.5;"/><path d="M22,1275.9 L22,1302.9 M9,1283.9 L35,1283.9 M22,1302.9 L9,1317.9 M22,1302.9 L35,1317.9 " fill="none" style="stroke:#181818;stroke-width:0.5;"/><rect fill="#E2E2F0" height="30.24" rx="2.5" ry="2.5" style="stroke:#181818;stroke-width:0.5;" width="98" x="49" y="1243.16"/><text fill="#000000" font-family="D2Coding" font-size="14" lengthAdjust="spacing" textLength="84" x="56" y="1263.18">BufferMemory</text><rect fill="#E2E2F0" height="30.24" rx="2.5" ry="2.5" style="stroke:#181818;stroke-width:0.5;" width="56" x="157" y="1243.16"/><text fill="#000000" font-family="D2Coding" font-size="14" lengthAdjust="spacing" textLength="42" x="164" y="1263.18">OpenAI</text><rect fill="#E2E2F0" height="30.24" rx="2.5" ry="2.5" style="stroke:#181818;stroke-width:0.5;" width="105" x="294.5" y="1243.16"/><text fill="#000000" font-family="D2Coding" font-size="14" lengthAdjust="spacing" textLength="91" x="301.5" y="1263.18">PromptTempate</text><rect fill="#E2E2F0" height="30.24" rx="2.5" ry="2.5" style="stroke:#181818;stroke-width:0.5;" width="70" x="409.5" y="1243.16"/><text fill="#000000" font-family="D2Coding" font-size="14" lengthAdjust="spacing" textLength="56" x="416.5" y="1263.18">LLMChain</text><rect fill="#E2E2F0" height="30.24" rx="2.5" ry="2.5" style="stroke:#181818;stroke-width:0.5;" width="35" x="589" y="50"/><text fill="#000000" font-family="D2Coding" font-size="14" lengthAdjust="spacing" textLength="21" x="596" y="70.02">API</text><rect fill="#E2E2F0" height="30.24" rx="2.5" ry="2.5" style="stroke:#181818;stroke-width:0.5;" width="35" x="589" y="1243.16"/><text fill="#000000" font-family="D2Coding" font-size="14" lengthAdjust="spacing" textLength="21" x="596" y="1263.18">API</text><rect fill="#FFFFFF" height="281.88" style="stroke:#181818;stroke-width:1.0;" width="10" x="180" y="843.12"/><rect fill="#FFFFFF" height="90.16" style="stroke:#181818;stroke-width:1.0;" width="10" x="185" y="1020.84"/><rect fill="#FFFFFF" height="48.08" style="stroke:#181818;stroke-width:1.0;" width="10" x="190" y="1062.92"/><rect fill="#FFFFFF" height="802.16" style="stroke:#181818;stroke-width:1.0;" width="10" x="439.5" y="433"/><rect fill="#FFFFFF" height="714.92" style="stroke:#181818;stroke-width:1.0;" width="10" x="444.5" y="520.24"/><rect fill="#FFFFFF" height="28" style="stroke:#181818;stroke-width:1.0;" width="10" x="449.5" y="562.32"/><rect fill="#FFFFFF" height="315.96" style="stroke:#181818;stroke-width:1.0;" width="10" x="449.5" y="809.04"/><rect fill="#FFFFFF" height="28" style="stroke:#181818;stroke-width:1.0;" width="10" x="449.5" y="1162.08"/><polygon fill="#181818" points="37,93.24,47,97.24,37,101.24,41,97.24" style="stroke:#181818;stroke-width:1.0;"/><line style="stroke:#181818;stroke-width:1.0;" x1="22" x2="43" y1="97.24" y2="97.24"/><rect fill="#E2E2F0" height="30.24" rx="2.5" ry="2.5" style="stroke:#181818;stroke-width:0.5;" width="98" x="49" y="91.24"/><text fill="#000000" font-family="D2Coding" font-size="14" lengthAdjust="spacing" textLength="84" x="56" y="111.26">BufferMemory</text><polygon fill="#181818" points="145,134.48,155,138.48,145,142.48,149,138.48" style="stroke:#181818;stroke-width:1.0;"/><line style="stroke:#181818;stroke-width:1.0;" x1="22" x2="151" y1="138.48" y2="138.48"/><rect fill="#E2E2F0" height="30.24" rx="2.5" ry="2.5" style="stroke:#181818;stroke-width:0.5;" width="56" x="157" y="132.48"/><text fill="#000000" font-family="D2Coding" font-size="14" lengthAdjust="spacing" textLength="42" x="164" y="152.5">OpenAI</text><polygon fill="#181818" points="282.5,175.72,292.5,179.72,282.5,183.72,286.5,179.72" style="stroke:#181818;stroke-width:1.0;"/><line style="stroke:#181818;stroke-width:1.0;" x1="22" x2="288.5" y1="179.72" y2="179.72"/><rect fill="#E2E2F0" height="30.24" rx="2.5" ry="2.5" style="stroke:#181818;stroke-width:0.5;" width="105" x="294.5" y="173.72"/><text fill="#000000" font-family="D2Coding" font-size="14" lengthAdjust="spacing" textLength="91" x="301.5" y="193.74">PromptTempate</text><path d="M7,219.96 L7,364.96 L621,364.96 L621,229.96 L611,219.96 L7,219.96 " fill="#FEFFDD" style="stroke:#181818;stroke-width:0.5;"/><path d="M611,219.96 L611,229.96 L621,229.96 L611,219.96 " fill="#FEFFDD" style="stroke:#181818;stroke-width:0.5;"/><text fill="#000000" font-family="D2Coding" font-size="13" font-weight="bold" lengthAdjust="spacing" textLength="98" x="75" y="237.05">프롬프트 템플릿</text><text fill="#000000" font-family="D2Coding" font-size="13" lengthAdjust="spacing" textLength="21" x="75" y="252.13">```</text><text fill="#000000" font-family="D2Coding" font-size="13" lengthAdjust="spacing" textLength="469" x="75" y="267.21">The following is a friendly conversation between a human and an AI.</text><text fill="#000000" font-family="D2Coding" font-size="13" lengthAdjust="spacing" textLength="7" x="75" y="282.29"> </text><text fill="#000000" font-family="D2Coding" font-size="13" lengthAdjust="spacing" textLength="147" x="75" y="297.37">Current conversation:</text><text fill="#000000" font-family="D2Coding" font-size="13" lengthAdjust="spacing" textLength="98" x="75" y="312.45">{chat_history}</text><text fill="#000000" font-family="D2Coding" font-size="13" lengthAdjust="spacing" textLength="98" x="75" y="327.53">Human: {input}</text><text fill="#000000" font-family="D2Coding" font-size="13" lengthAdjust="spacing" textLength="21" x="75" y="342.61">AI:</text><text fill="#000000" font-family="D2Coding" font-size="13" lengthAdjust="spacing" textLength="21" x="75" y="357.69">```</text><polygon fill="#181818" points="397.5,372.68,407.5,376.68,397.5,380.68,401.5,376.68" style="stroke:#181818;stroke-width:1.0;"/><line style="stroke:#181818;stroke-width:1.0;" x1="22" x2="403.5" y1="376.68" y2="376.68"/><rect fill="#E2E2F0" height="30.24" rx="2.5" ry="2.5" style="stroke:#181818;stroke-width:0.5;" width="70" x="409.5" y="370.68"/><text fill="#000000" font-family="D2Coding" font-size="14" lengthAdjust="spacing" textLength="56" x="416.5" y="390.7">LLMChain</text><polygon fill="#181818" points="427.5,429,437.5,433,427.5,437,431.5,433" style="stroke:#181818;stroke-width:1.0;"/><line style="stroke:#181818;stroke-width:1.0;" x1="22" x2="433.5" y1="433" y2="433"/><text fill="#000000" font-family="D2Coding" font-size="13" lengthAdjust="spacing" textLength="28" x="29" y="428.01">call</text><path d="M7,446 L7,486 L621,486 L621,456 L611,446 L7,446 " fill="#FEFFDD" style="stroke:#181818;stroke-width:0.5;"/><path d="M611,446 L611,456 L621,456 L611,446 " fill="#FEFFDD" style="stroke:#181818;stroke-width:0.5;"/><text fill="#000000" font-family="D2Coding" font-size="13" font-weight="bold" lengthAdjust="spacing" textLength="98" x="250" y="463.09">사용자 프롬프트</text><text fill="#000000" font-family="D2Coding" font-size="13" lengthAdjust="spacing" textLength="119" x="250" y="478.17">`What's my name?`</text><line style="stroke:#181818;stroke-width:1.0;" x1="449.5" x2="496.5" y1="507.24" y2="507.24"/><line style="stroke:#181818;stroke-width:1.0;" x1="496.5" x2="496.5" y1="507.24" y2="520.24"/><line style="stroke:#181818;stroke-width:1.0;" x1="455.5" x2="496.5" y1="520.24" y2="520.24"/><polygon fill="#181818" points="465.5,516.24,455.5,520.24,465.5,524.24,461.5,520.24" style="stroke:#181818;stroke-width:1.0;"/><text fill="#000000" font-family="D2Coding" font-size="13" lengthAdjust="spacing" textLength="98" x="461.5" y="502.25">BaseChain.call</text><line style="stroke:#181818;stroke-width:1.0;" x1="459.5" x2="501.5" y1="554.32" y2="554.32"/><line style="stroke:#181818;stroke-width:1.0;" x1="501.5" x2="501.5" y1="554.32" y2="567.32"/><line style="stroke:#181818;stroke-width:1.0;" x1="460.5" x2="501.5" y1="567.32" y2="567.32"/><polygon fill="#181818" points="470.5,563.32,460.5,567.32,470.5,571.32,466.5,567.32" style="stroke:#181818;stroke-width:1.0;"/><text fill="#000000" font-family="D2Coding" font-size="13" lengthAdjust="spacing" textLength="133" x="466.5" y="549.33">_selectMemoryInputs</text><path d="M7,610.32 L7,650.32 L621,650.32 L621,620.32 L611,610.32 L7,610.32 " fill="#FEFFDD" style="stroke:#181818;stroke-width:0.5;"/><path d="M611,610.32 L611,620.32 L621,620.32 L611,610.32 " fill="#FEFFDD" style="stroke:#181818;stroke-width:0.5;"/><text fill="#000000" font-family="D2Coding" font-size="13" lengthAdjust="spacing" textLength="399" x="110" y="627.41">stop, timeout, signal, tags, metadata, callbacks, options</text><text fill="#000000" font-family="D2Coding" font-size="13" lengthAdjust="spacing" textLength="136" x="110" y="642.49">LLM 호출 inputs 제거</text><polygon fill="#181818" points="109,672.56,99,676.56,109,680.56,105,676.56" style="stroke:#181818;stroke-width:1.0;"/><line style="stroke:#181818;stroke-width:1.0;" x1="103" x2="443.5" y1="676.56" y2="676.56"/><text fill="#000000" font-family="D2Coding" font-size="13" lengthAdjust="spacing" textLength="133" x="115" y="671.57">loadMemoryVariables</text><path d="M7,689.56 L7,774.56 L621,774.56 L621,699.56 L611,689.56 L7,689.56 " fill="#FEFFDD" style="stroke:#181818;stroke-width:0.5;"/><path d="M611,689.56 L611,699.56 L621,699.56 L611,689.56 " fill="#FEFFDD" style="stroke:#181818;stroke-width:0.5;"/><text fill="#000000" font-family="D2Coding" font-size="13" font-weight="bold" lengthAdjust="spacing" textLength="150" x="50.5" y="706.65">기존 chat history 획득</text><text fill="#000000" font-family="D2Coding" font-size="13" lengthAdjust="spacing" textLength="49" x="50.5" y="721.73">```text</text><text fill="#000000" font-family="D2Coding" font-size="13" lengthAdjust="spacing" textLength="133" x="50.5" y="736.81">Human: Hi! I'm Jim.</text><text fill="#000000" font-family="D2Coding" font-size="13" lengthAdjust="spacing" textLength="518" x="50.5" y="751.89">AI:  Hi Jim, my name is AI. Nice to meet you! What can I do for you today?</text><text fill="#000000" font-family="D2Coding" font-size="13" lengthAdjust="spacing" textLength="21" x="50.5" y="766.97">```</text><line style="stroke:#181818;stroke-width:1.0;" x1="454.5" x2="501.5" y1="796.04" y2="796.04"/><line style="stroke:#181818;stroke-width:1.0;" x1="501.5" x2="501.5" y1="796.04" y2="809.04"/><line style="stroke:#181818;stroke-width:1.0;" x1="460.5" x2="501.5" y1="809.04" y2="809.04"/><polygon fill="#181818" points="470.5,805.04,460.5,809.04,470.5,813.04,466.5,809.04" style="stroke:#181818;stroke-width:1.0;"/><text fill="#000000" font-family="D2Coding" font-size="13" lengthAdjust="spacing" textLength="35" x="466.5" y="791.05">_call</text><polygon fill="#181818" points="201,839.12,191,843.12,201,847.12,197,843.12" style="stroke:#181818;stroke-width:1.0;"/><line style="stroke:#181818;stroke-width:1.0;" x1="195" x2="448.5" y1="843.12" y2="843.12"/><text fill="#000000" font-family="D2Coding" font-size="13" lengthAdjust="spacing" textLength="154" x="207" y="838.13">BaseLLM:generatePrompt</text><path d="M7,856.12 L7,986.12 L621,986.12 L621,866.12 L611,856.12 L7,856.12 " fill="#FEFFDD" style="stroke:#181818;stroke-width:0.5;"/><path d="M611,856.12 L611,866.12 L621,866.12 L611,856.12 " fill="#FEFFDD" style="stroke:#181818;stroke-width:0.5;"/><text fill="#000000" font-family="D2Coding" font-size="13" font-weight="bold" lengthAdjust="spacing" textLength="85" x="50.5" y="873.21">최종 프롬프트</text><text fill="#000000" font-family="D2Coding" font-size="13" lengthAdjust="spacing" textLength="469" x="50.5" y="888.29">The following is a friendly conversation between a human and an AI.</text><text fill="#000000" font-family="D2Coding" font-size="13" lengthAdjust="spacing" textLength="7" x="50.5" y="903.37"> </text><text fill="#000000" font-family="D2Coding" font-size="13" lengthAdjust="spacing" textLength="147" x="50.5" y="918.45">Current conversation:</text><text fill="#000000" font-family="D2Coding" font-size="13" lengthAdjust="spacing" textLength="133" x="50.5" y="933.53">Human: Hi! I'm Jim.</text><text fill="#000000" font-family="D2Coding" font-size="13" lengthAdjust="spacing" textLength="518" x="50.5" y="948.61">AI:  Hi Jim, my name is AI. Nice to meet you! What can I do for you today?</text><text fill="#000000" font-family="D2Coding" font-size="13" lengthAdjust="spacing" textLength="154" x="50.5" y="963.69">Human: What's my name?</text><text fill="#000000" font-family="D2Coding" font-size="13" lengthAdjust="spacing" textLength="21" x="50.5" y="978.77">AI:</text><line style="stroke:#181818;stroke-width:1.0;" x1="190" x2="237" y1="1007.84" y2="1007.84"/><line style="stroke:#181818;stroke-width:1.0;" x1="237" x2="237" y1="1007.84" y2="1020.84"/><line style="stroke:#181818;stroke-width:1.0;" x1="196" x2="237" y1="1020.84" y2="1020.84"/><polygon fill="#181818" points="206,1016.84,196,1020.84,206,1024.84,202,1020.84" style="stroke:#181818;stroke-width:1.0;"/><text fill="#000000" font-family="D2Coding" font-size="13" lengthAdjust="spacing" textLength="63" x="202" y="1002.85">_generate</text><line style="stroke:#181818;stroke-width:1.0;" x1="195" x2="242" y1="1049.92" y2="1049.92"/><line style="stroke:#181818;stroke-width:1.0;" x1="242" x2="242" y1="1049.92" y2="1062.92"/><line style="stroke:#181818;stroke-width:1.0;" x1="201" x2="242" y1="1062.92" y2="1062.92"/><polygon fill="#181818" points="211,1058.92,201,1062.92,211,1066.92,207,1062.92" style="stroke:#181818;stroke-width:1.0;"/><text fill="#000000" font-family="D2Coding" font-size="13" lengthAdjust="spacing" textLength="133" x="207" y="1044.93">completionWithRetry</text><polygon fill="#181818" points="594.5,1093,604.5,1097,594.5,1101,598.5,1097" style="stroke:#181818;stroke-width:1.0;"/><line style="stroke:#181818;stroke-width:1.0;stroke-dasharray:2.0,2.0;" x1="200" x2="600.5" y1="1097" y2="1097"/><text fill="#000000" font-family="D2Coding" font-size="13" lengthAdjust="spacing" textLength="28" x="207" y="1092.01">call</text><polygon fill="#181818" points="201,1107,191,1111,201,1115,197,1111" style="stroke:#181818;stroke-width:1.0;"/><line style="stroke:#181818;stroke-width:1.0;stroke-dasharray:2.0,2.0;" x1="195" x2="605.5" y1="1111" y2="1111"/><polygon fill="#181818" points="432.5,1121,442.5,1125,432.5,1129,436.5,1125" style="stroke:#181818;stroke-width:1.0;"/><line style="stroke:#181818;stroke-width:1.0;" x1="185" x2="438.5" y1="1125" y2="1125"/><line style="stroke:#181818;stroke-width:1.0;" x1="459.5" x2="501.5" y1="1154.08" y2="1154.08"/><line style="stroke:#181818;stroke-width:1.0;" x1="501.5" x2="501.5" y1="1154.08" y2="1167.08"/><line style="stroke:#181818;stroke-width:1.0;" x1="460.5" x2="501.5" y1="1167.08" y2="1167.08"/><polygon fill="#181818" points="470.5,1163.08,460.5,1167.08,470.5,1171.08,466.5,1167.08" style="stroke:#181818;stroke-width:1.0;"/><text fill="#000000" font-family="D2Coding" font-size="13" lengthAdjust="spacing" textLength="133" x="466.5" y="1149.09">_selectMemoryInputs</text><polygon fill="#181818" points="109,1222.16,99,1226.16,109,1230.16,105,1226.16" style="stroke:#181818;stroke-width:1.0;"/><line style="stroke:#181818;stroke-width:1.0;" x1="103" x2="443.5" y1="1226.16" y2="1226.16"/><text fill="#000000" font-family="D2Coding" font-size="13" lengthAdjust="spacing" textLength="77" x="115" y="1221.17">saveContext</text><!--MD5=[7385de8c38102f7cd10b23e499177ed6]
--></g></svg>
