<?xml version="1.0" encoding="us-ascii" standalone="no"?><svg xmlns="http://www.w3.org/2000/svg" xmlns:xlink="http://www.w3.org/1999/xlink" contentStyleType="text/css" height="554px" preserveAspectRatio="none" style="width:661px;height:554px;background:#FFFFFF;" version="1.1" viewBox="0 0 661 554" width="661px" zoomAndPan="magnify"><defs/><g><!--cluster micromark_repo--><g id="cluster_micromark_repo"><path d="M24,6 L103,6 A3.75,3.75 0 0 1 105.5,8.5 L112.5,28.4883 L364,28.4883 A2.5,2.5 0 0 1 366.5,30.9883 L366.5,107.5 A2.5,2.5 0 0 1 364,110 L24,110 A2.5,2.5 0 0 1 21.5,107.5 L21.5,8.5 A2.5,2.5 0 0 1 24,6 " fill="none" style="stroke:#000000;stroke-width:1.5;"/><line style="stroke:#000000;stroke-width:1.5;" x1="21.5" x2="112.5" y1="28.4883" y2="28.4883"/><text fill="#000000" font-family="sans-serif" font-size="14" font-weight="bold" lengthAdjust="spacing" textLength="78" x="25.5" y="21.5352">micromark</text></g><!--cluster remark_repo--><g id="cluster_remark_repo"><path d="M89,297 L141,297 A3.75,3.75 0 0 1 143.5,299.5 L150.5,319.4883 L448,319.4883 A2.5,2.5 0 0 1 450.5,321.9883 L450.5,544.5 A2.5,2.5 0 0 1 448,547 L89,547 A2.5,2.5 0 0 1 86.5,544.5 L86.5,299.5 A2.5,2.5 0 0 1 89,297 " fill="none" style="stroke:#000000;stroke-width:1.5;"/><line style="stroke:#000000;stroke-width:1.5;" x1="86.5" x2="150.5" y1="319.4883" y2="319.4883"/><text fill="#000000" font-family="sans-serif" font-size="14" font-weight="bold" lengthAdjust="spacing" textLength="51" x="90.5" y="312.5352">remark</text></g><path d="M8.5,173 L60.5,173 A3.75,3.75 0 0 1 63,175.5 L70,195.4883 L74.5,195.4883 A2.5,2.5 0 0 1 77,197.9883 L77,223.4766 A2.5,2.5 0 0 1 74.5,225.9766 L8.5,225.9766 A2.5,2.5 0 0 1 6,223.4766 L6,175.5 A2.5,2.5 0 0 1 8.5,173 " fill="#F1F1F1" style="stroke:#181818;stroke-width:0.5;"/><line style="stroke:#181818;stroke-width:0.5;" x1="6" x2="70" y1="195.4883" y2="195.4883"/><text fill="#000000" font-family="sans-serif" font-size="14" font-weight="bold" lengthAdjust="spacing" textLength="51" x="10" y="188.5352">unified</text><path d="M255,41 L334,41 A3.75,3.75 0 0 1 336.5,43.5 L343.5,63.4883 L348,63.4883 A2.5,2.5 0 0 1 350.5,65.9883 L350.5,91.4766 A2.5,2.5 0 0 1 348,93.9766 L255,93.9766 A2.5,2.5 0 0 1 252.5,91.4766 L252.5,43.5 A2.5,2.5 0 0 1 255,41 " fill="#F1F1F1" style="stroke:#181818;stroke-width:0.5;"/><line style="stroke:#181818;stroke-width:0.5;" x1="252.5" x2="343.5" y1="63.4883" y2="63.4883"/><text fill="#000000" font-family="sans-serif" font-size="14" font-weight="bold" lengthAdjust="spacing" textLength="78" x="256.5" y="56.5352">mircomark</text><path d="M40,41 L201,41 A3.75,3.75 0 0 1 203.5,43.5 L210.5,63.4883 L215,63.4883 A2.5,2.5 0 0 1 217.5,65.9883 L217.5,91.4766 A2.5,2.5 0 0 1 215,93.9766 L40,93.9766 A2.5,2.5 0 0 1 37.5,91.4766 L37.5,43.5 A2.5,2.5 0 0 1 40,41 " fill="#F1F1F1" style="stroke:#181818;stroke-width:0.5;"/><line style="stroke:#181818;stroke-width:0.5;" x1="37.5" x2="210.5" y1="63.4883" y2="63.4883"/><text fill="#000000" font-family="sans-serif" font-size="14" font-weight="bold" lengthAdjust="spacing" textLength="160" x="41.5" y="56.5352">micromark-util-types</text><path d="M186,173 L395,173 A3.75,3.75 0 0 1 397.5,175.5 L404.5,195.4883 L409,195.4883 A2.5,2.5 0 0 1 411.5,197.9883 L411.5,223.4766 A2.5,2.5 0 0 1 409,225.9766 L186,225.9766 A2.5,2.5 0 0 1 183.5,223.4766 L183.5,175.5 A2.5,2.5 0 0 1 186,173 " fill="#F1F1F1" style="stroke:#181818;stroke-width:0.5;"/><line style="stroke:#181818;stroke-width:0.5;" x1="183.5" x2="404.5" y1="195.4883" y2="195.4883"/><text fill="#000000" font-family="sans-serif" font-size="14" font-weight="bold" lengthAdjust="spacing" textLength="208" x="187.5" y="188.5352">mdast-util-from-markdown</text><path d="M449,173 L638,173 A3.75,3.75 0 0 1 640.5,175.5 L647.5,195.4883 L652,195.4883 A2.5,2.5 0 0 1 654.5,197.9883 L654.5,223.4766 A2.5,2.5 0 0 1 652,225.9766 L449,225.9766 A2.5,2.5 0 0 1 446.5,223.4766 L446.5,175.5 A2.5,2.5 0 0 1 449,173 " fill="#F1F1F1" style="stroke:#181818;stroke-width:0.5;"/><line style="stroke:#181818;stroke-width:0.5;" x1="446.5" x2="647.5" y1="195.4883" y2="195.4883"/><text fill="#000000" font-family="sans-serif" font-size="14" font-weight="bold" lengthAdjust="spacing" textLength="188" x="450.5" y="188.5352">mdast-util-to-markdown</text><path d="M156.5,470 L208.5,470 A3.75,3.75 0 0 1 211,472.5 L218,492.4883 L222.5,492.4883 A2.5,2.5 0 0 1 225,494.9883 L225,520.4766 A2.5,2.5 0 0 1 222.5,522.9766 L156.5,522.9766 A2.5,2.5 0 0 1 154,520.4766 L154,472.5 A2.5,2.5 0 0 1 156.5,470 " fill="#F1F1F1" style="stroke:#181818;stroke-width:0.5;"/><line style="stroke:#181818;stroke-width:0.5;" x1="154" x2="218" y1="492.4883" y2="492.4883"/><text fill="#000000" font-family="sans-serif" font-size="14" font-weight="bold" lengthAdjust="spacing" textLength="51" x="158" y="485.5352">remark</text><path d="M132.5,340 L232.5,340 A3.75,3.75 0 0 1 235,342.5 L242,362.4883 L246.5,362.4883 A2.5,2.5 0 0 1 249,364.9883 L249,390.4766 A2.5,2.5 0 0 1 246.5,392.9766 L132.5,392.9766 A2.5,2.5 0 0 1 130,390.4766 L130,342.5 A2.5,2.5 0 0 1 132.5,340 " fill="#F1F1F1" style="stroke:#181818;stroke-width:0.5;"/><line style="stroke:#181818;stroke-width:0.5;" x1="130" x2="242" y1="362.4883" y2="362.4883"/><text fill="#000000" font-family="sans-serif" font-size="14" font-weight="bold" lengthAdjust="spacing" textLength="99" x="134" y="355.5352">remark-parse</text><path d="M287,340 L410,340 A3.75,3.75 0 0 1 412.5,342.5 L419.5,362.4883 L424,362.4883 A2.5,2.5 0 0 1 426.5,364.9883 L426.5,390.4766 A2.5,2.5 0 0 1 424,392.9766 L287,392.9766 A2.5,2.5 0 0 1 284.5,390.4766 L284.5,342.5 A2.5,2.5 0 0 1 287,340 " fill="#F1F1F1" style="stroke:#181818;stroke-width:0.5;"/><line style="stroke:#181818;stroke-width:0.5;" x1="284.5" x2="419.5" y1="362.4883" y2="362.4883"/><text fill="#000000" font-family="sans-serif" font-size="14" font-weight="bold" lengthAdjust="spacing" textLength="122" x="288.5" y="355.5352">remark-stringify</text><!--reverse link micromark to mdast_util_from_markdown--><g id="link_micromark_mdast_util_from_markdown"><path codeLine="19" d="M300.5149,100.4871 C299.8149,123.1671 299,149.89 298.3,172.55 " fill="none" id="micromark-backto-mdast_util_from_markdown" style="stroke:#181818;stroke-width:1.0;"/><polygon fill="#181818" points="300.7,94.49,296.4243,103.3623,300.5458,99.4876,304.4205,103.6091,300.7,94.49" style="stroke:#181818;stroke-width:1.0;"/><text fill="#000000" font-family="sans-serif" font-size="13" lengthAdjust="spacing" textLength="196" x="300.5" y="139.5684">parse, postprocess, preprocess</text></g><!--reverse link mdast_util_from_markdown to remark_parse--><g id="link_mdast_util_from_markdown_remark_parse"><path codeLine="20" d="M277.3343,231.3004 C257.1043,262.2104 226.69,308.68 206.43,339.63 " fill="none" id="mdast_util_from_markdown-backto-remark_parse" style="stroke:#181818;stroke-width:1.0;"/><polygon fill="#181818" points="280.62,226.28,272.3445,231.6201,277.8819,230.4636,279.0383,236.001,280.62,226.28" style="stroke:#181818;stroke-width:1.0;"/><text fill="#000000" font-family="sans-serif" font-size="13" lengthAdjust="spacing" textLength="95" x="259.5" y="269.5684">fromMarkdown</text></g><!--reverse link micromark_util_types to remark_parse--><g id="link_micromark_util_types_remark_parse"><path codeLine="21" d="M134.1165,100.2133 C145.8465,156.3833 172.32,283.2 184.07,339.51 " fill="none" id="micromark_util_types-backto-remark_parse" style="stroke:#181818;stroke-width:1.0;"/><polygon fill="#181818" points="132.89,94.34,130.8143,103.9676,133.9121,99.2344,138.6453,102.3323,132.89,94.34" style="stroke:#181818;stroke-width:1.0;"/></g><!--reverse link unified to remark_repo--><!--reverse link unified to remark--><g id="link_unified_remark"><path codeLine="23" d="M41.6022,232.1981 C42.5822,270.8181 48.48,339.02 78.5,393 C96.54,425.44 128.55,453.33 153.57,471.79 " fill="none" id="unified-backto-remark" style="stroke:#181818;stroke-width:1.0;"/><polygon fill="#181818" points="41.45,226.2,37.6796,235.2986,41.5768,231.1984,45.677,235.0956,41.45,226.2" style="stroke:#181818;stroke-width:1.0;"/></g><!--reverse link remark_parse to remark--><g id="link_remark_parse_remark"><path codeLine="24" d="M189.5,399.4 C189.5,421.61 189.5,447.44 189.5,469.64 " fill="none" id="remark_parse-backto-remark" style="stroke:#181818;stroke-width:1.0;"/><polygon fill="#181818" points="189.5,393.4,185.5,402.4,189.5,398.4,193.5,402.4,189.5,393.4" style="stroke:#181818;stroke-width:1.0;"/><text fill="#000000" font-family="sans-serif" font-size="13" lengthAdjust="spacing" textLength="136" x="190.5" y="436.5684">remarkParse&lt;Plugin&gt;</text></g><!--reverse link remark_stringify to remark--><g id="link_remark_stringify_remark"><path codeLine="25" d="M353.2666,399.3732 C351.1566,414.6032 347.01,427.35 335.5,440 C306.85,471.49 258.42,485.23 225.26,491.15 " fill="none" id="remark_stringify-backto-remark" style="stroke:#181818;stroke-width:1.0;"/><polygon fill="#181818" points="354.09,393.43,348.8928,401.7959,353.4038,398.3827,356.8171,402.8938,354.09,393.43" style="stroke:#181818;stroke-width:1.0;"/></g><!--reverse link mdast_util_to_markdown to remark_stringify--><g id="link_mdast_util_to_markdown_remark_stringify"><path codeLine="27" d="M515.4497,230.1557 C478.9197,261.0657 422.65,308.68 386.08,339.63 " fill="none" id="mdast_util_to_markdown-backto-remark_stringify" style="stroke:#181818;stroke-width:1.0;"/><polygon fill="#181818" points="520.03,226.28,510.5758,229.0399,516.2131,229.5097,515.7433,235.147,520.03,226.28" style="stroke:#181818;stroke-width:1.0;"/></g><!--SRC=[TPBHhi8W38RlUOh6Qtc1nVW69_7-n2nai4bK8C1YZF7T3nrrXpbsHzll_saBJdHNCIZOZKRtMiaTY01qXjURCVS1xhhpzYxyTKBcgFNAMNWnW8BqNOL4kmL5UJv6VUFnwLJuiiP2EnLGksX6YX2pi4ymHrpQXya6MCnYBBQV8fhK7ABTr4UxK1STU3LFc8_hHUJyrzWvoPtmGPNgAL5dG_JQ3Bf_bloSfDLi3ir7nu__IsrWkcaFpeRelErK22b8pUSpM_H3uWtl1Z3yeQYghBmbA_ULiD-BbbAPSyBfun517jLaULT3qGc3m-as3jeSg_YyDCPMQroDMhmz-mC0]--></g></svg>