<?xml version="1.0" encoding="UTF-8" standalone="no"?><svg xmlns="http://www.w3.org/2000/svg" xmlns:xlink="http://www.w3.org/1999/xlink" contentStyleType="text/css" height="1097px" preserveAspectRatio="none" style="width:1715px;height:1097px;background:#FFFFFF;" version="1.1" viewBox="0 0 1715 1097" width="1715px" zoomAndPan="magnify"><defs/><g><rect fill="#FFFFFF" height="910.0059" style="stroke:#181818;stroke-width:1.0;" width="10" x="387.5" y="97.4883"/><rect fill="#FF6666" height="854.7295" style="stroke:#181818;stroke-width:1.0;" width="10" x="392.5" y="152.7646"/><rect fill="#66FF66" height="403.7266" style="stroke:#181818;stroke-width:1.0;" width="10" x="397.5" y="216.041"/><rect fill="#6666FF" height="151.5527" style="stroke:#181818;stroke-width:1.0;" width="10" x="402.5" y="331.9727"/><rect fill="#6666FF" height="98.9316" style="stroke:#181818;stroke-width:1.0;" width="10" x="402.5" y="520.8359"/><rect fill="#66FF66" height="343.416" style="stroke:#181818;stroke-width:1.0;" width="10" x="397.5" y="664.0781"/><rect fill="#FFFFFF" height="87.9316" style="stroke:#181818;stroke-width:1.0;" width="10" x="830.5" y="395.5938"/><rect fill="#FFFFFF" height="35.3105" style="stroke:#181818;stroke-width:1.0;" width="10" x="830.5" y="584.457"/><rect fill="#FFFFFF" height="309.1055" style="stroke:#181818;stroke-width:1.0;" width="10" x="1368.5" y="698.3887"/><rect fill="#FFFFFF" height="247.4844" style="stroke:#181818;stroke-width:1.0;" width="10" x="1373.5" y="760.0098"/><rect fill="#FFFFFF" height="29.3105" style="stroke:#181818;stroke-width:1.0;" width="10" x="1531.5" y="844.9414"/><rect fill="#FFFFFF" height="87.9316" style="stroke:#181818;stroke-width:1.0;" width="10" x="1531.5" y="903.5625"/><rect fill="none" height="59.6211" style="stroke:#000000;stroke-width:1.5;" width="546.5" x="337" y="236.041"/><rect fill="none" height="286.1055" style="stroke:#000000;stroke-width:1.5;" width="1699.5" x="10" y="713.3887"/><line style="stroke:#181818;stroke-width:0.5;stroke-dasharray:5.0,5.0;" x1="38" x2="38" y1="81.4883" y2="1016.4941"/><line style="stroke:#181818;stroke-width:0.5;stroke-dasharray:5.0,5.0;" x1="392" x2="392" y1="81.4883" y2="1016.4941"/><line style="stroke:#181818;stroke-width:0.5;stroke-dasharray:5.0,5.0;" x1="577.5" x2="577.5" y1="81.4883" y2="1016.4941"/><line style="stroke:#181818;stroke-width:0.5;stroke-dasharray:5.0,5.0;" x1="835" x2="835" y1="81.4883" y2="1016.4941"/><line style="stroke:#181818;stroke-width:0.5;stroke-dasharray:5.0,5.0;" x1="1015" x2="1015" y1="81.4883" y2="1016.4941"/><line style="stroke:#181818;stroke-width:0.5;stroke-dasharray:5.0,5.0;" x1="1158" x2="1158" y1="81.4883" y2="1016.4941"/><line style="stroke:#181818;stroke-width:0.5;stroke-dasharray:5.0,5.0;" x1="1257" x2="1257" y1="81.4883" y2="1016.4941"/><line style="stroke:#181818;stroke-width:0.5;stroke-dasharray:5.0,5.0;" x1="1373" x2="1373" y1="81.4883" y2="1016.4941"/><line style="stroke:#181818;stroke-width:0.5;stroke-dasharray:5.0,5.0;" x1="1536.5" x2="1536.5" y1="81.4883" y2="1016.4941"/><text fill="#000000" font-family="sans-serif" font-size="14" lengthAdjust="spacing" textLength="31" x="20" y="78.5352">User</text><ellipse cx="38.5" cy="13.5" fill="#E2E2F0" rx="8" ry="8" style="stroke:#181818;stroke-width:0.5;"/><path d="M38.5,21.5 L38.5,48.5 M25.5,29.5 L51.5,29.5 M38.5,48.5 L25.5,63.5 M38.5,48.5 L51.5,63.5 " fill="none" style="stroke:#181818;stroke-width:0.5;"/><text fill="#000000" font-family="sans-serif" font-size="14" lengthAdjust="spacing" textLength="31" x="20" y="1029.0293">User</text><ellipse cx="38.5" cy="1040.4824" fill="#E2E2F0" rx="8" ry="8" style="stroke:#181818;stroke-width:0.5;"/><path d="M38.5,1048.4824 L38.5,1075.4824 M25.5,1056.4824 L51.5,1056.4824 M38.5,1075.4824 L25.5,1090.4824 M38.5,1075.4824 L51.5,1090.4824 " fill="none" style="stroke:#181818;stroke-width:0.5;"/><rect fill="#E2E2F0" height="30.4883" rx="2.5" ry="2.5" style="stroke:#181818;stroke-width:0.5;" width="91" x="347" y="50"/><text fill="#000000" font-family="sans-serif" font-size="14" lengthAdjust="spacing" textLength="77" x="354" y="70.5352">Framework</text><rect fill="#E2E2F0" height="30.4883" rx="2.5" ry="2.5" style="stroke:#181818;stroke-width:0.5;" width="91" x="347" y="1015.4941"/><text fill="#000000" font-family="sans-serif" font-size="14" lengthAdjust="spacing" textLength="77" x="354" y="1036.0293">Framework</text><rect fill="#E2E2F0" height="30.4883" rx="2.5" ry="2.5" style="stroke:#181818;stroke-width:0.5;" width="116" x="519.5" y="50"/><text fill="#000000" font-family="sans-serif" font-size="14" lengthAdjust="spacing" textLength="102" x="526.5" y="70.5352">CheckManager</text><rect fill="#E2E2F0" height="30.4883" rx="2.5" ry="2.5" style="stroke:#181818;stroke-width:0.5;" width="116" x="519.5" y="1015.4941"/><text fill="#000000" font-family="sans-serif" font-size="14" lengthAdjust="spacing" textLength="102" x="526.5" y="1036.0293">CheckManager</text><rect fill="#E2E2F0" height="30.4883" rx="2.5" ry="2.5" style="stroke:#181818;stroke-width:0.5;" width="75" x="798" y="50"/><text fill="#000000" font-family="sans-serif" font-size="14" lengthAdjust="spacing" textLength="61" x="805" y="70.5352">DataDrift</text><rect fill="#E2E2F0" height="30.4883" rx="2.5" ry="2.5" style="stroke:#181818;stroke-width:0.5;" width="75" x="798" y="1015.4941"/><text fill="#000000" font-family="sans-serif" font-size="14" lengthAdjust="spacing" textLength="61" x="805" y="1036.0293">DataDrift</text><rect fill="#E2E2F0" height="30.4883" rx="2.5" ry="2.5" style="stroke:#181818;stroke-width:0.5;" width="181" x="925" y="50"/><text fill="#000000" font-family="sans-serif" font-size="14" lengthAdjust="spacing" textLength="167" x="932" y="70.5352">InputFeatureMeasurable</text><rect fill="#E2E2F0" height="30.4883" rx="2.5" ry="2.5" style="stroke:#181818;stroke-width:0.5;" width="181" x="925" y="1015.4941"/><text fill="#000000" font-family="sans-serif" font-size="14" lengthAdjust="spacing" textLength="167" x="932" y="1036.0293">InputFeatureMeasurable</text><rect fill="#E2E2F0" height="30.4883" rx="2.5" ry="2.5" style="stroke:#181818;stroke-width:0.5;" width="85" x="1116" y="50"/><text fill="#000000" font-family="sans-serif" font-size="14" lengthAdjust="spacing" textLength="71" x="1123" y="70.5352">Clustering</text><rect fill="#E2E2F0" height="30.4883" rx="2.5" ry="2.5" style="stroke:#181818;stroke-width:0.5;" width="85" x="1116" y="1015.4941"/><text fill="#000000" font-family="sans-serif" font-size="14" lengthAdjust="spacing" textLength="71" x="1123" y="1036.0293">Clustering</text><rect fill="#E2E2F0" height="30.4883" rx="2.5" ry="2.5" style="stroke:#181818;stroke-width:0.5;" width="93" x="1211" y="50"/><text fill="#000000" font-family="sans-serif" font-size="14" lengthAdjust="spacing" textLength="79" x="1218" y="70.5352">LogHandler</text><rect fill="#E2E2F0" height="30.4883" rx="2.5" ry="2.5" style="stroke:#181818;stroke-width:0.5;" width="93" x="1211" y="1015.4941"/><text fill="#000000" font-family="sans-serif" font-size="14" lengthAdjust="spacing" textLength="79" x="1218" y="1036.0293">LogHandler</text><rect fill="#E2E2F0" height="30.4883" rx="2.5" ry="2.5" style="stroke:#181818;stroke-width:0.5;" width="119" x="1314" y="50"/><text fill="#000000" font-family="sans-serif" font-size="14" lengthAdjust="spacing" textLength="105" x="1321" y="70.5352">DatasetHandler</text><rect fill="#E2E2F0" height="30.4883" rx="2.5" ry="2.5" style="stroke:#181818;stroke-width:0.5;" width="119" x="1314" y="1015.4941"/><text fill="#000000" font-family="sans-serif" font-size="14" lengthAdjust="spacing" textLength="105" x="1321" y="1036.0293">DatasetHandler</text><rect fill="#E2E2F0" height="30.4883" rx="2.5" ry="2.5" style="stroke:#181818;stroke-width:0.5;" width="110" x="1481.5" y="50"/><text fill="#000000" font-family="sans-serif" font-size="14" lengthAdjust="spacing" textLength="96" x="1488.5" y="70.5352">ModelHandler</text><rect fill="#E2E2F0" height="30.4883" rx="2.5" ry="2.5" style="stroke:#181818;stroke-width:0.5;" width="110" x="1481.5" y="1015.4941"/><text fill="#000000" font-family="sans-serif" font-size="14" lengthAdjust="spacing" textLength="96" x="1488.5" y="1036.0293">ModelHandler</text><rect fill="#FFFFFF" height="910.0059" style="stroke:#181818;stroke-width:1.0;" width="10" x="387.5" y="97.4883"/><rect fill="#FF6666" height="854.7295" style="stroke:#181818;stroke-width:1.0;" width="10" x="392.5" y="152.7646"/><rect fill="#66FF66" height="403.7266" style="stroke:#181818;stroke-width:1.0;" width="10" x="397.5" y="216.041"/><rect fill="#6666FF" height="151.5527" style="stroke:#181818;stroke-width:1.0;" width="10" x="402.5" y="331.9727"/><rect fill="#6666FF" height="98.9316" style="stroke:#181818;stroke-width:1.0;" width="10" x="402.5" y="520.8359"/><rect fill="#66FF66" height="343.416" style="stroke:#181818;stroke-width:1.0;" width="10" x="397.5" y="664.0781"/><rect fill="#FFFFFF" height="87.9316" style="stroke:#181818;stroke-width:1.0;" width="10" x="830.5" y="395.5938"/><rect fill="#FFFFFF" height="35.3105" style="stroke:#181818;stroke-width:1.0;" width="10" x="830.5" y="584.457"/><rect fill="#FFFFFF" height="309.1055" style="stroke:#181818;stroke-width:1.0;" width="10" x="1368.5" y="698.3887"/><rect fill="#FFFFFF" height="247.4844" style="stroke:#181818;stroke-width:1.0;" width="10" x="1373.5" y="760.0098"/><rect fill="#FFFFFF" height="29.3105" style="stroke:#181818;stroke-width:1.0;" width="10" x="1531.5" y="844.9414"/><rect fill="#FFFFFF" height="87.9316" style="stroke:#181818;stroke-width:1.0;" width="10" x="1531.5" y="903.5625"/><polygon fill="#181818" points="375.5,93.4883,385.5,97.4883,375.5,101.4883,379.5,97.4883" style="stroke:#181818;stroke-width:1.0;"/><line style="stroke:#181818;stroke-width:1.0;" x1="38.5" x2="381.5" y1="97.4883" y2="97.4883"/><polygon fill="#181818" points="380.5,148.7646,390.5,152.7646,380.5,156.7646,384.5,152.7646" style="stroke:#181818;stroke-width:1.0;"/><line style="stroke:#181818;stroke-width:1.0;" x1="38.5" x2="386.5" y1="152.7646" y2="152.7646"/><text fill="#000000" font-family="sans-serif" font-size="13" lengthAdjust="spacing" textLength="325" x="45.5" y="148.0225">log(inputs: dict | pd.DataFrame, output: np.ndarray)</text><path d="M407,110.4883 L407,181.4883 L515,181.4883 L515,120.4883 L505,110.4883 L407,110.4883 " fill="#FEFFDD" style="stroke:#181818;stroke-width:0.5;"/><path d="M505,110.4883 L505,120.4883 L515,120.4883 L505,110.4883 " fill="#FEFFDD" style="stroke:#181818;stroke-width:0.5;"/><text fill="#000000" font-family="sans-serif" font-size="13" lengthAdjust="spacing" textLength="52" x="413" y="128.0566">inputs: {</text><text fill="#000000" font-family="sans-serif" font-size="13" lengthAdjust="spacing" textLength="79" x="421" y="143.3672">kps: (16, 34)</text><text fill="#000000" font-family="sans-serif" font-size="13" lengthAdjust="spacing" textLength="44" x="421" y="158.6777">id: (16)</text><text fill="#000000" font-family="sans-serif" font-size="13" lengthAdjust="spacing" textLength="4" x="413" y="173.9883">}</text><line style="stroke:#181818;stroke-width:1.0;" x1="402.5" x2="449.5" y1="203.041" y2="203.041"/><line style="stroke:#181818;stroke-width:1.0;" x1="449.5" x2="449.5" y1="203.041" y2="216.041"/><line style="stroke:#181818;stroke-width:1.0;" x1="408.5" x2="449.5" y1="216.041" y2="216.041"/><polygon fill="#181818" points="418.5,212.041,408.5,216.041,418.5,220.041,414.5,216.041" style="stroke:#181818;stroke-width:1.0;"/><text fill="#000000" font-family="sans-serif" font-size="13" lengthAdjust="spacing" textLength="131" x="414.5" y="198.2988">check_and_add_data</text><path d="M337,236.041 L399,236.041 L399,243.3516 L389,253.3516 L337,253.3516 L337,236.041 " fill="#EEEEEE" style="stroke:#000000;stroke-width:1.5;"/><rect fill="none" height="59.6211" style="stroke:#000000;stroke-width:1.5;" width="546.5" x="337" y="236.041"/><text fill="#000000" font-family="sans-serif" font-size="13" font-weight="bold" lengthAdjust="spacing" textLength="17" x="352" y="249.6094">alt</text><text fill="#000000" font-family="sans-serif" font-size="11" font-weight="bold" lengthAdjust="spacing" textLength="82" x="414" y="248.6758">[if `log_data`]</text><line style="stroke:#181818;stroke-width:1.0;" x1="407.5" x2="449.5" y1="274.6621" y2="274.6621"/><line style="stroke:#181818;stroke-width:1.0;" x1="449.5" x2="449.5" y1="274.6621" y2="287.6621"/><line style="stroke:#181818;stroke-width:1.0;" x1="408.5" x2="449.5" y1="287.6621" y2="287.6621"/><polygon fill="#181818" points="418.5,283.6621,408.5,287.6621,418.5,291.6621,414.5,287.6621" style="stroke:#181818;stroke-width:1.0;"/><text fill="#000000" font-family="sans-serif" font-size="13" lengthAdjust="spacing" textLength="151" x="414.5" y="269.9199">add_data_to_warehouse</text><path d="M577,261.8516 L577,286.8516 L853,286.8516 L853,271.8516 L843,261.8516 L577,261.8516 " fill="#FEFFDD" style="stroke:#181818;stroke-width:0.5;"/><path d="M843,261.8516 L843,271.8516 L853,271.8516 L843,261.8516 " fill="#FEFFDD" style="stroke:#181818;stroke-width:0.5;"/><text fill="#000000" font-family="sans-serif" font-size="13" lengthAdjust="spacing" textLength="255" x="583" y="279.4199">`uptrain_smart_data/2/smart_data.csv`</text><line style="stroke:#181818;stroke-width:1.0;" x1="407.5" x2="454.5" y1="318.9727" y2="318.9727"/><line style="stroke:#181818;stroke-width:1.0;" x1="454.5" x2="454.5" y1="318.9727" y2="331.9727"/><line style="stroke:#181818;stroke-width:1.0;" x1="413.5" x2="454.5" y1="331.9727" y2="331.9727"/><polygon fill="#181818" points="423.5,327.9727,413.5,331.9727,423.5,335.9727,419.5,331.9727" style="stroke:#181818;stroke-width:1.0;"/><text fill="#000000" font-family="sans-serif" font-size="13" lengthAdjust="spacing" textLength="37" x="419.5" y="314.2305">check</text><polygon fill="#181818" points="565.5,362.2832,575.5,366.2832,565.5,370.2832,569.5,366.2832" style="stroke:#181818;stroke-width:1.0;"/><line style="stroke:#181818;stroke-width:1.0;" x1="412.5" x2="571.5" y1="366.2832" y2="366.2832"/><text fill="#000000" font-family="sans-serif" font-size="13" lengthAdjust="spacing" textLength="37" x="419.5" y="361.541">check</text><polygon fill="#181818" points="818.5,391.5938,828.5,395.5938,818.5,399.5938,822.5,395.5938" style="stroke:#181818;stroke-width:1.0;"/><line style="stroke:#181818;stroke-width:1.0;" x1="577.5" x2="824.5" y1="395.5938" y2="395.5938"/><text fill="#000000" font-family="sans-serif" font-size="13" lengthAdjust="spacing" textLength="37" x="584.5" y="390.8516">check</text><polygon fill="#181818" points="1003.5,420.9043,1013.5,424.9043,1003.5,428.9043,1007.5,424.9043" style="stroke:#181818;stroke-width:1.0;"/><line style="stroke:#181818;stroke-width:1.0;" x1="840.5" x2="1009.5" y1="424.9043" y2="424.9043"/><text fill="#000000" font-family="sans-serif" font-size="13" lengthAdjust="spacing" textLength="112" x="847.5" y="420.1621">compute_and_log</text><polygon fill="#181818" points="1146.5,450.2148,1156.5,454.2148,1146.5,458.2148,1150.5,454.2148" style="stroke:#181818;stroke-width:1.0;"/><line style="stroke:#181818;stroke-width:1.0;" x1="840.5" x2="1152.5" y1="454.2148" y2="454.2148"/><text fill="#000000" font-family="sans-serif" font-size="13" lengthAdjust="spacing" textLength="159" x="847.5" y="449.4727">infer_cluster_assignment</text><polygon fill="#181818" points="1245.5,479.5254,1255.5,483.5254,1245.5,487.5254,1249.5,483.5254" style="stroke:#181818;stroke-width:1.0;"/><line style="stroke:#181818;stroke-width:1.0;" x1="835.5" x2="1251.5" y1="483.5254" y2="483.5254"/><text fill="#000000" font-family="sans-serif" font-size="13" lengthAdjust="spacing" textLength="100" x="842.5" y="478.7832">add_bar_graphs</text><line style="stroke:#181818;stroke-width:1.0;" x1="407.5" x2="454.5" y1="507.8359" y2="507.8359"/><line style="stroke:#181818;stroke-width:1.0;" x1="454.5" x2="454.5" y1="507.8359" y2="520.8359"/><line style="stroke:#181818;stroke-width:1.0;" x1="413.5" x2="454.5" y1="520.8359" y2="520.8359"/><polygon fill="#181818" points="423.5,516.8359,413.5,520.8359,423.5,524.8359,419.5,520.8359" style="stroke:#181818;stroke-width:1.0;"/><text fill="#000000" font-family="sans-serif" font-size="13" lengthAdjust="spacing" textLength="111" x="419.5" y="503.0938">smartly_add_data</text><polygon fill="#181818" points="565.5,551.1465,575.5,555.1465,565.5,559.1465,569.5,555.1465" style="stroke:#181818;stroke-width:1.0;"/><line style="stroke:#181818;stroke-width:1.0;" x1="412.5" x2="571.5" y1="555.1465" y2="555.1465"/><text fill="#000000" font-family="sans-serif" font-size="13" lengthAdjust="spacing" textLength="120" x="419.5" y="550.4043">is_data_interesting</text><polygon fill="#181818" points="818.5,580.457,828.5,584.457,818.5,588.457,822.5,584.457" style="stroke:#181818;stroke-width:1.0;"/><line style="stroke:#181818;stroke-width:1.0;" x1="577.5" x2="824.5" y1="584.457" y2="584.457"/><text fill="#000000" font-family="sans-serif" font-size="13" lengthAdjust="spacing" textLength="234" x="584.5" y="579.7148">(AbstractMonitor):is_data_interesting</text><line style="stroke:#181818;stroke-width:1.0;" x1="840.5" x2="882.5" y1="618.7676" y2="618.7676"/><line style="stroke:#181818;stroke-width:1.0;" x1="882.5" x2="882.5" y1="618.7676" y2="631.7676"/><line style="stroke:#181818;stroke-width:1.0;" x1="835.5" x2="882.5" y1="631.7676" y2="631.7676"/><polygon fill="#181818" points="845.5,627.7676,835.5,631.7676,845.5,635.7676,841.5,631.7676" style="stroke:#181818;stroke-width:1.0;"/><text fill="#000000" font-family="sans-serif" font-size="13" lengthAdjust="spacing" textLength="156" x="847.5" y="614.0254">base_is_data_interesting</text><line style="stroke:#181818;stroke-width:1.0;" x1="402.5" x2="449.5" y1="651.0781" y2="651.0781"/><line style="stroke:#181818;stroke-width:1.0;" x1="449.5" x2="449.5" y1="651.0781" y2="664.0781"/><line style="stroke:#181818;stroke-width:1.0;" x1="408.5" x2="449.5" y1="664.0781" y2="664.0781"/><polygon fill="#181818" points="418.5,660.0781,408.5,664.0781,418.5,668.0781,414.5,664.0781" style="stroke:#181818;stroke-width:1.0;"/><text fill="#000000" font-family="sans-serif" font-size="13" lengthAdjust="spacing" textLength="41" x="414.5" y="646.3359">retrain</text><polygon fill="#181818" points="1356.5,694.3887,1366.5,698.3887,1356.5,702.3887,1360.5,698.3887" style="stroke:#181818;stroke-width:1.0;"/><line style="stroke:#181818;stroke-width:1.0;" x1="407.5" x2="1362.5" y1="698.3887" y2="698.3887"/><text fill="#000000" font-family="sans-serif" font-size="13" lengthAdjust="spacing" textLength="159" x="414.5" y="693.6465">create_retraining_dataset</text><path d="M10,713.3887 L72,713.3887 L72,720.6992 L62,730.6992 L10,730.6992 L10,713.3887 " fill="#EEEEEE" style="stroke:#000000;stroke-width:1.5;"/><rect fill="none" height="286.1055" style="stroke:#000000;stroke-width:1.5;" width="1699.5" x="10" y="713.3887"/><text fill="#000000" font-family="sans-serif" font-size="13" font-weight="bold" lengthAdjust="spacing" textLength="17" x="25" y="726.957">alt</text><text fill="#000000" font-family="sans-serif" font-size="11" font-weight="bold" lengthAdjust="spacing" textLength="132" x="87" y="726.0234">[if `cluster_plot_func`]</text><line style="stroke:#181818;stroke-width:1.0;" x1="1378.5" x2="1425.5" y1="747.0098" y2="747.0098"/><line style="stroke:#181818;stroke-width:1.0;" x1="1425.5" x2="1425.5" y1="747.0098" y2="760.0098"/><line style="stroke:#181818;stroke-width:1.0;" x1="1384.5" x2="1425.5" y1="760.0098" y2="760.0098"/><polygon fill="#181818" points="1394.5,756.0098,1384.5,760.0098,1394.5,764.0098,1390.5,760.0098" style="stroke:#181818;stroke-width:1.0;"/><text fill="#000000" font-family="sans-serif" font-size="13" lengthAdjust="spacing" textLength="139" x="1390.5" y="742.2676">cluster_and_plot_data</text><path d="M1541,739.1992 L1541,764.1992 L1689,764.1992 L1689,749.1992 L1679,739.1992 L1541,739.1992 " fill="#FEFFDD" style="stroke:#181818;stroke-width:0.5;"/><path d="M1679,739.1992 L1679,749.1992 L1689,749.1992 L1679,739.1992 " fill="#FEFFDD" style="stroke:#181818;stroke-width:0.5;"/><text fill="#000000" font-family="sans-serif" font-size="13" lengthAdjust="spacing" textLength="127" x="1547" y="756.7676">KMeans 9 clustering</text><polygon fill="#181818" points="49.5,800.9756,39.5,804.9756,49.5,808.9756,45.5,804.9756" style="stroke:#181818;stroke-width:1.0;"/><line style="stroke:#181818;stroke-width:1.0;" x1="43.5" x2="1372.5" y1="804.9756" y2="804.9756"/><text fill="#000000" font-family="sans-serif" font-size="13" lengthAdjust="spacing" textLength="643" x="55.5" y="800.2334">cluster_and_plot_data(all_clusters_renormalised: np.ndarray, counts: np.ndarray, plot_save_name: str)</text><path d="M1388,778.0098 L1388,818.0098 L1658,818.0098 L1658,788.0098 L1648,778.0098 L1388,778.0098 " fill="#FEFFDD" style="stroke:#181818;stroke-width:0.5;"/><path d="M1648,778.0098 L1648,788.0098 L1658,788.0098 L1648,778.0098 " fill="#FEFFDD" style="stroke:#181818;stroke-width:0.5;"/><text fill="#000000" font-family="sans-serif" font-size="13" lengthAdjust="spacing" textLength="249" x="1394" y="795.5781">normalized 한 kmeans 결과와 개수를 넘겨줌</text><a href="https://github.com/uptrain-ai/uptrain/blob/e86d7ed9b76e0c06f455ad3a061abbaac7f1b4da/uptrain/core/classes/helpers/dataset_handler.py#L77" target="_top" title="https://github.com/uptrain-ai/uptrain/blob/e86d7ed9b76e0c06f455ad3a061abbaac7f1b4da/uptrain/core/classes/helpers/dataset_handler.py#L77" xlink:actuate="onRequest" xlink:href="https://github.com/uptrain-ai/uptrain/blob/e86d7ed9b76e0c06f455ad3a061abbaac7f1b4da/uptrain/core/classes/helpers/dataset_handler.py#L77" xlink:show="new" xlink:title="https://github.com/uptrain-ai/uptrain/blob/e86d7ed9b76e0c06f455ad3a061abbaac7f1b4da/uptrain/core/classes/helpers/dataset_handler.py#L77" xlink:type="simple"><text fill="#0000FF" font-family="sans-serif" font-size="13" lengthAdjust="spacing" text-decoration="underline" textLength="156" x="1394" y="810.8887">왜 kps를 참조하는지 모르겠음</text></a><polygon fill="#181818" points="1519.5,840.9414,1529.5,844.9414,1519.5,848.9414,1523.5,844.9414" style="stroke:#181818;stroke-width:1.0;"/><line style="stroke:#181818;stroke-width:1.0;" x1="407.5" x2="1525.5" y1="844.9414" y2="844.9414"/><text fill="#000000" font-family="sans-serif" font-size="13" lengthAdjust="spacing" textLength="41" x="414.5" y="840.1992">retrain</text><polygon fill="#181818" points="49.5,870.252,39.5,874.252,49.5,878.252,45.5,874.252" style="stroke:#181818;stroke-width:1.0;"/><line style="stroke:#181818;stroke-width:1.0;" x1="43.5" x2="1535.5" y1="874.252" y2="874.252"/><text fill="#000000" font-family="sans-serif" font-size="13" lengthAdjust="spacing" textLength="243" x="55.5" y="869.5098">&lt;&lt;training_func&gt;&gt; train_model_torch</text><polygon fill="#181818" points="1519.5,899.5625,1529.5,903.5625,1519.5,907.5625,1523.5,903.5625" style="stroke:#181818;stroke-width:1.0;"/><line style="stroke:#181818;stroke-width:1.0;" x1="407.5" x2="1525.5" y1="903.5625" y2="903.5625"/><text fill="#000000" font-family="sans-serif" font-size="13" lengthAdjust="spacing" textLength="132" x="414.5" y="898.8203">compare_new_model</text><polygon fill="#181818" points="49.5,928.873,39.5,932.873,49.5,936.873,45.5,932.873" style="stroke:#181818;stroke-width:1.0;"/><line style="stroke:#181818;stroke-width:1.0;" x1="43.5" x2="1530.5" y1="932.873" y2="932.873"/><text fill="#000000" font-family="sans-serif" font-size="13" lengthAdjust="spacing" textLength="243" x="55.5" y="928.1309">&lt;&lt;training_func&gt;&gt; train_model_torch</text><polygon fill="#181818" points="49.5,958.1836,39.5,962.1836,49.5,966.1836,45.5,962.1836" style="stroke:#181818;stroke-width:1.0;"/><line style="stroke:#181818;stroke-width:1.0;" x1="43.5" x2="1530.5" y1="962.1836" y2="962.1836"/><text fill="#000000" font-family="sans-serif" font-size="13" lengthAdjust="spacing" textLength="287" x="55.5" y="957.4414">&lt;&lt;inference_func&gt;&gt; get_accuracy_torch(old)</text><polygon fill="#181818" points="49.5,987.4941,39.5,991.4941,49.5,995.4941,45.5,991.4941" style="stroke:#181818;stroke-width:1.0;"/><line style="stroke:#181818;stroke-width:1.0;" x1="43.5" x2="1535.5" y1="991.4941" y2="991.4941"/><text fill="#000000" font-family="sans-serif" font-size="13" lengthAdjust="spacing" textLength="292" x="55.5" y="986.752">&lt;&lt;inference_func&gt;&gt; get_accuracy_torch(new)</text><!--MD5=[b4f84a15d5e1fec4548f56a02718b96a]
@startuml

actor User
participant Framework as Framework
participant CheckManager as CheckManager
participant DataDrift as DataDrift
participant InputFeatureMeasurable as Measurable
participant Clustering as Clustering
participant LogHandler as LogHandler
participant DatasetHandler as DatasetHandler

User -> Framework
activate Framework

User -> Framework: log(inputs: dict | pd.DataFrame, output: np.ndarray)
note right
inputs: {
  kps: (16, 34)
  id: (16)
}
end note
activate Framework %lighten('#ff0000', 40)
Framework -> Framework: check_and_add_data
activate Framework %lighten('#00ff00', 40)
alt if `log_data`
Framework -> Framework: add_data_to_warehouse
note right
`uptrain_smart_data/2/smart_data.csv`
endnote
end
Framework -> Framework: check
activate Framework %lighten('#0000ff', 40)

Framework -> CheckManager: check
CheckManager -> DataDrift: check
activate DataDrift
DataDrift -> Measurable: compute_and_log
DataDrift -> Clustering: infer_cluster_assignment
DataDrift -> LogHandler: add_bar_graphs
deactivate DataDrift

deactivate Framework

Framework -> Framework: smartly_add_data
activate Framework %lighten('#0000ff', 40)

Framework -> CheckManager: is_data_interesting
CheckManager -> DataDrift: (AbstractMonitor):is_data_interesting
activate DataDrift
DataDrift -> DataDrift: base_is_data_interesting
deactivate DataDrift

deactivate Framework

deactivate Framework

Framework -> Framework: retrain
activate Framework %lighten('#00ff00', 40)
Framework -> DatasetHandler: create_retraining_dataset
activate DatasetHandler
alt if `cluster_plot_func`
DatasetHandler -> DatasetHandler: cluster_and_plot_data
activate DatasetHandler
note right
KMeans 9 clustering
endnote
DatasetHandler -> User: cluster_and_plot_data(all_clusters_renormalised: np.ndarray, counts: np.ndarray, plot_save_name: str)
note right
normalized 한 kmeans 결과와 개수를 넘겨줌
[[https://github.com/uptrain-ai/uptrain/blob/e86d7ed9b76e0c06f455ad3a061abbaac7f1b4da/uptrain/core/classes/helpers/dataset_handler.py#L77 왜 kps를 참조하는지 모르겠음]]
endnote

Framework -> ModelHandler: retrain
activate ModelHandler
ModelHandler -> User: <<training_func>> train_model_torch
deactivate ModelHandler

Framework -> ModelHandler: compare_new_model
activate ModelHandler
ModelHandler -> User: <<training_func>> train_model_torch
ModelHandler -> User: <<inference_func>> get_accuracy_torch(old)
ModelHandler -> User: <<inference_func>> get_accuracy_torch(new)
deactivate ModelHandler

end


@enduml

@startuml

actor User
participant Framework as Framework
participant CheckManager as CheckManager
participant DataDrift as DataDrift
participant InputFeatureMeasurable as Measurable
participant Clustering as Clustering
participant LogHandler as LogHandler
participant DatasetHandler as DatasetHandler

User -> Framework
activate Framework

User -> Framework: log(inputs: dict | pd.DataFrame, output: np.ndarray)
note right
inputs: {
  kps: (16, 34)
  id: (16)
}
end note
activate Framework #FF6666
Framework -> Framework: check_and_add_data
activate Framework #66FF66
alt if `log_data`
Framework -> Framework: add_data_to_warehouse
note right
`uptrain_smart_data/2/smart_data.csv`
endnote
end
Framework -> Framework: check
activate Framework #6666FF

Framework -> CheckManager: check
CheckManager -> DataDrift: check
activate DataDrift
DataDrift -> Measurable: compute_and_log
DataDrift -> Clustering: infer_cluster_assignment
DataDrift -> LogHandler: add_bar_graphs
deactivate DataDrift

deactivate Framework

Framework -> Framework: smartly_add_data
activate Framework #6666FF

Framework -> CheckManager: is_data_interesting
CheckManager -> DataDrift: (AbstractMonitor):is_data_interesting
activate DataDrift
DataDrift -> DataDrift: base_is_data_interesting
deactivate DataDrift

deactivate Framework

deactivate Framework

Framework -> Framework: retrain
activate Framework #66FF66
Framework -> DatasetHandler: create_retraining_dataset
activate DatasetHandler
alt if `cluster_plot_func`
DatasetHandler -> DatasetHandler: cluster_and_plot_data
activate DatasetHandler
note right
KMeans 9 clustering
endnote
DatasetHandler -> User: cluster_and_plot_data(all_clusters_renormalised: np.ndarray, counts: np.ndarray, plot_save_name: str)
note right
normalized 한 kmeans 결과와 개수를 넘겨줌
[[https://github.com/uptrain-ai/uptrain/blob/e86d7ed9b76e0c06f455ad3a061abbaac7f1b4da/uptrain/core/classes/helpers/dataset_handler.py#L77 왜 kps를 참조하는지 모르겠음]]
endnote

Framework -> ModelHandler: retrain
activate ModelHandler
ModelHandler -> User: <<training_func>> train_model_torch
deactivate ModelHandler

Framework -> ModelHandler: compare_new_model
activate ModelHandler
ModelHandler -> User: <<training_func>> train_model_torch
ModelHandler -> User: <<inference_func>> get_accuracy_torch(old)
ModelHandler -> User: <<inference_func>> get_accuracy_torch(new)
deactivate ModelHandler

end


@enduml

PlantUML version 1.2022.7(Tue Aug 23 02:01:30 KST 2022)
(GPL source distribution)
Java Runtime: OpenJDK Runtime Environment
JVM: OpenJDK 64-Bit Server VM
Default Encoding: UTF-8
Language: ko
Country: KR
--></g></svg>