<?xml version="1.0" encoding="UTF-8" standalone="no"?><svg xmlns="http://www.w3.org/2000/svg" xmlns:xlink="http://www.w3.org/1999/xlink" contentStyleType="text/css" height="541px" preserveAspectRatio="none" style="width:497px;height:541px;background:#FFFFFF;" version="1.1" viewBox="0 0 497 541" width="497px" zoomAndPan="magnify"><defs/><g><rect fill="#DDDDDD" height="529.92" style="stroke:#181818;stroke-width:0.5;" width="90" x="401" y="6"/><text fill="#000000" font-family="D2Coding" font-size="13" font-weight="bold" lengthAdjust="spacing" textLength="84" x="404" y="18.09">Hugging Face</text><rect fill="#FFFFFF" height="277.88" style="stroke:#181818;stroke-width:1.0;" width="10" x="121" y="169.8"/><rect fill="#FFFFFF" height="240.8" style="stroke:#181818;stroke-width:1.0;" width="10" x="126" y="206.88"/><rect fill="#FFFFFF" height="198.72" style="stroke:#181818;stroke-width:1.0;" width="10" x="131" y="248.96"/><rect fill="#FFFFFF" height="156.64" style="stroke:#181818;stroke-width:1.0;" width="10" x="136" y="291.04"/><rect fill="#FFFFFF" height="114.56" style="stroke:#181818;stroke-width:1.0;" width="10" x="141" y="333.12"/><line style="stroke:#181818;stroke-width:0.5;stroke-dasharray:5.0,5.0;" x1="22" x2="22" y1="81.24" y2="456.68"/><line style="stroke:#181818;stroke-width:0.5;stroke-dasharray:5.0,5.0;" x1="126" x2="126" y1="129.98" y2="456.68"/><line style="stroke:#181818;stroke-width:0.5;stroke-dasharray:5.0,5.0;" x1="304" x2="304" y1="384.86" y2="456.68"/><line style="stroke:#181818;stroke-width:0.5;stroke-dasharray:5.0,5.0;" x1="446" x2="446" y1="81.24" y2="456.68"/><text fill="#000000" font-family="D2Coding" font-size="14" lengthAdjust="spacing" textLength="28" x="5" y="78.02">User</text><ellipse cx="22" cy="13.5" fill="#E2E2F0" rx="8" ry="8" style="stroke:#181818;stroke-width:0.5;"/><path d="M22,21.5 L22,48.5 M9,29.5 L35,29.5 M22,48.5 L9,63.5 M22,48.5 L35,63.5 " fill="none" style="stroke:#181818;stroke-width:0.5;"/><text fill="#000000" font-family="D2Coding" font-size="14" lengthAdjust="spacing" textLength="28" x="5" y="468.7">User</text><ellipse cx="22" cy="480.42" fill="#E2E2F0" rx="8" ry="8" style="stroke:#181818;stroke-width:0.5;"/><path d="M22,488.42 L22,515.42 M9,496.42 L35,496.42 M22,515.42 L9,530.42 M22,515.42 L35,530.42 " fill="none" style="stroke:#181818;stroke-width:0.5;"/><rect fill="#E2E2F0" height="46.48" rx="2.5" ry="2.5" style="stroke:#181818;stroke-width:0.5;" width="154" x="49" y="455.68"/><text fill="#000000" font-family="D2Coding" font-size="14" font-style="italic" lengthAdjust="spacing" textLength="63" x="94.5" y="475.7">«BaseLLM»</text><text fill="#000000" font-family="D2Coding" font-size="14" lengthAdjust="spacing" textLength="140" x="56" y="491.94">HuggingFaceInference</text><rect fill="#E2E2F0" height="46.48" rx="2.5" ry="2.5" style="stroke:#181818;stroke-width:0.5;" width="182" x="213" y="455.68"/><text fill="#000000" font-family="D2Coding" font-size="14" font-style="italic" lengthAdjust="spacing" textLength="168" x="220" y="475.7">«@huggingface/inference»</text><text fill="#000000" font-family="D2Coding" font-size="14" lengthAdjust="spacing" textLength="77" x="265.5" y="491.94">HfInference</text><rect fill="#E2E2F0" height="30.24" rx="2.5" ry="2.5" style="stroke:#181818;stroke-width:0.5;" width="70" x="411" y="50"/><text fill="#000000" font-family="D2Coding" font-size="14" lengthAdjust="spacing" textLength="56" x="418" y="70.02">Endpoint</text><rect fill="#E2E2F0" height="30.24" rx="2.5" ry="2.5" style="stroke:#181818;stroke-width:0.5;" width="70" x="411" y="455.68"/><text fill="#000000" font-family="D2Coding" font-size="14" lengthAdjust="spacing" textLength="56" x="418" y="475.7">Endpoint</text><rect fill="#FFFFFF" height="277.88" style="stroke:#181818;stroke-width:1.0;" width="10" x="121" y="169.8"/><rect fill="#FFFFFF" height="240.8" style="stroke:#181818;stroke-width:1.0;" width="10" x="126" y="206.88"/><rect fill="#FFFFFF" height="198.72" style="stroke:#181818;stroke-width:1.0;" width="10" x="131" y="248.96"/><rect fill="#FFFFFF" height="156.64" style="stroke:#181818;stroke-width:1.0;" width="10" x="136" y="291.04"/><rect fill="#FFFFFF" height="114.56" style="stroke:#181818;stroke-width:1.0;" width="10" x="141" y="333.12"/><polygon fill="#181818" points="37,93.24,47,97.24,37,101.24,41,97.24" style="stroke:#181818;stroke-width:1.0;"/><line style="stroke:#181818;stroke-width:1.0;" x1="22" x2="43" y1="97.24" y2="97.24"/><rect fill="#E2E2F0" height="46.48" rx="2.5" ry="2.5" style="stroke:#181818;stroke-width:0.5;" width="154" x="49" y="91.24"/><text fill="#000000" font-family="D2Coding" font-size="14" font-style="italic" lengthAdjust="spacing" textLength="63" x="94.5" y="111.26">«BaseLLM»</text><text fill="#000000" font-family="D2Coding" font-size="14" lengthAdjust="spacing" textLength="140" x="56" y="127.5">HuggingFaceInference</text><polygon fill="#181818" points="109,165.8,119,169.8,109,173.8,113,169.8" style="stroke:#181818;stroke-width:1.0;"/><line style="stroke:#181818;stroke-width:1.0;" x1="22" x2="115" y1="169.8" y2="169.8"/><text fill="#000000" font-family="D2Coding" font-size="13" lengthAdjust="spacing" textLength="28" x="29" y="164.81">call</text><line style="stroke:#181818;stroke-width:1.0;" x1="131" x2="178" y1="193.88" y2="193.88"/><line style="stroke:#181818;stroke-width:1.0;" x1="178" x2="178" y1="193.88" y2="206.88"/><line style="stroke:#181818;stroke-width:1.0;" x1="137" x2="178" y1="206.88" y2="206.88"/><polygon fill="#181818" points="147,202.88,137,206.88,147,210.88,143,206.88" style="stroke:#181818;stroke-width:1.0;"/><text fill="#000000" font-family="D2Coding" font-size="13" lengthAdjust="spacing" textLength="56" x="143" y="188.89">generate</text><line style="stroke:#181818;stroke-width:1.0;" x1="136" x2="183" y1="235.96" y2="235.96"/><line style="stroke:#181818;stroke-width:1.0;" x1="183" x2="183" y1="235.96" y2="248.96"/><line style="stroke:#181818;stroke-width:1.0;" x1="142" x2="183" y1="248.96" y2="248.96"/><polygon fill="#181818" points="152,244.96,142,248.96,152,252.96,148,248.96" style="stroke:#181818;stroke-width:1.0;"/><text fill="#000000" font-family="D2Coding" font-size="13" lengthAdjust="spacing" textLength="119" x="148" y="230.97">_generateUncached</text><line style="stroke:#181818;stroke-width:1.0;" x1="141" x2="188" y1="278.04" y2="278.04"/><line style="stroke:#181818;stroke-width:1.0;" x1="188" x2="188" y1="278.04" y2="291.04"/><line style="stroke:#181818;stroke-width:1.0;" x1="147" x2="188" y1="291.04" y2="291.04"/><polygon fill="#181818" points="157,287.04,147,291.04,157,295.04,153,291.04" style="stroke:#181818;stroke-width:1.0;"/><text fill="#000000" font-family="D2Coding" font-size="13" lengthAdjust="spacing" textLength="63" x="153" y="273.05">_generate</text><line style="stroke:#181818;stroke-width:1.0;" x1="146" x2="193" y1="320.12" y2="320.12"/><line style="stroke:#181818;stroke-width:1.0;" x1="193" x2="193" y1="320.12" y2="333.12"/><line style="stroke:#181818;stroke-width:1.0;" x1="152" x2="193" y1="333.12" y2="333.12"/><polygon fill="#181818" points="162,329.12,152,333.12,162,337.12,158,333.12" style="stroke:#181818;stroke-width:1.0;"/><text fill="#000000" font-family="D2Coding" font-size="13" lengthAdjust="spacing" textLength="35" x="158" y="315.13">_call</text><polygon fill="#181818" points="201,348.12,211,352.12,201,356.12,205,352.12" style="stroke:#181818;stroke-width:1.0;"/><line style="stroke:#181818;stroke-width:1.0;" x1="151" x2="207" y1="352.12" y2="352.12"/><rect fill="#E2E2F0" height="46.48" rx="2.5" ry="2.5" style="stroke:#181818;stroke-width:0.5;" width="182" x="213" y="346.12"/><text fill="#000000" font-family="D2Coding" font-size="14" font-style="italic" lengthAdjust="spacing" textLength="168" x="220" y="366.14">«@huggingface/inference»</text><text fill="#000000" font-family="D2Coding" font-size="14" lengthAdjust="spacing" textLength="77" x="265.5" y="382.38">HfInference</text><polygon fill="#181818" points="292,420.68,302,424.68,292,428.68,296,424.68" style="stroke:#181818;stroke-width:1.0;"/><line style="stroke:#181818;stroke-width:1.0;" x1="151" x2="298" y1="424.68" y2="424.68"/><text fill="#000000" font-family="D2Coding" font-size="13" lengthAdjust="spacing" textLength="98" x="158" y="419.69">textGeneration</text><polygon fill="#181818" points="434,434.68,444,438.68,434,442.68,438,438.68" style="stroke:#181818;stroke-width:1.0;"/><line style="stroke:#181818;stroke-width:1.0;stroke-dasharray:2.0,2.0;" x1="304" x2="440" y1="438.68" y2="438.68"/><!--MD5=[c689b5ccf868f23735076480d18b1ea6]
--></g></svg>
