<?xml version="1.0" encoding="UTF-8" standalone="no"?><svg xmlns="http://www.w3.org/2000/svg" xmlns:xlink="http://www.w3.org/1999/xlink" contentStyleType="text/css" height="501px" preserveAspectRatio="none" style="width:1405px;height:501px;background:#FFFFFF;" version="1.1" viewBox="0 0 1405 501" width="1405px" zoomAndPan="magnify"><defs/><g><rect fill="#DDDDDD" height="489.44" style="stroke:#181818;stroke-width:0.5;" width="926.5" x="418" y="6"/><text fill="#000000" font-family="D2Coding" font-size="13" font-weight="bold" lengthAdjust="spacing" textLength="49" x="856.75" y="18.09">yuebing</text><rect fill="#FFFFFF" height="116.32" style="stroke:#181818;stroke-width:1.0;" width="10" x="650.5" y="246.8"/><line style="stroke:#181818;stroke-width:0.5;stroke-dasharray:5.0,5.0;" x1="107" x2="107" y1="81.24" y2="416.2"/><line style="stroke:#181818;stroke-width:0.5;stroke-dasharray:5.0,5.0;" x1="467" x2="467" y1="81.24" y2="416.2"/><line style="stroke:#181818;stroke-width:0.5;stroke-dasharray:5.0,5.0;" x1="568" x2="568" y1="81.24" y2="416.2"/><line style="stroke:#181818;stroke-width:0.5;stroke-dasharray:5.0,5.0;" x1="655" x2="655" y1="81.24" y2="416.2"/><line style="stroke:#181818;stroke-width:0.5;stroke-dasharray:5.0,5.0;" x1="901.5" x2="901.5" y1="81.24" y2="416.2"/><line style="stroke:#181818;stroke-width:0.5;stroke-dasharray:5.0,5.0;" x1="1009.5" x2="1009.5" y1="186.02" y2="416.2"/><line style="stroke:#181818;stroke-width:0.5;stroke-dasharray:5.0,5.0;" x1="1103.5" x2="1103.5" y1="81.24" y2="416.2"/><line style="stroke:#181818;stroke-width:0.5;stroke-dasharray:5.0,5.0;" x1="1204.5" x2="1204.5" y1="81.24" y2="416.2"/><line style="stroke:#181818;stroke-width:0.5;stroke-dasharray:5.0,5.0;" x1="1301.5" x2="1301.5" y1="81.24" y2="416.2"/><line style="stroke:#181818;stroke-width:0.5;stroke-dasharray:5.0,5.0;" x1="1374.5" x2="1374.5" y1="81.24" y2="416.2"/><text fill="#000000" font-family="D2Coding" font-size="14" lengthAdjust="spacing" textLength="49" x="80" y="78.02">Browser</text><ellipse cx="107.5" cy="13.5" fill="#E2E2F0" rx="8" ry="8" style="stroke:#181818;stroke-width:0.5;"/><path d="M107.5,21.5 L107.5,48.5 M94.5,29.5 L120.5,29.5 M107.5,48.5 L94.5,63.5 M107.5,48.5 L120.5,63.5 " fill="none" style="stroke:#181818;stroke-width:0.5;"/><text fill="#000000" font-family="D2Coding" font-size="14" lengthAdjust="spacing" textLength="49" x="80" y="428.22">Browser</text><ellipse cx="107.5" cy="439.94" fill="#E2E2F0" rx="8" ry="8" style="stroke:#181818;stroke-width:0.5;"/><path d="M107.5,447.94 L107.5,474.94 M94.5,455.94 L120.5,455.94 M107.5,474.94 L94.5,489.94 M107.5,474.94 L120.5,489.94 " fill="none" style="stroke:#181818;stroke-width:0.5;"/><rect fill="#E2E2F0" height="30.24" rx="2.5" ry="2.5" style="stroke:#181818;stroke-width:0.5;" width="91" x="422" y="50"/><text fill="#000000" font-family="D2Coding" font-size="14" lengthAdjust="spacing" textLength="77" x="429" y="70.02">admin/paths</text><rect fill="#E2E2F0" height="30.24" rx="2.5" ry="2.5" style="stroke:#181818;stroke-width:0.5;" width="91" x="422" y="415.2"/><text fill="#000000" font-family="D2Coding" font-size="14" lengthAdjust="spacing" textLength="77" x="429" y="435.22">admin/paths</text><rect fill="#E2E2F0" height="30.24" rx="2.5" ry="2.5" style="stroke:#181818;stroke-width:0.5;" width="91" x="523" y="50"/><text fill="#000000" font-family="D2Coding" font-size="14" lengthAdjust="spacing" textLength="77" x="530" y="70.02">admin/queue</text><rect fill="#E2E2F0" height="30.24" rx="2.5" ry="2.5" style="stroke:#181818;stroke-width:0.5;" width="91" x="523" y="415.2"/><text fill="#000000" font-family="D2Coding" font-size="14" lengthAdjust="spacing" textLength="77" x="530" y="435.22">admin/queue</text><rect fill="#E2E2F0" height="30.24" rx="2.5" ry="2.5" style="stroke:#181818;stroke-width:0.5;" width="63" x="624" y="50"/><text fill="#000000" font-family="D2Coding" font-size="14" lengthAdjust="spacing" textLength="49" x="631" y="70.02">reindex</text><rect fill="#E2E2F0" height="30.24" rx="2.5" ry="2.5" style="stroke:#181818;stroke-width:0.5;" width="63" x="624" y="415.2"/><text fill="#000000" font-family="D2Coding" font-size="14" lengthAdjust="spacing" textLength="49" x="631" y="435.22">reindex</text><rect fill="#E2E2F0" height="30.24" rx="2.5" ry="2.5" style="stroke:#181818;stroke-width:0.5;" width="112" x="845.5" y="50"/><text fill="#000000" font-family="D2Coding" font-size="14" lengthAdjust="spacing" textLength="98" x="852.5" y="70.02">asset/manifest</text><rect fill="#E2E2F0" height="30.24" rx="2.5" ry="2.5" style="stroke:#181818;stroke-width:0.5;" width="112" x="845.5" y="415.2"/><text fill="#000000" font-family="D2Coding" font-size="14" lengthAdjust="spacing" textLength="98" x="852.5" y="435.22">asset/manifest</text><rect fill="#E2E2F0" height="30.24" rx="2.5" ry="2.5" style="stroke:#181818;stroke-width:0.5;" width="84" x="967.5" y="415.2"/><text fill="#000000" font-family="D2Coding" font-size="14" lengthAdjust="spacing" textLength="70" x="974.5" y="435.22">bull:Queue</text><rect fill="#E2E2F0" height="30.24" rx="2.5" ry="2.5" style="stroke:#181818;stroke-width:0.5;" width="84" x="1061.5" y="50"/><text fill="#000000" font-family="D2Coding" font-size="14" lengthAdjust="spacing" textLength="70" x="1068.5" y="70.02">util/cache</text><rect fill="#E2E2F0" height="30.24" rx="2.5" ry="2.5" style="stroke:#181818;stroke-width:0.5;" width="84" x="1061.5" y="415.2"/><text fill="#000000" font-family="D2Coding" font-size="14" lengthAdjust="spacing" textLength="70" x="1068.5" y="435.22">util/cache</text><rect fill="#E2E2F0" height="30.24" rx="2.5" ry="2.5" style="stroke:#181818;stroke-width:0.5;" width="98" x="1155.5" y="50"/><text fill="#000000" font-family="D2Coding" font-size="14" lengthAdjust="spacing" textLength="84" x="1162.5" y="70.02">shared/media</text><rect fill="#E2E2F0" height="30.24" rx="2.5" ry="2.5" style="stroke:#181818;stroke-width:0.5;" width="98" x="1155.5" y="415.2"/><text fill="#000000" font-family="D2Coding" font-size="14" lengthAdjust="spacing" textLength="84" x="1162.5" y="435.22">shared/media</text><rect fill="#E2E2F0" height="30.24" rx="2.5" ry="2.5" style="stroke:#181818;stroke-width:0.5;" width="77" x="1263.5" y="50"/><text fill="#000000" font-family="D2Coding" font-size="14" lengthAdjust="spacing" textLength="63" x="1270.5" y="70.02">mobiletto</text><rect fill="#E2E2F0" height="30.24" rx="2.5" ry="2.5" style="stroke:#181818;stroke-width:0.5;" width="77" x="1263.5" y="415.2"/><text fill="#000000" font-family="D2Coding" font-size="14" lengthAdjust="spacing" textLength="63" x="1270.5" y="435.22">mobiletto</text><rect fill="#E2E2F0" height="30.24" rx="2.5" ry="2.5" style="stroke:#181818;stroke-width:0.5;" width="49" x="1350.5" y="50"/><text fill="#000000" font-family="D2Coding" font-size="14" lengthAdjust="spacing" textLength="35" x="1357.5" y="70.02">redis</text><rect fill="#E2E2F0" height="30.24" rx="2.5" ry="2.5" style="stroke:#181818;stroke-width:0.5;" width="49" x="1350.5" y="415.2"/><text fill="#000000" font-family="D2Coding" font-size="14" lengthAdjust="spacing" textLength="35" x="1357.5" y="435.22">redis</text><rect fill="#FFFFFF" height="116.32" style="stroke:#181818;stroke-width:1.0;" width="10" x="650.5" y="246.8"/><polygon fill="#181818" points="455.5,111.32,465.5,115.32,455.5,119.32,459.5,115.32" style="stroke:#181818;stroke-width:1.0;"/><line style="stroke:#181818;stroke-width:1.0;stroke-dasharray:2.0,2.0;" x1="107.5" x2="461.5" y1="115.32" y2="115.32"/><text fill="#000000" font-family="D2Coding" font-size="13" lengthAdjust="spacing" textLength="336" x="114.5" y="110.33">POST /api/admin/paths/{source name}/{file paths}</text><path d="M5,96.24 L5,121.24 L103,121.24 L103,106.24 L93,96.24 L5,96.24 " fill="#FEFFDD" style="stroke:#181818;stroke-width:0.5;"/><path d="M93,96.24 L93,106.24 L103,106.24 L93,96.24 " fill="#FEFFDD" style="stroke:#181818;stroke-width:0.5;"/><text fill="#000000" font-family="D2Coding" font-size="13" lengthAdjust="spacing" textLength="77" x="11" y="113.33">Index click</text><polygon fill="#181818" points="643.5,143.4,653.5,147.4,643.5,151.4,647.5,147.4" style="stroke:#181818;stroke-width:1.0;"/><line style="stroke:#181818;stroke-width:1.0;" x1="467.5" x2="649.5" y1="147.4" y2="147.4"/><text fill="#000000" font-family="D2Coding" font-size="13" lengthAdjust="spacing" textLength="77" x="474.5" y="142.41">reindexPath</text><polygon fill="#181818" points="955.5,172.48,965.5,176.48,955.5,180.48,959.5,176.48" style="stroke:#181818;stroke-width:1.0;"/><line style="stroke:#181818;stroke-width:1.0;" x1="655.5" x2="961.5" y1="176.48" y2="176.48"/><text fill="#000000" font-family="D2Coding" font-size="13" lengthAdjust="spacing" textLength="196" x="662.5" y="171.49">create(reindex_queue, redis)</text><rect fill="#E2E2F0" height="30.24" rx="2.5" ry="2.5" style="stroke:#181818;stroke-width:0.5;" width="84" x="967.5" y="155.4"/><text fill="#000000" font-family="D2Coding" font-size="14" lengthAdjust="spacing" textLength="70" x="974.5" y="175.42">bull:Queue</text><polygon fill="#181818" points="997.5,213.72,1007.5,217.72,997.5,221.72,1001.5,217.72" style="stroke:#181818;stroke-width:1.0;"/><line style="stroke:#181818;stroke-width:1.0;" x1="655.5" x2="1003.5" y1="217.72" y2="217.72"/><text fill="#000000" font-family="D2Coding" font-size="13" lengthAdjust="spacing" textLength="280" x="662.5" y="212.73">add(reindex_job, YB_REINDEX_CONCURRENCY)</text><polygon fill="#181818" points="671.5,242.8,661.5,246.8,671.5,250.8,667.5,246.8" style="stroke:#181818;stroke-width:1.0;"/><line style="stroke:#181818;stroke-width:1.0;" x1="665.5" x2="1008.5" y1="246.8" y2="246.8"/><text fill="#000000" font-family="D2Coding" font-size="13" lengthAdjust="spacing" textLength="168" x="677.5" y="241.81">REINDEX_PROCESS_FUNCTION</text><polygon fill="#181818" points="889.5,271.88,899.5,275.88,889.5,279.88,893.5,275.88" style="stroke:#181818;stroke-width:1.0;"/><line style="stroke:#181818;stroke-width:1.0;" x1="660.5" x2="895.5" y1="275.88" y2="275.88"/><text fill="#000000" font-family="D2Coding" font-size="13" lengthAdjust="spacing" textLength="217" x="667.5" y="270.89">deriveMetadataFromSourceAndPath</text><polygon fill="#181818" points="1091.5,300.96,1101.5,304.96,1091.5,308.96,1095.5,304.96" style="stroke:#181818;stroke-width:1.0;"/><line style="stroke:#181818;stroke-width:1.0;" x1="901.5" x2="1097.5" y1="304.96" y2="304.96"/><text fill="#000000" font-family="D2Coding" font-size="13" lengthAdjust="spacing" textLength="119" x="908.5" y="299.97">getCachedMetadata</text><polygon fill="#181818" points="1363,330.04,1373,334.04,1363,338.04,1367,334.04" style="stroke:#181818;stroke-width:1.0;"/><line style="stroke:#181818;stroke-width:1.0;" x1="1103.5" x2="1369" y1="334.04" y2="334.04"/><text fill="#000000" font-family="D2Coding" font-size="13" lengthAdjust="spacing" textLength="210" x="1110.5" y="329.05">getJson(''CACHED_META_{path}')</text><polygon fill="#181818" points="1290,359.12,1300,363.12,1290,367.12,1294,363.12" style="stroke:#181818;stroke-width:1.0;"/><line style="stroke:#181818;stroke-width:1.0;" x1="901.5" x2="1296" y1="363.12" y2="363.12"/><text fill="#000000" font-family="D2Coding" font-size="13" lengthAdjust="spacing" textLength="273" x="908.5" y="358.13">find(`shasum(path)[0:2]/[2:4]/[4:6]/*`)</text><polygon fill="#181818" points="455.5,391.2,465.5,395.2,455.5,399.2,459.5,395.2" style="stroke:#181818;stroke-width:1.0;"/><line style="stroke:#181818;stroke-width:1.0;stroke-dasharray:2.0,2.0;" x1="107.5" x2="461.5" y1="395.2" y2="395.2"/><text fill="#000000" font-family="D2Coding" font-size="13" lengthAdjust="spacing" textLength="329" x="114.5" y="390.21">POST /api/admin/paths/{source}/{file path}/scan</text><path d="M11,376.12 L11,401.12 L102,401.12 L102,386.12 L92,376.12 L11,376.12 " fill="#FEFFDD" style="stroke:#181818;stroke-width:0.5;"/><path d="M92,376.12 L92,386.12 L102,386.12 L92,376.12 " fill="#FEFFDD" style="stroke:#181818;stroke-width:0.5;"/><text fill="#000000" font-family="D2Coding" font-size="13" lengthAdjust="spacing" textLength="70" x="17" y="393.21">Scan click</text><!--MD5=[291e7632e1700eb7e8595a86386b01e6]
--></g></svg>
