<?xml version="1.0" encoding="UTF-8" standalone="no"?><svg xmlns="http://www.w3.org/2000/svg" xmlns:xlink="http://www.w3.org/1999/xlink" contentStyleType="text/css" height="1089px" preserveAspectRatio="none" style="width:1683px;height:1089px;background:#FFFFFF;" version="1.1" viewBox="0 0 1683 1089" width="1683px" zoomAndPan="magnify"><defs/><g><rect fill="#DDDDDD" height="1077.28" style="stroke:#181818;stroke-width:0.5;" width="111" x="1566" y="6"/><text fill="#000000" font-family="D2Coding" font-size="13" font-weight="bold" lengthAdjust="spacing" textLength="105" x="1569" y="18.09">OpenAI Endpoint</text><rect fill="#FFFFFF" height="268.64" style="stroke:#181818;stroke-width:1.0;" width="10" x="132" y="194.8"/><rect fill="#FFFFFF" height="184.32" style="stroke:#181818;stroke-width:1.0;" width="10" x="245" y="265.12"/><rect fill="#FFFFFF" height="195.88" style="stroke:#181818;stroke-width:1.0;" width="10" x="356.5" y="492.52"/><rect fill="#FFFFFF" height="277.56" style="stroke:#181818;stroke-width:1.0;" width="10" x="506.5" y="717.48"/><rect fill="#FFFFFF" height="99.16" style="stroke:#181818;stroke-width:1.0;" width="10" x="649.5" y="294.2"/><rect fill="#FFFFFF" height="48.08" style="stroke:#181818;stroke-width:1.0;" width="10" x="654.5" y="331.28"/><rect fill="#FFFFFF" height="135.24" style="stroke:#181818;stroke-width:1.0;" width="10" x="799.5" y="859.8"/><rect fill="#FFFFFF" height="98.16" style="stroke:#181818;stroke-width:1.0;" width="10" x="804.5" y="896.88"/><rect fill="#FFFFFF" height="56.08" style="stroke:#181818;stroke-width:1.0;" width="10" x="809.5" y="938.96"/><rect fill="#FFFFFF" height="14" style="stroke:#181818;stroke-width:1.0;" width="10" x="814.5" y="981.04"/><rect fill="#FFFFFF" height="84.32" style="stroke:#181818;stroke-width:1.0;" width="10" x="1003.5" y="521.6"/><rect fill="#FFFFFF" height="248.48" style="stroke:#181818;stroke-width:1.0;" width="10" x="1460.5" y="746.56"/><rect fill="#FFFFFF" height="211.4" style="stroke:#181818;stroke-width:1.0;" width="10" x="1465.5" y="783.64"/><line style="stroke:#181818;stroke-width:0.5;stroke-dasharray:5.0,5.0;" x1="22" x2="22" y1="81.24" y2="1004.04"/><line style="stroke:#181818;stroke-width:0.5;stroke-dasharray:5.0,5.0;" x1="137" x2="137" y1="81.24" y2="1004.04"/><line style="stroke:#181818;stroke-width:0.5;stroke-dasharray:5.0,5.0;" x1="249.5" x2="249.5" y1="233.42" y2="1004.04"/><line style="stroke:#181818;stroke-width:0.5;stroke-dasharray:5.0,5.0;" x1="361.5" x2="361.5" y1="81.24" y2="1004.04"/><line style="stroke:#181818;stroke-width:0.5;stroke-dasharray:5.0,5.0;" x1="511.5" x2="511.5" y1="671.78" y2="1004.04"/><line style="stroke:#181818;stroke-width:0.5;stroke-dasharray:5.0,5.0;" x1="654.5" x2="654.5" y1="121.86" y2="1004.04"/><line style="stroke:#181818;stroke-width:0.5;stroke-dasharray:5.0,5.0;" x1="804.5" x2="804.5" y1="163.1" y2="1004.04"/><line style="stroke:#181818;stroke-width:0.5;stroke-dasharray:5.0,5.0;" x1="1008.5" x2="1008.5" y1="81.24" y2="1004.04"/><line style="stroke:#181818;stroke-width:0.5;stroke-dasharray:5.0,5.0;" x1="1147.5" x2="1147.5" y1="81.24" y2="1004.04"/><line style="stroke:#181818;stroke-width:0.5;stroke-dasharray:5.0,5.0;" x1="1339.5" x2="1339.5" y1="589.3" y2="1004.04"/><line style="stroke:#181818;stroke-width:0.5;stroke-dasharray:5.0,5.0;" x1="1465.5" x2="1465.5" y1="630.54" y2="1004.04"/><line style="stroke:#181818;stroke-width:0.5;stroke-dasharray:5.0,5.0;" x1="1621" x2="1621" y1="81.24" y2="1004.04"/><text fill="#000000" font-family="D2Coding" font-size="14" lengthAdjust="spacing" textLength="28" x="5" y="78.02">User</text><ellipse cx="22" cy="13.5" fill="#E2E2F0" rx="8" ry="8" style="stroke:#181818;stroke-width:0.5;"/><path d="M22,21.5 L22,48.5 M9,29.5 L35,29.5 M22,48.5 L9,63.5 M22,48.5 L35,63.5 " fill="none" style="stroke:#181818;stroke-width:0.5;"/><text fill="#000000" font-family="D2Coding" font-size="14" lengthAdjust="spacing" textLength="28" x="5" y="1016.06">User</text><ellipse cx="22" cy="1027.78" fill="#E2E2F0" rx="8" ry="8" style="stroke:#181818;stroke-width:0.5;"/><path d="M22,1035.78 L22,1062.78 M9,1043.78 L35,1043.78 M22,1062.78 L9,1077.78 M22,1062.78 L35,1077.78 " fill="none" style="stroke:#181818;stroke-width:0.5;"/><rect fill="#E2E2F0" height="46.48" rx="2.5" ry="2.5" style="stroke:#181818;stroke-width:0.5;" width="84" x="95" y="33.76"/><text fill="#000000" font-family="D2Coding" font-size="14" lengthAdjust="spacing" textLength="49" x="112.5" y="53.78">HNSWLib</text><text fill="#000000" font-family="D2Coding" font-size="14" lengthAdjust="spacing" textLength="70" x="102" y="70.02">&lt;&lt;static&gt;&gt;</text><rect fill="#E2E2F0" height="46.48" rx="2.5" ry="2.5" style="stroke:#181818;stroke-width:0.5;" width="84" x="95" y="1003.04"/><text fill="#000000" font-family="D2Coding" font-size="14" lengthAdjust="spacing" textLength="49" x="112.5" y="1023.06">HNSWLib</text><text fill="#000000" font-family="D2Coding" font-size="14" lengthAdjust="spacing" textLength="70" x="102" y="1039.3">&lt;&lt;static&gt;&gt;</text><rect fill="#E2E2F0" height="30.24" rx="2.5" ry="2.5" style="stroke:#181818;stroke-width:0.5;" width="63" x="218.5" y="1003.04"/><text fill="#000000" font-family="D2Coding" font-size="14" lengthAdjust="spacing" textLength="49" x="225.5" y="1023.06">HNSWLib</text><rect fill="#E2E2F0" height="46.48" rx="2.5" ry="2.5" style="stroke:#181818;stroke-width:0.5;" width="140" x="291.5" y="33.76"/><text fill="#000000" font-family="D2Coding" font-size="14" lengthAdjust="spacing" textLength="126" x="298.5" y="53.78">SelfQueryRetriever</text><text fill="#000000" font-family="D2Coding" font-size="14" lengthAdjust="spacing" textLength="70" x="326.5" y="70.02">&lt;&lt;static&gt;&gt;</text><rect fill="#E2E2F0" height="46.48" rx="2.5" ry="2.5" style="stroke:#181818;stroke-width:0.5;" width="140" x="291.5" y="1003.04"/><text fill="#000000" font-family="D2Coding" font-size="14" lengthAdjust="spacing" textLength="126" x="298.5" y="1023.06">SelfQueryRetriever</text><text fill="#000000" font-family="D2Coding" font-size="14" lengthAdjust="spacing" textLength="70" x="326.5" y="1039.3">&lt;&lt;static&gt;&gt;</text><rect fill="#E2E2F0" height="30.24" rx="2.5" ry="2.5" style="stroke:#181818;stroke-width:0.5;" width="140" x="441.5" y="1003.04"/><text fill="#000000" font-family="D2Coding" font-size="14" lengthAdjust="spacing" textLength="126" x="448.5" y="1023.06">SelfQueryRetriever</text><rect fill="#E2E2F0" height="30.24" rx="2.5" ry="2.5" style="stroke:#181818;stroke-width:0.5;" width="126" x="591.5" y="1003.04"/><text fill="#000000" font-family="D2Coding" font-size="14" lengthAdjust="spacing" textLength="112" x="598.5" y="1023.06">OpenAIEmbeddings</text><rect fill="#E2E2F0" height="30.24" rx="2.5" ry="2.5" style="stroke:#181818;stroke-width:0.5;" width="56" x="776.5" y="1003.04"/><text fill="#000000" font-family="D2Coding" font-size="14" lengthAdjust="spacing" textLength="42" x="783.5" y="1023.06">OpenAI</text><rect fill="#E2E2F0" height="30.24" rx="2.5" ry="2.5" style="stroke:#181818;stroke-width:0.5;" width="56" x="980.5" y="50"/><text fill="#000000" font-family="D2Coding" font-size="14" lengthAdjust="spacing" textLength="42" x="987.5" y="70.02">chains</text><rect fill="#E2E2F0" height="30.24" rx="2.5" ry="2.5" style="stroke:#181818;stroke-width:0.5;" width="56" x="980.5" y="1003.04"/><text fill="#000000" font-family="D2Coding" font-size="14" lengthAdjust="spacing" textLength="42" x="987.5" y="1023.06">chains</text><rect fill="#E2E2F0" height="30.24" rx="2.5" ry="2.5" style="stroke:#181818;stroke-width:0.5;" width="203" x="1046.5" y="50"/><text fill="#000000" font-family="D2Coding" font-size="14" lengthAdjust="spacing" textLength="189" x="1053.5" y="70.02">StructuredQueryOutputParser</text><rect fill="#E2E2F0" height="30.24" rx="2.5" ry="2.5" style="stroke:#181818;stroke-width:0.5;" width="203" x="1046.5" y="1003.04"/><text fill="#000000" font-family="D2Coding" font-size="14" lengthAdjust="spacing" textLength="189" x="1053.5" y="1023.06">StructuredQueryOutputParser</text><rect fill="#E2E2F0" height="30.24" rx="2.5" ry="2.5" style="stroke:#181818;stroke-width:0.5;" width="161" x="1259.5" y="1003.04"/><text fill="#000000" font-family="D2Coding" font-size="14" lengthAdjust="spacing" textLength="147" x="1266.5" y="1023.06">FewShotPromptTemplate</text><rect fill="#E2E2F0" height="30.24" rx="2.5" ry="2.5" style="stroke:#181818;stroke-width:0.5;" width="70" x="1430.5" y="1003.04"/><text fill="#000000" font-family="D2Coding" font-size="14" lengthAdjust="spacing" textLength="56" x="1437.5" y="1023.06">LLMChain</text><rect fill="#E2E2F0" height="30.24" rx="2.5" ry="2.5" style="stroke:#181818;stroke-width:0.5;" width="35" x="1604" y="50"/><text fill="#000000" font-family="D2Coding" font-size="14" lengthAdjust="spacing" textLength="21" x="1611" y="70.02">API</text><rect fill="#E2E2F0" height="30.24" rx="2.5" ry="2.5" style="stroke:#181818;stroke-width:0.5;" width="35" x="1604" y="1003.04"/><text fill="#000000" font-family="D2Coding" font-size="14" lengthAdjust="spacing" textLength="21" x="1611" y="1023.06">API</text><rect fill="#FFFFFF" height="268.64" style="stroke:#181818;stroke-width:1.0;" width="10" x="132" y="194.8"/><rect fill="#FFFFFF" height="184.32" style="stroke:#181818;stroke-width:1.0;" width="10" x="245" y="265.12"/><rect fill="#FFFFFF" height="195.88" style="stroke:#181818;stroke-width:1.0;" width="10" x="356.5" y="492.52"/><rect fill="#FFFFFF" height="277.56" style="stroke:#181818;stroke-width:1.0;" width="10" x="506.5" y="717.48"/><rect fill="#FFFFFF" height="99.16" style="stroke:#181818;stroke-width:1.0;" width="10" x="649.5" y="294.2"/><rect fill="#FFFFFF" height="48.08" style="stroke:#181818;stroke-width:1.0;" width="10" x="654.5" y="331.28"/><rect fill="#FFFFFF" height="135.24" style="stroke:#181818;stroke-width:1.0;" width="10" x="799.5" y="859.8"/><rect fill="#FFFFFF" height="98.16" style="stroke:#181818;stroke-width:1.0;" width="10" x="804.5" y="896.88"/><rect fill="#FFFFFF" height="56.08" style="stroke:#181818;stroke-width:1.0;" width="10" x="809.5" y="938.96"/><rect fill="#FFFFFF" height="14" style="stroke:#181818;stroke-width:1.0;" width="10" x="814.5" y="981.04"/><rect fill="#FFFFFF" height="84.32" style="stroke:#181818;stroke-width:1.0;" width="10" x="1003.5" y="521.6"/><rect fill="#FFFFFF" height="248.48" style="stroke:#181818;stroke-width:1.0;" width="10" x="1460.5" y="746.56"/><rect fill="#FFFFFF" height="211.4" style="stroke:#181818;stroke-width:1.0;" width="10" x="1465.5" y="783.64"/><polygon fill="#181818" points="579.5,93.24,589.5,97.24,579.5,101.24,583.5,97.24" style="stroke:#181818;stroke-width:1.0;"/><line style="stroke:#181818;stroke-width:1.0;" x1="22" x2="585.5" y1="97.24" y2="97.24"/><rect fill="#E2E2F0" height="30.24" rx="2.5" ry="2.5" style="stroke:#181818;stroke-width:0.5;" width="126" x="591.5" y="91.24"/><text fill="#000000" font-family="D2Coding" font-size="14" lengthAdjust="spacing" textLength="112" x="598.5" y="111.26">OpenAIEmbeddings</text><polygon fill="#181818" points="764.5,134.48,774.5,138.48,764.5,142.48,768.5,138.48" style="stroke:#181818;stroke-width:1.0;"/><line style="stroke:#181818;stroke-width:1.0;" x1="22" x2="770.5" y1="138.48" y2="138.48"/><rect fill="#E2E2F0" height="30.24" rx="2.5" ry="2.5" style="stroke:#181818;stroke-width:0.5;" width="56" x="776.5" y="132.48"/><text fill="#000000" font-family="D2Coding" font-size="14" lengthAdjust="spacing" textLength="42" x="783.5" y="152.5">OpenAI</text><polygon fill="#181818" points="120,190.8,130,194.8,120,198.8,124,194.8" style="stroke:#181818;stroke-width:1.0;"/><line style="stroke:#181818;stroke-width:1.0;" x1="22" x2="126" y1="194.8" y2="194.8"/><text fill="#000000" font-family="D2Coding" font-size="13" lengthAdjust="spacing" textLength="91" x="29" y="189.81">fromDocuments</text><polygon fill="#181818" points="206.5,204.8,216.5,208.8,206.5,212.8,210.5,208.8" style="stroke:#181818;stroke-width:1.0;"/><line style="stroke:#181818;stroke-width:1.0;" x1="142" x2="212.5" y1="208.8" y2="208.8"/><rect fill="#E2E2F0" height="30.24" rx="2.5" ry="2.5" style="stroke:#181818;stroke-width:0.5;" width="63" x="218.5" y="202.8"/><text fill="#000000" font-family="D2Coding" font-size="14" lengthAdjust="spacing" textLength="49" x="225.5" y="222.82">HNSWLib</text><polygon fill="#181818" points="233,261.12,243,265.12,233,269.12,237,265.12" style="stroke:#181818;stroke-width:1.0;"/><line style="stroke:#181818;stroke-width:1.0;" x1="142" x2="239" y1="265.12" y2="265.12"/><text fill="#000000" font-family="D2Coding" font-size="13" lengthAdjust="spacing" textLength="84" x="149" y="260.13">addDocuments</text><polygon fill="#181818" points="637.5,290.2,647.5,294.2,637.5,298.2,641.5,294.2" style="stroke:#181818;stroke-width:1.0;"/><line style="stroke:#181818;stroke-width:1.0;" x1="255" x2="643.5" y1="294.2" y2="294.2"/><text fill="#000000" font-family="D2Coding" font-size="13" lengthAdjust="spacing" textLength="98" x="262" y="289.21">embedDocuments</text><line style="stroke:#181818;stroke-width:1.0;" x1="659.5" x2="706.5" y1="318.28" y2="318.28"/><line style="stroke:#181818;stroke-width:1.0;" x1="706.5" x2="706.5" y1="318.28" y2="331.28"/><line style="stroke:#181818;stroke-width:1.0;" x1="665.5" x2="706.5" y1="331.28" y2="331.28"/><polygon fill="#181818" points="675.5,327.28,665.5,331.28,675.5,335.28,671.5,331.28" style="stroke:#181818;stroke-width:1.0;"/><text fill="#000000" font-family="D2Coding" font-size="13" lengthAdjust="spacing" textLength="126" x="671.5" y="313.29">embeddingWithRetry</text><polygon fill="#181818" points="1609.5,361.36,1619.5,365.36,1609.5,369.36,1613.5,365.36" style="stroke:#181818;stroke-width:1.0;"/><line style="stroke:#181818;stroke-width:1.0;stroke-dasharray:2.0,2.0;" x1="664.5" x2="1615.5" y1="365.36" y2="365.36"/><text fill="#000000" font-family="D2Coding" font-size="13" lengthAdjust="spacing" textLength="126" x="671.5" y="360.37">embedding api call</text><polygon fill="#181818" points="670.5,375.36,660.5,379.36,670.5,383.36,666.5,379.36" style="stroke:#181818;stroke-width:1.0;"/><line style="stroke:#181818;stroke-width:1.0;stroke-dasharray:2.0,2.0;" x1="664.5" x2="1620.5" y1="379.36" y2="379.36"/><polygon fill="#181818" points="266,389.36,256,393.36,266,397.36,262,393.36" style="stroke:#181818;stroke-width:1.0;"/><line style="stroke:#181818;stroke-width:1.0;" x1="260" x2="653.5" y1="393.36" y2="393.36"/><line style="stroke:#181818;stroke-width:1.0;" x1="255" x2="297" y1="422.44" y2="422.44"/><line style="stroke:#181818;stroke-width:1.0;" x1="297" x2="297" y1="422.44" y2="435.44"/><line style="stroke:#181818;stroke-width:1.0;" x1="256" x2="297" y1="435.44" y2="435.44"/><polygon fill="#181818" points="266,431.44,256,435.44,266,439.44,262,435.44" style="stroke:#181818;stroke-width:1.0;"/><text fill="#000000" font-family="D2Coding" font-size="13" lengthAdjust="spacing" textLength="70" x="262" y="417.45">addVectors</text><polygon fill="#181818" points="153,445.44,143,449.44,153,453.44,149,449.44" style="stroke:#181818;stroke-width:1.0;"/><line style="stroke:#181818;stroke-width:1.0;" x1="147" x2="249" y1="449.44" y2="449.44"/><polygon fill="#181818" points="33,459.44,23,463.44,33,467.44,29,463.44" style="stroke:#181818;stroke-width:1.0;"/><line style="stroke:#181818;stroke-width:1.0;" x1="27" x2="136" y1="463.44" y2="463.44"/><polygon fill="#181818" points="344.5,488.52,354.5,492.52,344.5,496.52,348.5,492.52" style="stroke:#181818;stroke-width:1.0;"/><line style="stroke:#181818;stroke-width:1.0;" x1="22" x2="350.5" y1="492.52" y2="492.52"/><text fill="#000000" font-family="D2Coding" font-size="13" lengthAdjust="spacing" textLength="49" x="29" y="487.53">fromLLM</text><polygon fill="#181818" points="991.5,517.6,1001.5,521.6,991.5,525.6,995.5,521.6" style="stroke:#181818;stroke-width:1.0;"/><line style="stroke:#181818;stroke-width:1.0;" x1="366.5" x2="997.5" y1="521.6" y2="521.6"/><text fill="#000000" font-family="D2Coding" font-size="13" lengthAdjust="spacing" textLength="175" x="373.5" y="516.61">loadQueryConstructorChain</text><polygon fill="#181818" points="1136,546.68,1146,550.68,1136,554.68,1140,550.68" style="stroke:#181818;stroke-width:1.0;"/><line style="stroke:#181818;stroke-width:1.0;" x1="1013.5" x2="1142" y1="550.68" y2="550.68"/><text fill="#000000" font-family="D2Coding" font-size="13" lengthAdjust="spacing" textLength="98" x="1020.5" y="545.69">fromComponents</text><polygon fill="#181818" points="1247.5,560.68,1257.5,564.68,1247.5,568.68,1251.5,564.68" style="stroke:#181818;stroke-width:1.0;"/><line style="stroke:#181818;stroke-width:1.0;" x1="1013.5" x2="1253.5" y1="564.68" y2="564.68"/><rect fill="#E2E2F0" height="30.24" rx="2.5" ry="2.5" style="stroke:#181818;stroke-width:0.5;" width="161" x="1259.5" y="558.68"/><text fill="#000000" font-family="D2Coding" font-size="14" lengthAdjust="spacing" textLength="147" x="1266.5" y="578.7">FewShotPromptTemplate</text><polygon fill="#181818" points="1418.5,601.92,1428.5,605.92,1418.5,609.92,1422.5,605.92" style="stroke:#181818;stroke-width:1.0;"/><line style="stroke:#181818;stroke-width:1.0;" x1="1008.5" x2="1424.5" y1="605.92" y2="605.92"/><rect fill="#E2E2F0" height="30.24" rx="2.5" ry="2.5" style="stroke:#181818;stroke-width:0.5;" width="70" x="1430.5" y="599.92"/><text fill="#000000" font-family="D2Coding" font-size="14" lengthAdjust="spacing" textLength="56" x="1437.5" y="619.94">LLMChain</text><polygon fill="#181818" points="429.5,643.16,439.5,647.16,429.5,651.16,433.5,647.16" style="stroke:#181818;stroke-width:1.0;"/><line style="stroke:#181818;stroke-width:1.0;" x1="366.5" x2="435.5" y1="647.16" y2="647.16"/><rect fill="#E2E2F0" height="30.24" rx="2.5" ry="2.5" style="stroke:#181818;stroke-width:0.5;" width="140" x="441.5" y="641.16"/><text fill="#000000" font-family="D2Coding" font-size="14" lengthAdjust="spacing" textLength="126" x="448.5" y="661.18">SelfQueryRetriever</text><polygon fill="#181818" points="33,684.4,23,688.4,33,692.4,29,688.4" style="stroke:#181818;stroke-width:1.0;"/><line style="stroke:#181818;stroke-width:1.0;" x1="27" x2="360.5" y1="688.4" y2="688.4"/><polygon fill="#181818" points="494.5,713.48,504.5,717.48,494.5,721.48,498.5,717.48" style="stroke:#181818;stroke-width:1.0;"/><line style="stroke:#181818;stroke-width:1.0;" x1="22" x2="500.5" y1="717.48" y2="717.48"/><text fill="#000000" font-family="D2Coding" font-size="13" lengthAdjust="spacing" textLength="140" x="29" y="712.49">getRelevantDocuments</text><polygon fill="#181818" points="1448.5,742.56,1458.5,746.56,1448.5,750.56,1452.5,746.56" style="stroke:#181818;stroke-width:1.0;"/><line style="stroke:#181818;stroke-width:1.0;" x1="516.5" x2="1454.5" y1="746.56" y2="746.56"/><text fill="#000000" font-family="D2Coding" font-size="13" lengthAdjust="spacing" textLength="28" x="523.5" y="741.57">call</text><line style="stroke:#181818;stroke-width:1.0;" x1="1470.5" x2="1517.5" y1="770.64" y2="770.64"/><line style="stroke:#181818;stroke-width:1.0;" x1="1517.5" x2="1517.5" y1="770.64" y2="783.64"/><line style="stroke:#181818;stroke-width:1.0;" x1="1476.5" x2="1517.5" y1="783.64" y2="783.64"/><polygon fill="#181818" points="1486.5,779.64,1476.5,783.64,1486.5,787.64,1482.5,783.64" style="stroke:#181818;stroke-width:1.0;"/><text fill="#000000" font-family="D2Coding" font-size="13" lengthAdjust="spacing" textLength="98" x="1482.5" y="765.65">BaseChain.call</text><line style="stroke:#181818;stroke-width:1.0;" x1="1475.5" x2="1517.5" y1="817.72" y2="817.72"/><line style="stroke:#181818;stroke-width:1.0;" x1="1517.5" x2="1517.5" y1="817.72" y2="830.72"/><line style="stroke:#181818;stroke-width:1.0;" x1="1476.5" x2="1517.5" y1="830.72" y2="830.72"/><polygon fill="#181818" points="1486.5,826.72,1476.5,830.72,1486.5,834.72,1482.5,830.72" style="stroke:#181818;stroke-width:1.0;"/><text fill="#000000" font-family="D2Coding" font-size="13" lengthAdjust="spacing" textLength="35" x="1482.5" y="812.73">_call</text><polygon fill="#181818" points="820.5,855.8,810.5,859.8,820.5,863.8,816.5,859.8" style="stroke:#181818;stroke-width:1.0;"/><line style="stroke:#181818;stroke-width:1.0;" x1="814.5" x2="1464.5" y1="859.8" y2="859.8"/><text fill="#000000" font-family="D2Coding" font-size="13" lengthAdjust="spacing" textLength="154" x="826.5" y="854.81">BaseLLM.generatePrompt</text><line style="stroke:#181818;stroke-width:1.0;" x1="809.5" x2="856.5" y1="883.88" y2="883.88"/><line style="stroke:#181818;stroke-width:1.0;" x1="856.5" x2="856.5" y1="883.88" y2="896.88"/><line style="stroke:#181818;stroke-width:1.0;" x1="815.5" x2="856.5" y1="896.88" y2="896.88"/><polygon fill="#181818" points="825.5,892.88,815.5,896.88,825.5,900.88,821.5,896.88" style="stroke:#181818;stroke-width:1.0;"/><text fill="#000000" font-family="D2Coding" font-size="13" lengthAdjust="spacing" textLength="112" x="821.5" y="878.89">BaseLLM.generate</text><line style="stroke:#181818;stroke-width:1.0;" x1="814.5" x2="861.5" y1="925.96" y2="925.96"/><line style="stroke:#181818;stroke-width:1.0;" x1="861.5" x2="861.5" y1="925.96" y2="938.96"/><line style="stroke:#181818;stroke-width:1.0;" x1="820.5" x2="861.5" y1="938.96" y2="938.96"/><polygon fill="#181818" points="830.5,934.96,820.5,938.96,830.5,942.96,826.5,938.96" style="stroke:#181818;stroke-width:1.0;"/><text fill="#000000" font-family="D2Coding" font-size="13" lengthAdjust="spacing" textLength="175" x="826.5" y="920.97">BaseLLM._generateUncached</text><line style="stroke:#181818;stroke-width:1.0;" x1="819.5" x2="866.5" y1="968.04" y2="968.04"/><line style="stroke:#181818;stroke-width:1.0;" x1="866.5" x2="866.5" y1="968.04" y2="981.04"/><line style="stroke:#181818;stroke-width:1.0;" x1="825.5" x2="866.5" y1="981.04" y2="981.04"/><polygon fill="#181818" points="835.5,977.04,825.5,981.04,835.5,985.04,831.5,981.04" style="stroke:#181818;stroke-width:1.0;"/><text fill="#000000" font-family="D2Coding" font-size="13" lengthAdjust="spacing" textLength="63" x="831.5" y="963.05">_generate</text><!--MD5=[e5b26c6975269ead5e8f548b4a2af0c2]
--></g></svg>
