<?xml version="1.0" encoding="us-ascii" standalone="no"?><svg xmlns="http://www.w3.org/2000/svg" xmlns:xlink="http://www.w3.org/1999/xlink" contentStyleType="text/css" height="610px" preserveAspectRatio="none" style="width:1172px;height:610px;background:#FFFFFF;" version="1.1" viewBox="0 0 1172 610" width="1172px" zoomAndPan="magnify"><defs/><g><rect fill="#DDDDDD" height="598.3242" style="stroke:#181818;stroke-width:0.5;" width="643" x="1" y="6"/><text fill="#000000" font-family="sans-serif" font-size="13" font-weight="bold" lengthAdjust="spacing" textLength="54" x="295.5" y="18.5684">Browser</text><rect fill="#DDDDDD" height="598.3242" style="stroke:#181818;stroke-width:0.5;" width="159" x="806" y="6"/><text fill="#000000" font-family="sans-serif" font-size="13" font-weight="bold" lengthAdjust="spacing" textLength="43" x="864" y="18.5684">Server</text><rect fill="#FFFFFF" height="29.3105" style="stroke:#181818;stroke-width:1.0;" width="10" x="105" y="102.1094"/><rect fill="#FFFFFF" height="188.5527" style="stroke:#181818;stroke-width:1.0;" width="10" x="105" y="204.041"/><rect fill="#FFFFFF" height="29.3105" style="stroke:#181818;stroke-width:1.0;" width="10" x="185.5" y="406.5938"/><rect fill="#FFFFFF" height="86.6211" style="stroke:#181818;stroke-width:1.0;" width="10" x="274.5" y="465.2148"/><rect fill="#FFFFFF" height="43.3105" style="stroke:#181818;stroke-width:1.0;" width="10" x="375" y="508.5254"/><rect fill="#FFFFFF" height="159.2422" style="stroke:#181818;stroke-width:1.0;" width="10" x="572.5" y="233.3516"/><rect fill="#FFFFFF" height="29.3105" style="stroke:#181818;stroke-width:1.0;" width="10" x="1105.5" y="522.5254"/><line style="stroke:#181818;stroke-width:0.5;stroke-dasharray:5.0,5.0;" x1="39" x2="39" y1="56.7988" y2="569.8359"/><line style="stroke:#181818;stroke-width:0.5;stroke-dasharray:5.0,5.0;" x1="110" x2="110" y1="56.7988" y2="569.8359"/><line style="stroke:#181818;stroke-width:0.5;stroke-dasharray:5.0,5.0;" x1="190" x2="190" y1="56.7988" y2="569.8359"/><line style="stroke:#181818;stroke-width:0.5;stroke-dasharray:5.0,5.0;" x1="279" x2="279" y1="56.7988" y2="569.8359"/><line style="stroke:#181818;stroke-width:0.5;stroke-dasharray:5.0,5.0;" x1="380" x2="380" y1="56.7988" y2="569.8359"/><line style="stroke:#181818;stroke-width:0.5;stroke-dasharray:5.0,5.0;" x1="475" x2="475" y1="56.7988" y2="569.8359"/><line style="stroke:#181818;stroke-width:0.5;stroke-dasharray:5.0,5.0;" x1="577" x2="577" y1="56.7988" y2="569.8359"/><line style="stroke:#181818;stroke-width:0.5;stroke-dasharray:5.0,5.0;" x1="838" x2="838" y1="56.7988" y2="569.8359"/><line style="stroke:#181818;stroke-width:0.5;stroke-dasharray:5.0,5.0;" x1="919" x2="919" y1="56.7988" y2="569.8359"/><line style="stroke:#181818;stroke-width:0.5;stroke-dasharray:5.0,5.0;" x1="1110" x2="1110" y1="56.7988" y2="569.8359"/><rect fill="#E2E2F0" height="30.4883" rx="2.5" ry="2.5" style="stroke:#181818;stroke-width:0.5;" width="69" x="5" y="25.3105"/><text fill="#000000" font-family="sans-serif" font-size="14" lengthAdjust="spacing" textLength="55" x="12" y="45.8457">Browser</text><rect fill="#E2E2F0" height="30.4883" rx="2.5" ry="2.5" style="stroke:#181818;stroke-width:0.5;" width="69" x="5" y="568.8359"/><text fill="#000000" font-family="sans-serif" font-size="14" lengthAdjust="spacing" textLength="55" x="12" y="589.3711">Browser</text><rect fill="#E2E2F0" height="30.4883" rx="2.5" ry="2.5" style="stroke:#181818;stroke-width:0.5;" width="52" x="84" y="25.3105"/><text fill="#000000" font-family="sans-serif" font-size="14" lengthAdjust="spacing" textLength="38" x="91" y="45.8457">Login</text><rect fill="#E2E2F0" height="30.4883" rx="2.5" ry="2.5" style="stroke:#181818;stroke-width:0.5;" width="52" x="84" y="568.8359"/><text fill="#000000" font-family="sans-serif" font-size="14" lengthAdjust="spacing" textLength="38" x="91" y="589.3711">Login</text><rect fill="#E2E2F0" height="30.4883" rx="2.5" ry="2.5" style="stroke:#181818;stroke-width:0.5;" width="89" x="146" y="25.3105"/><text fill="#000000" font-family="sans-serif" font-size="14" lengthAdjust="spacing" textLength="75" x="153" y="45.8457">Dashboard</text><rect fill="#E2E2F0" height="30.4883" rx="2.5" ry="2.5" style="stroke:#181818;stroke-width:0.5;" width="89" x="146" y="568.8359"/><text fill="#000000" font-family="sans-serif" font-size="14" lengthAdjust="spacing" textLength="75" x="153" y="589.3711">Dashboard</text><rect fill="#E2E2F0" height="30.4883" rx="2.5" ry="2.5" style="stroke:#181818;stroke-width:0.5;" width="69" x="245" y="25.3105"/><text fill="#000000" font-family="sans-serif" font-size="14" lengthAdjust="spacing" textLength="55" x="252" y="45.8457">Settings</text><rect fill="#E2E2F0" height="30.4883" rx="2.5" ry="2.5" style="stroke:#181818;stroke-width:0.5;" width="69" x="245" y="568.8359"/><text fill="#000000" font-family="sans-serif" font-size="14" lengthAdjust="spacing" textLength="55" x="252" y="589.3711">Settings</text><rect fill="#E2E2F0" height="30.4883" rx="2.5" ry="2.5" style="stroke:#181818;stroke-width:0.5;" width="112" x="324" y="25.3105"/><text fill="#000000" font-family="sans-serif" font-size="14" lengthAdjust="spacing" textLength="98" x="331" y="45.8457">AccessControl</text><rect fill="#E2E2F0" height="30.4883" rx="2.5" ry="2.5" style="stroke:#181818;stroke-width:0.5;" width="112" x="324" y="568.8359"/><text fill="#000000" font-family="sans-serif" font-size="14" lengthAdjust="spacing" textLength="98" x="331" y="589.3711">AccessControl</text><rect fill="#E2E2F0" height="30.4883" rx="2.5" ry="2.5" style="stroke:#181818;stroke-width:0.5;" width="59" x="446" y="25.3105"/><text fill="#000000" font-family="sans-serif" font-size="14" lengthAdjust="spacing" textLength="45" x="453" y="45.8457">formik</text><rect fill="#E2E2F0" height="30.4883" rx="2.5" ry="2.5" style="stroke:#181818;stroke-width:0.5;" width="59" x="446" y="568.8359"/><text fill="#000000" font-family="sans-serif" font-size="14" lengthAdjust="spacing" textLength="45" x="453" y="589.3711">formik</text><rect fill="#E2E2F0" height="30.4883" rx="2.5" ry="2.5" style="stroke:#181818;stroke-width:0.5;" width="125" x="515" y="25.3105"/><text fill="#000000" font-family="sans-serif" font-size="14" lengthAdjust="spacing" textLength="111" x="522" y="45.8457">next-auth/react</text><rect fill="#E2E2F0" height="30.4883" rx="2.5" ry="2.5" style="stroke:#181818;stroke-width:0.5;" width="125" x="515" y="568.8359"/><text fill="#000000" font-family="sans-serif" font-size="14" lengthAdjust="spacing" textLength="111" x="522" y="589.3711">next-auth/react</text><rect fill="#E2E2F0" height="30.4883" rx="2.5" ry="2.5" style="stroke:#181818;stroke-width:0.5;" width="57" x="810" y="25.3105"/><text fill="#000000" font-family="sans-serif" font-size="14" lengthAdjust="spacing" textLength="43" x="817" y="45.8457">Server</text><rect fill="#E2E2F0" height="30.4883" rx="2.5" ry="2.5" style="stroke:#181818;stroke-width:0.5;" width="57" x="810" y="568.8359"/><text fill="#000000" font-family="sans-serif" font-size="14" lengthAdjust="spacing" textLength="43" x="817" y="589.3711">Server</text><rect fill="#E2E2F0" height="30.4883" rx="2.5" ry="2.5" style="stroke:#181818;stroke-width:0.5;" width="84" x="877" y="25.3105"/><text fill="#000000" font-family="sans-serif" font-size="14" lengthAdjust="spacing" textLength="70" x="884" y="45.8457">next-auth</text><rect fill="#E2E2F0" height="30.4883" rx="2.5" ry="2.5" style="stroke:#181818;stroke-width:0.5;" width="84" x="877" y="568.8359"/><text fill="#000000" font-family="sans-serif" font-size="14" lengthAdjust="spacing" textLength="70" x="884" y="589.3711">next-auth</text><rect fill="#E2E2F0" height="30.4883" rx="2.5" ry="2.5" style="stroke:#181818;stroke-width:0.5;" width="111" x="1055" y="25.3105"/><text fill="#000000" font-family="sans-serif" font-size="14" lengthAdjust="spacing" textLength="97" x="1062" y="45.8457">useCanAccess</text><rect fill="#E2E2F0" height="30.4883" rx="2.5" ry="2.5" style="stroke:#181818;stroke-width:0.5;" width="111" x="1055" y="568.8359"/><text fill="#000000" font-family="sans-serif" font-size="14" lengthAdjust="spacing" textLength="97" x="1062" y="589.3711">useCanAccess</text><rect fill="#FFFFFF" height="29.3105" style="stroke:#181818;stroke-width:1.0;" width="10" x="105" y="102.1094"/><rect fill="#FFFFFF" height="188.5527" style="stroke:#181818;stroke-width:1.0;" width="10" x="105" y="204.041"/><rect fill="#FFFFFF" height="29.3105" style="stroke:#181818;stroke-width:1.0;" width="10" x="185.5" y="406.5938"/><rect fill="#FFFFFF" height="86.6211" style="stroke:#181818;stroke-width:1.0;" width="10" x="274.5" y="465.2148"/><rect fill="#FFFFFF" height="43.3105" style="stroke:#181818;stroke-width:1.0;" width="10" x="375" y="508.5254"/><rect fill="#FFFFFF" height="159.2422" style="stroke:#181818;stroke-width:1.0;" width="10" x="572.5" y="233.3516"/><rect fill="#FFFFFF" height="29.3105" style="stroke:#181818;stroke-width:1.0;" width="10" x="1105.5" y="522.5254"/><polygon fill="#181818" points="826.5,84.1094,836.5,88.1094,826.5,92.1094,830.5,88.1094" style="stroke:#181818;stroke-width:1.0;"/><line style="stroke:#181818;stroke-width:1.0;stroke-dasharray:2.0,2.0;" x1="39.5" x2="832.5" y1="88.1094" y2="88.1094"/><text fill="#000000" font-family="sans-serif" font-size="13" lengthAdjust="spacing" textLength="74" x="46.5" y="83.3672">/auth/login</text><polygon fill="#181818" points="93,98.1094,103,102.1094,93,106.1094,97,102.1094" style="stroke:#181818;stroke-width:1.0;"/><line style="stroke:#181818;stroke-width:1.0;" x1="39.5" x2="99" y1="102.1094" y2="102.1094"/><polygon fill="#181818" points="463.5,127.4199,473.5,131.4199,463.5,135.4199,467.5,131.4199" style="stroke:#181818;stroke-width:1.0;"/><line style="stroke:#181818;stroke-width:1.0;" x1="110" x2="469.5" y1="131.4199" y2="131.4199"/><text fill="#000000" font-family="sans-serif" font-size="13" lengthAdjust="spacing" textLength="66" x="117" y="126.6777">useFormik</text><polygon fill="#181818" points="98,156.7305,108,160.7305,98,164.7305,102,160.7305" style="stroke:#181818;stroke-width:1.0;"/><line style="stroke:#181818;stroke-width:1.0;stroke-dasharray:2.0,2.0;" x1="39.5" x2="104" y1="160.7305" y2="160.7305"/><text fill="#000000" font-family="sans-serif" font-size="13" lengthAdjust="spacing" textLength="44" x="46.5" y="155.9883">submit</text><polygon fill="#181818" points="463.5,170.7305,473.5,174.7305,463.5,178.7305,467.5,174.7305" style="stroke:#181818;stroke-width:1.0;"/><line style="stroke:#181818;stroke-width:1.0;stroke-dasharray:2.0,2.0;" x1="110" x2="469.5" y1="174.7305" y2="174.7305"/><polygon fill="#181818" points="126,200.041,116,204.041,126,208.041,122,204.041" style="stroke:#181818;stroke-width:1.0;"/><line style="stroke:#181818;stroke-width:1.0;" x1="120" x2="474.5" y1="204.041" y2="204.041"/><text fill="#000000" font-family="sans-serif" font-size="13" lengthAdjust="spacing" textLength="60" x="132" y="199.2988">onSubmit</text><polygon fill="#181818" points="560.5,229.3516,570.5,233.3516,560.5,237.3516,564.5,233.3516" style="stroke:#181818;stroke-width:1.0;"/><line style="stroke:#181818;stroke-width:1.0;" x1="115" x2="566.5" y1="233.3516" y2="233.3516"/><text fill="#000000" font-family="sans-serif" font-size="13" lengthAdjust="spacing" textLength="122" x="122" y="228.6094">signIn('credentials')</text><polygon fill="#181818" points="826.5,258.6621,836.5,262.6621,826.5,266.6621,830.5,262.6621" style="stroke:#181818;stroke-width:1.0;"/><line style="stroke:#181818;stroke-width:1.0;stroke-dasharray:2.0,2.0;" x1="582.5" x2="832.5" y1="262.6621" y2="262.6621"/><text fill="#000000" font-family="sans-serif" font-size="13" lengthAdjust="spacing" textLength="127" x="589.5" y="257.9199">/api/auth/providers</text><polygon fill="#181818" points="907,272.6621,917,276.6621,907,280.6621,911,276.6621" style="stroke:#181818;stroke-width:1.0;"/><line style="stroke:#181818;stroke-width:1.0;" x1="838.5" x2="913" y1="276.6621" y2="276.6621"/><polygon fill="#181818" points="826.5,301.9727,836.5,305.9727,826.5,309.9727,830.5,305.9727" style="stroke:#181818;stroke-width:1.0;"/><line style="stroke:#181818;stroke-width:1.0;stroke-dasharray:2.0,2.0;" x1="582.5" x2="832.5" y1="305.9727" y2="305.9727"/><text fill="#000000" font-family="sans-serif" font-size="13" lengthAdjust="spacing" textLength="92" x="589.5" y="301.2305">/api/auth/csrf</text><polygon fill="#181818" points="907,315.9727,917,319.9727,907,323.9727,911,319.9727" style="stroke:#181818;stroke-width:1.0;"/><line style="stroke:#181818;stroke-width:1.0;" x1="838.5" x2="913" y1="319.9727" y2="319.9727"/><polygon fill="#181818" points="826.5,345.2832,836.5,349.2832,826.5,353.2832,830.5,349.2832" style="stroke:#181818;stroke-width:1.0;"/><line style="stroke:#181818;stroke-width:1.0;stroke-dasharray:2.0,2.0;" x1="582.5" x2="832.5" y1="349.2832" y2="349.2832"/><text fill="#000000" font-family="sans-serif" font-size="13" lengthAdjust="spacing" textLength="232" x="589.5" y="344.541">POST /api/auth/callback/credentials</text><polygon fill="#181818" points="907,359.2832,917,363.2832,907,367.2832,911,363.2832" style="stroke:#181818;stroke-width:1.0;"/><line style="stroke:#181818;stroke-width:1.0;" x1="838.5" x2="913" y1="363.2832" y2="363.2832"/><polygon fill="#181818" points="50.5,388.5938,40.5,392.5938,50.5,396.5938,46.5,392.5938" style="stroke:#181818;stroke-width:1.0;"/><line style="stroke:#181818;stroke-width:1.0;stroke-dasharray:2.0,2.0;" x1="44.5" x2="918" y1="392.5938" y2="392.5938"/><text fill="#000000" font-family="sans-serif" font-size="13" lengthAdjust="spacing" textLength="98" x="56.5" y="387.8516">url: /dashboard</text><polygon fill="#181818" points="173.5,402.5938,183.5,406.5938,173.5,410.5938,177.5,406.5938" style="stroke:#181818;stroke-width:1.0;"/><line style="stroke:#181818;stroke-width:1.0;" x1="39.5" x2="179.5" y1="406.5938" y2="406.5938"/><polygon fill="#181818" points="826.5,431.9043,836.5,435.9043,826.5,439.9043,830.5,435.9043" style="stroke:#181818;stroke-width:1.0;"/><line style="stroke:#181818;stroke-width:1.0;stroke-dasharray:2.0,2.0;" x1="190.5" x2="832.5" y1="435.9043" y2="435.9043"/><text fill="#000000" font-family="sans-serif" font-size="13" lengthAdjust="spacing" textLength="71" x="197.5" y="431.1621">/api/teams</text><polygon fill="#181818" points="262.5,461.2148,272.5,465.2148,262.5,469.2148,266.5,465.2148" style="stroke:#181818;stroke-width:1.0;"/><line style="stroke:#181818;stroke-width:1.0;" x1="39.5" x2="268.5" y1="465.2148" y2="465.2148"/><text fill="#000000" font-family="sans-serif" font-size="13" lengthAdjust="spacing" textLength="191" x="46.5" y="460.4727">/teams/[teams-slug]/settings</text><polygon fill="#181818" points="826.5,490.5254,836.5,494.5254,826.5,498.5254,830.5,494.5254" style="stroke:#181818;stroke-width:1.0;"/><line style="stroke:#181818;stroke-width:1.0;" x1="284.5" x2="832.5" y1="494.5254" y2="494.5254"/><text fill="#000000" font-family="sans-serif" font-size="13" lengthAdjust="spacing" textLength="159" x="291.5" y="489.7832">/api/teams/[teams-slug]</text><polygon fill="#181818" points="363,504.5254,373,508.5254,363,512.5254,367,508.5254" style="stroke:#181818;stroke-width:1.0;"/><line style="stroke:#181818;stroke-width:1.0;" x1="284.5" x2="369" y1="508.5254" y2="508.5254"/><polygon fill="#181818" points="1093.5,518.5254,1103.5,522.5254,1093.5,526.5254,1097.5,522.5254" style="stroke:#181818;stroke-width:1.0;"/><line style="stroke:#181818;stroke-width:1.0;" x1="385" x2="1099.5" y1="522.5254" y2="522.5254"/><polygon fill="#181818" points="849.5,547.8359,839.5,551.8359,849.5,555.8359,845.5,551.8359" style="stroke:#181818;stroke-width:1.0;"/><line style="stroke:#181818;stroke-width:1.0;stroke-dasharray:2.0,2.0;" x1="843.5" x2="1109.5" y1="551.8359" y2="551.8359"/><text fill="#000000" font-family="sans-serif" font-size="13" lengthAdjust="spacing" textLength="243" x="855.5" y="547.0938">/api/teams/[teams-slug]/permissions</text><!--SRC=[dLF1QiCm3BtdAqGktGuXznuAMyjWCDWWkurH7CTDJLqxM4xNpvzZfuwThcCi5qTFqhFqPDNg3FcZLb_8T9vrH1jEUKUaWH5Ci1VLSfaW6uBxMX7T96Z5ZE6onGHye9GXhfKqMed4irFwo0y9b4jsDWNfpRxKZ52J0q4Op2qLd4cJCTb0hSvPLWyTL4oVvWrux0QhunkixM1DR6FNK1IhaM09fIj3kDwdWDMeXYsEduXXemd-7Fo-hINqo9vyXmsRHQSNEcm9sDT7RhAH9n1b_e0fKCdAXzwk8PBC4lDMFikx1TMiiG0d0XVtDZganmA3_I9xfaZ7lIgTLYVUC8qktlk7UoTf_yP3KU_-HV7sMht7F4I8cj136VNuAs-m7Eiu3JipBMnvJNZT0D7iOfckHngza6axGj0ceWp_rw8OHeuOaqzvyGMNHRDPBgFyS4U1ecy_IxoiOM09YmdX5twyEY6QHQUB73sVkGDIPCYrkx0cqiD-hfVaAmyaq0s9qeOxPZS4aIlfAIBzPlIH9wqwrZoebNq3]--></g></svg>