<?xml version="1.0" encoding="UTF-8" standalone="no"?><svg xmlns="http://www.w3.org/2000/svg" xmlns:xlink="http://www.w3.org/1999/xlink" contentStyleType="text/css" height="2335px" preserveAspectRatio="none" style="width:1035px;height:2335px;background:#FFFFFF;" version="1.1" viewBox="0 0 1035 2335" width="1035px" zoomAndPan="magnify"><defs/><g><rect fill="#FFFFFF" height="154.72" style="stroke:#181818;stroke-width:1.0;" width="10" x="341.5" y="246.04"/><rect fill="#FFFFFF" height="101.48" style="stroke:#181818;stroke-width:1.0;" width="10" x="346.5" y="285.28"/><rect fill="#FFFFFF" height="1815.84" style="stroke:#181818;stroke-width:1.0;" width="10" x="341.5" y="429.84"/><rect fill="#FFFFFF" height="1778.76" style="stroke:#181818;stroke-width:1.0;" width="10" x="346.5" y="466.92"/><rect fill="#FFFFFF" height="57.4" style="stroke:#181818;stroke-width:1.0;" width="10" x="533" y="329.36"/><rect fill="#FFFFFF" height="518.24" style="stroke:#181818;stroke-width:1.0;" width="10" x="533" y="501"/><rect fill="#FFFFFF" height="365.76" style="stroke:#181818;stroke-width:1.0;" width="10" x="752.5" y="559.16"/><rect fill="#FFFFFF" height="441.16" style="stroke:#181818;stroke-width:1.0;" width="10" x="752.5" y="1106.48"/><rect fill="#FFFFFF" height="516.56" style="stroke:#181818;stroke-width:1.0;" width="10" x="752.5" y="1669.96"/><rect fill="#FFFFFF" height="29.08" style="stroke:#181818;stroke-width:1.0;" width="10" x="860.5" y="1048.32"/><rect fill="#FFFFFF" height="14" style="stroke:#181818;stroke-width:1.0;" width="10" x="982.5" y="1641.96"/><line style="stroke:#181818;stroke-width:0.5;stroke-dasharray:5.0,5.0;" x1="32" x2="32" y1="81.24" y2="2254.68"/><line style="stroke:#181818;stroke-width:0.5;stroke-dasharray:5.0,5.0;" x1="90" x2="90" y1="81.24" y2="2254.68"/><line style="stroke:#181818;stroke-width:0.5;stroke-dasharray:5.0,5.0;" x1="346" x2="346" y1="245.58" y2="2254.68"/><line style="stroke:#181818;stroke-width:0.5;stroke-dasharray:5.0,5.0;" x1="537.5" x2="537.5" y1="328.9" y2="2254.68"/><line style="stroke:#181818;stroke-width:0.5;stroke-dasharray:5.0,5.0;" x1="635.5" x2="635.5" y1="370.14" y2="2254.68"/><line style="stroke:#181818;stroke-width:0.5;stroke-dasharray:5.0,5.0;" x1="757.5" x2="757.5" y1="121.86" y2="2254.68"/><line style="stroke:#181818;stroke-width:0.5;stroke-dasharray:5.0,5.0;" x1="865.5" x2="865.5" y1="163.1" y2="2254.68"/><line style="stroke:#181818;stroke-width:0.5;stroke-dasharray:5.0,5.0;" x1="987.5" x2="987.5" y1="204.34" y2="2254.68"/><text fill="#000000" font-family="D2Coding" font-size="14" lengthAdjust="spacing" textLength="28" x="15" y="78.02">User</text><ellipse cx="32" cy="13.5" fill="#E2E2F0" rx="8" ry="8" style="stroke:#181818;stroke-width:0.5;"/><path d="M32,21.5 L32,48.5 M19,29.5 L45,29.5 M32,48.5 L19,63.5 M32,48.5 L45,63.5 " fill="none" style="stroke:#181818;stroke-width:0.5;"/><text fill="#000000" font-family="D2Coding" font-size="14" lengthAdjust="spacing" textLength="28" x="15" y="2266.7">User</text><ellipse cx="32" cy="2278.42" fill="#E2E2F0" rx="8" ry="8" style="stroke:#181818;stroke-width:0.5;"/><path d="M32,2286.42 L32,2313.42 M19,2294.42 L45,2294.42 M32,2313.42 L19,2328.42 M32,2313.42 L45,2328.42 " fill="none" style="stroke:#181818;stroke-width:0.5;"/><rect fill="#E2E2F0" height="30.24" rx="2.5" ry="2.5" style="stroke:#181818;stroke-width:0.5;" width="63" x="59" y="50"/><text fill="#000000" font-family="D2Coding" font-size="14" lengthAdjust="spacing" textLength="49" x="66" y="70.02">SerpAPI</text><rect fill="#E2E2F0" height="30.24" rx="2.5" ry="2.5" style="stroke:#181818;stroke-width:0.5;" width="63" x="59" y="2253.68"/><text fill="#000000" font-family="D2Coding" font-size="14" lengthAdjust="spacing" textLength="49" x="66" y="2273.7">SerpAPI</text><rect fill="#E2E2F0" height="30.24" rx="2.5" ry="2.5" style="stroke:#181818;stroke-width:0.5;" width="105" x="294" y="2253.68"/><text fill="#000000" font-family="D2Coding" font-size="14" lengthAdjust="spacing" textLength="91" x="301" y="2273.7">AgentExecutor</text><rect fill="#E2E2F0" height="30.24" rx="2.5" ry="2.5" style="stroke:#181818;stroke-width:0.5;" width="105" x="485.5" y="2253.68"/><text fill="#000000" font-family="D2Coding" font-size="14" lengthAdjust="spacing" textLength="91" x="492.5" y="2273.7">ZeroShotAgent</text><rect fill="#E2E2F0" height="30.24" rx="2.5" ry="2.5" style="stroke:#181818;stroke-width:0.5;" width="70" x="600.5" y="2253.68"/><text fill="#000000" font-family="D2Coding" font-size="14" lengthAdjust="spacing" textLength="56" x="607.5" y="2273.7">LLMChain</text><rect fill="#E2E2F0" height="30.24" rx="2.5" ry="2.5" style="stroke:#181818;stroke-width:0.5;" width="56" x="729.5" y="2253.68"/><text fill="#000000" font-family="D2Coding" font-size="14" lengthAdjust="spacing" textLength="42" x="736.5" y="2273.7">OpenAI</text><rect fill="#E2E2F0" height="30.24" rx="2.5" ry="2.5" style="stroke:#181818;stroke-width:0.5;" width="140" x="795.5" y="2253.68"/><text fill="#000000" font-family="D2Coding" font-size="14" lengthAdjust="spacing" textLength="126" x="802.5" y="2273.7">GoogleCustomSearch</text><rect fill="#E2E2F0" height="30.24" rx="2.5" ry="2.5" style="stroke:#181818;stroke-width:0.5;" width="84" x="945.5" y="2253.68"/><text fill="#000000" font-family="D2Coding" font-size="14" lengthAdjust="spacing" textLength="70" x="952.5" y="2273.7">Calculator</text><rect fill="#FFFFFF" height="154.72" style="stroke:#181818;stroke-width:1.0;" width="10" x="341.5" y="246.04"/><rect fill="#FFFFFF" height="101.48" style="stroke:#181818;stroke-width:1.0;" width="10" x="346.5" y="285.28"/><rect fill="#FFFFFF" height="1815.84" style="stroke:#181818;stroke-width:1.0;" width="10" x="341.5" y="429.84"/><rect fill="#FFFFFF" height="1778.76" style="stroke:#181818;stroke-width:1.0;" width="10" x="346.5" y="466.92"/><rect fill="#FFFFFF" height="57.4" style="stroke:#181818;stroke-width:1.0;" width="10" x="533" y="329.36"/><rect fill="#FFFFFF" height="518.24" style="stroke:#181818;stroke-width:1.0;" width="10" x="533" y="501"/><rect fill="#FFFFFF" height="365.76" style="stroke:#181818;stroke-width:1.0;" width="10" x="752.5" y="559.16"/><rect fill="#FFFFFF" height="441.16" style="stroke:#181818;stroke-width:1.0;" width="10" x="752.5" y="1106.48"/><rect fill="#FFFFFF" height="516.56" style="stroke:#181818;stroke-width:1.0;" width="10" x="752.5" y="1669.96"/><rect fill="#FFFFFF" height="29.08" style="stroke:#181818;stroke-width:1.0;" width="10" x="860.5" y="1048.32"/><rect fill="#FFFFFF" height="14" style="stroke:#181818;stroke-width:1.0;" width="10" x="982.5" y="1641.96"/><polygon fill="#181818" points="717.5,93.24,727.5,97.24,717.5,101.24,721.5,97.24" style="stroke:#181818;stroke-width:1.0;"/><line style="stroke:#181818;stroke-width:1.0;" x1="32" x2="723.5" y1="97.24" y2="97.24"/><rect fill="#E2E2F0" height="30.24" rx="2.5" ry="2.5" style="stroke:#181818;stroke-width:0.5;" width="56" x="729.5" y="91.24"/><text fill="#000000" font-family="D2Coding" font-size="14" lengthAdjust="spacing" textLength="42" x="736.5" y="111.26">OpenAI</text><polygon fill="#181818" points="783.5,134.48,793.5,138.48,783.5,142.48,787.5,138.48" style="stroke:#181818;stroke-width:1.0;"/><line style="stroke:#181818;stroke-width:1.0;" x1="32" x2="789.5" y1="138.48" y2="138.48"/><rect fill="#E2E2F0" height="30.24" rx="2.5" ry="2.5" style="stroke:#181818;stroke-width:0.5;" width="140" x="795.5" y="132.48"/><text fill="#000000" font-family="D2Coding" font-size="14" lengthAdjust="spacing" textLength="126" x="802.5" y="152.5">GoogleCustomSearch</text><polygon fill="#181818" points="933.5,175.72,943.5,179.72,933.5,183.72,937.5,179.72" style="stroke:#181818;stroke-width:1.0;"/><line style="stroke:#181818;stroke-width:1.0;" x1="32" x2="939.5" y1="179.72" y2="179.72"/><rect fill="#E2E2F0" height="30.24" rx="2.5" ry="2.5" style="stroke:#181818;stroke-width:0.5;" width="84" x="945.5" y="173.72"/><text fill="#000000" font-family="D2Coding" font-size="14" lengthAdjust="spacing" textLength="70" x="952.5" y="193.74">Calculator</text><polygon fill="#181818" points="282,232.04,292,236.04,282,240.04,286,236.04" style="stroke:#181818;stroke-width:1.0;"/><line style="stroke:#181818;stroke-width:1.0;" x1="32" x2="288" y1="236.04" y2="236.04"/><text fill="#000000" font-family="D2Coding" font-size="13" lengthAdjust="spacing" textLength="238" x="39" y="231.05">initializeAgentExecutorWithOptions</text><rect fill="#E2E2F0" height="30.24" rx="2.5" ry="2.5" style="stroke:#181818;stroke-width:0.5;" width="105" x="294" y="214.96"/><text fill="#000000" font-family="D2Coding" font-size="14" lengthAdjust="spacing" textLength="91" x="301" y="234.98">AgentExecutor</text><line style="stroke:#181818;stroke-width:1.0;" x1="351.5" x2="398.5" y1="272.28" y2="272.28"/><line style="stroke:#181818;stroke-width:1.0;" x1="398.5" x2="398.5" y1="272.28" y2="285.28"/><line style="stroke:#181818;stroke-width:1.0;" x1="357.5" x2="398.5" y1="285.28" y2="285.28"/><polygon fill="#181818" points="367.5,281.28,357.5,285.28,367.5,289.28,363.5,285.28" style="stroke:#181818;stroke-width:1.0;"/><text fill="#000000" font-family="D2Coding" font-size="13" lengthAdjust="spacing" textLength="119" x="363.5" y="267.29">fromAgentAndTools</text><polygon fill="#181818" points="473.5,315.36,483.5,319.36,473.5,323.36,477.5,319.36" style="stroke:#181818;stroke-width:1.0;"/><line style="stroke:#181818;stroke-width:1.0;" x1="356.5" x2="479.5" y1="319.36" y2="319.36"/><text fill="#000000" font-family="D2Coding" font-size="13" lengthAdjust="spacing" textLength="105" x="363.5" y="314.37">fromLLMAndTools</text><rect fill="#E2E2F0" height="30.24" rx="2.5" ry="2.5" style="stroke:#181818;stroke-width:0.5;" width="105" x="485.5" y="298.28"/><text fill="#000000" font-family="D2Coding" font-size="14" lengthAdjust="spacing" textLength="91" x="492.5" y="318.3">ZeroShotAgent</text><polygon fill="#181818" points="588.5,341.52,598.5,345.52,588.5,349.52,592.5,345.52" style="stroke:#181818;stroke-width:1.0;"/><line style="stroke:#181818;stroke-width:1.0;" x1="543" x2="594.5" y1="345.52" y2="345.52"/><rect fill="#E2E2F0" height="30.24" rx="2.5" ry="2.5" style="stroke:#181818;stroke-width:0.5;" width="70" x="600.5" y="339.52"/><text fill="#000000" font-family="D2Coding" font-size="14" lengthAdjust="spacing" textLength="56" x="607.5" y="359.54">LLMChain</text><polygon fill="#181818" points="362.5,382.76,352.5,386.76,362.5,390.76,358.5,386.76" style="stroke:#181818;stroke-width:1.0;"/><line style="stroke:#181818;stroke-width:1.0;stroke-dasharray:2.0,2.0;" x1="356.5" x2="537" y1="386.76" y2="386.76"/><polygon fill="#181818" points="43,396.76,33,400.76,43,404.76,39,400.76" style="stroke:#181818;stroke-width:1.0;"/><line style="stroke:#181818;stroke-width:1.0;stroke-dasharray:2.0,2.0;" x1="37" x2="345.5" y1="400.76" y2="400.76"/><polygon fill="#181818" points="329.5,425.84,339.5,429.84,329.5,433.84,333.5,429.84" style="stroke:#181818;stroke-width:1.0;"/><line style="stroke:#181818;stroke-width:1.0;" x1="32" x2="335.5" y1="429.84" y2="429.84"/><text fill="#000000" font-family="D2Coding" font-size="13" lengthAdjust="spacing" textLength="98" x="39" y="424.85">BaseChain:call</text><line style="stroke:#181818;stroke-width:1.0;" x1="351.5" x2="398.5" y1="453.92" y2="453.92"/><line style="stroke:#181818;stroke-width:1.0;" x1="398.5" x2="398.5" y1="453.92" y2="466.92"/><line style="stroke:#181818;stroke-width:1.0;" x1="357.5" x2="398.5" y1="466.92" y2="466.92"/><polygon fill="#181818" points="367.5,462.92,357.5,466.92,367.5,470.92,363.5,466.92" style="stroke:#181818;stroke-width:1.0;"/><text fill="#000000" font-family="D2Coding" font-size="13" lengthAdjust="spacing" textLength="35" x="363.5" y="448.93">_call</text><polygon fill="#181818" points="521,497,531,501,521,505,525,501" style="stroke:#181818;stroke-width:1.0;"/><line style="stroke:#181818;stroke-width:1.0;" x1="356.5" x2="527" y1="501" y2="501"/><text fill="#000000" font-family="D2Coding" font-size="13" lengthAdjust="spacing" textLength="70" x="363.5" y="496.01">Agent:plan</text><polygon fill="#181818" points="623.5,526.08,633.5,530.08,623.5,534.08,627.5,530.08" style="stroke:#181818;stroke-width:1.0;"/><line style="stroke:#181818;stroke-width:1.0;" x1="543" x2="629.5" y1="530.08" y2="530.08"/><text fill="#000000" font-family="D2Coding" font-size="13" lengthAdjust="spacing" textLength="49" x="550" y="525.09">predict</text><polygon fill="#181818" points="740.5,555.16,750.5,559.16,740.5,563.16,744.5,559.16" style="stroke:#181818;stroke-width:1.0;"/><line style="stroke:#181818;stroke-width:1.0;" x1="635.5" x2="746.5" y1="559.16" y2="559.16"/><text fill="#000000" font-family="D2Coding" font-size="13" lengthAdjust="spacing" textLength="98" x="642.5" y="554.17">generatePrompt</text><path d="M5,572.16 L5,913.16 L1014,913.16 L1014,582.16 L1004,572.16 L5,572.16 " fill="#FEFFDD" style="stroke:#181818;stroke-width:0.5;"/><path d="M1004,572.16 L1004,582.16 L1014,582.16 L1004,572.16 " fill="#FEFFDD" style="stroke:#181818;stroke-width:0.5;"/><text fill="#000000" font-family="D2Coding" font-size="13" lengthAdjust="spacing" textLength="609" x="57.25" y="589.25">Answer the following questions as best you can. You have access to the following tools:</text><text fill="#000000" font-family="D2Coding" font-size="13" lengthAdjust="spacing" textLength="7" x="57.25" y="604.33"> </text><text fill="#000000" font-family="D2Coding" font-size="13" lengthAdjust="spacing" textLength="896" x="57.25" y="619.41">google-custom-search: a custom search engine. useful for when you need to answer questions about current events. input should be</text><text fill="#000000" font-family="D2Coding" font-size="13" lengthAdjust="spacing" textLength="336" x="57.25" y="634.49">a search query. outputs a JSON array of results.</text><text fill="#000000" font-family="D2Coding" font-size="13" lengthAdjust="spacing" textLength="896" x="57.25" y="649.57">calculator: Useful for getting the result of a math expression. The input to this tool should be a valid mathematical expression</text><text fill="#000000" font-family="D2Coding" font-size="13" lengthAdjust="spacing" textLength="322" x="57.25" y="664.65">that could be executed by a simple calculator.</text><text fill="#000000" font-family="D2Coding" font-size="13" lengthAdjust="spacing" textLength="7" x="57.25" y="679.73"> </text><text fill="#000000" font-family="D2Coding" font-size="13" lengthAdjust="spacing" textLength="294" x="57.25" y="694.81">Use the following format in your response:</text><text fill="#000000" font-family="D2Coding" font-size="13" lengthAdjust="spacing" textLength="7" x="57.25" y="709.89"> </text><text fill="#000000" font-family="D2Coding" font-size="13" lengthAdjust="spacing" textLength="308" x="57.25" y="724.97">Question: the input question you must answer</text><text fill="#000000" font-family="D2Coding" font-size="13" lengthAdjust="spacing" textLength="343" x="57.25" y="740.05">Thought: you should always think about what to do</text><text fill="#000000" font-family="D2Coding" font-size="13" lengthAdjust="spacing" textLength="546" x="57.25" y="755.13">Action: the action to take, should be one of [google-custom-search,calculator]</text><text fill="#000000" font-family="D2Coding" font-size="13" lengthAdjust="spacing" textLength="259" x="57.25" y="770.21">Action Input: the input to the action</text><text fill="#000000" font-family="D2Coding" font-size="13" lengthAdjust="spacing" textLength="259" x="57.25" y="785.29">Observation: the result of the action</text><text fill="#000000" font-family="D2Coding" font-size="13" lengthAdjust="spacing" textLength="483" x="57.25" y="800.37">... (this Thought/Action/Action Input/Observation can repeat N times)</text><text fill="#000000" font-family="D2Coding" font-size="13" lengthAdjust="spacing" textLength="252" x="57.25" y="815.45">Thought: I now know the final answer</text><text fill="#000000" font-family="D2Coding" font-size="13" lengthAdjust="spacing" textLength="427" x="57.25" y="830.53">Final Answer: the final answer to the original input question</text><text fill="#000000" font-family="D2Coding" font-size="13" lengthAdjust="spacing" textLength="7" x="57.25" y="845.61"> </text><text fill="#000000" font-family="D2Coding" font-size="13" lengthAdjust="spacing" textLength="42" x="57.25" y="860.69">Begin!</text><text fill="#000000" font-family="D2Coding" font-size="13" lengthAdjust="spacing" textLength="7" x="57.25" y="875.77"> </text><text fill="#000000" font-family="D2Coding" font-size="13" lengthAdjust="spacing" textLength="644" x="57.25" y="890.85">Question: Who is Olivia Wilde's boyfriend? What is his current age raised to the 0.23 power?</text><text fill="#000000" font-family="D2Coding" font-size="13" lengthAdjust="spacing" textLength="56" x="57.25" y="905.93">Thought:</text><polygon fill="#181818" points="646.5,920.92,636.5,924.92,646.5,928.92,642.5,924.92" style="stroke:#181818;stroke-width:1.0;"/><line style="stroke:#181818;stroke-width:1.0;stroke-dasharray:2.0,2.0;" x1="640.5" x2="756.5" y1="924.92" y2="924.92"/><path d="M5,937.92 L5,1007.92 L1014,1007.92 L1014,947.92 L1004,937.92 L5,937.92 " fill="#FEFFDD" style="stroke:#181818;stroke-width:0.5;"/><path d="M1004,937.92 L1004,947.92 L1014,947.92 L1004,937.92 " fill="#FEFFDD" style="stroke:#181818;stroke-width:0.5;"/><text fill="#000000" font-family="D2Coding" font-size="13" lengthAdjust="spacing" textLength="889" x="57.25" y="955.01">I should use google-custom-search to find out who Olivia Wilde's boyfriend is, and then use the calculator to calculate his age</text><text fill="#000000" font-family="D2Coding" font-size="13" lengthAdjust="spacing" textLength="175" x="57.25" y="970.09">raised to the 0.23 power.</text><text fill="#000000" font-family="D2Coding" font-size="13" lengthAdjust="spacing" textLength="196" x="57.25" y="985.17">Action: google-custom-search</text><text fill="#000000" font-family="D2Coding" font-size="13" lengthAdjust="spacing" textLength="266" x="57.25" y="1000.25">Action Input: "Olivia Wilde boyfriend"</text><polygon fill="#181818" points="367.5,1015.24,357.5,1019.24,367.5,1023.24,363.5,1019.24" style="stroke:#181818;stroke-width:1.0;"/><line style="stroke:#181818;stroke-width:1.0;stroke-dasharray:2.0,2.0;" x1="361.5" x2="537" y1="1019.24" y2="1019.24"/><polygon fill="#181818" points="848.5,1044.32,858.5,1048.32,848.5,1052.32,852.5,1048.32" style="stroke:#181818;stroke-width:1.0;"/><line style="stroke:#181818;stroke-width:1.0;" x1="356.5" x2="854.5" y1="1048.32" y2="1048.32"/><text fill="#000000" font-family="D2Coding" font-size="13" lengthAdjust="spacing" textLength="210" x="363.5" y="1043.33">call('Olivia Wilde boyfriend')</text><polygon fill="#181818" points="367.5,1073.4,357.5,1077.4,367.5,1081.4,363.5,1077.4" style="stroke:#181818;stroke-width:1.0;"/><line style="stroke:#181818;stroke-width:1.0;stroke-dasharray:2.0,2.0;" x1="361.5" x2="864.5" y1="1077.4" y2="1077.4"/><text fill="#000000" font-family="D2Coding" font-size="13" lengthAdjust="spacing" textLength="154" x="373.5" y="1072.41">google search response</text><polygon fill="#181818" points="740.5,1102.48,750.5,1106.48,740.5,1110.48,744.5,1106.48" style="stroke:#181818;stroke-width:1.0;"/><line style="stroke:#181818;stroke-width:1.0;" x1="356.5" x2="746.5" y1="1106.48" y2="1106.48"/><text fill="#000000" font-family="D2Coding" font-size="13" lengthAdjust="spacing" textLength="98" x="363.5" y="1101.49">generatePrompt</text><path d="M5,1119.48 L5,1536.48 L1014,1536.48 L1014,1129.48 L1004,1119.48 L5,1119.48 " fill="#FEFFDD" style="stroke:#181818;stroke-width:0.5;"/><path d="M1004,1119.48 L1004,1129.48 L1014,1129.48 L1004,1119.48 " fill="#FEFFDD" style="stroke:#181818;stroke-width:0.5;"/><text fill="#000000" font-family="D2Coding" font-size="13" lengthAdjust="spacing" textLength="609" x="57.25" y="1136.57">Answer the following questions as best you can. You have access to the following tools:</text><text fill="#000000" font-family="D2Coding" font-size="13" lengthAdjust="spacing" textLength="7" x="57.25" y="1151.65"> </text><text fill="#000000" font-family="D2Coding" font-size="13" lengthAdjust="spacing" textLength="896" x="57.25" y="1166.73">google-custom-search: a custom search engine. useful for when you need to answer questions about current events. input should be</text><text fill="#000000" font-family="D2Coding" font-size="13" lengthAdjust="spacing" textLength="336" x="57.25" y="1181.81">a search query. outputs a JSON array of results.</text><text fill="#000000" font-family="D2Coding" font-size="13" lengthAdjust="spacing" textLength="896" x="57.25" y="1196.89">calculator: Useful for getting the result of a math expression. The input to this tool should be a valid mathematical expression</text><text fill="#000000" font-family="D2Coding" font-size="13" lengthAdjust="spacing" textLength="322" x="57.25" y="1211.97">that could be executed by a simple calculator.</text><text fill="#000000" font-family="D2Coding" font-size="13" lengthAdjust="spacing" textLength="7" x="57.25" y="1227.05"> </text><text fill="#000000" font-family="D2Coding" font-size="13" lengthAdjust="spacing" textLength="294" x="57.25" y="1242.13">Use the following format in your response:</text><text fill="#000000" font-family="D2Coding" font-size="13" lengthAdjust="spacing" textLength="7" x="57.25" y="1257.21"> </text><text fill="#000000" font-family="D2Coding" font-size="13" lengthAdjust="spacing" textLength="308" x="57.25" y="1272.29">Question: the input question you must answer</text><text fill="#000000" font-family="D2Coding" font-size="13" lengthAdjust="spacing" textLength="343" x="57.25" y="1287.37">Thought: you should always think about what to do</text><text fill="#000000" font-family="D2Coding" font-size="13" lengthAdjust="spacing" textLength="546" x="57.25" y="1302.45">Action: the action to take, should be one of [google-custom-search,calculator]</text><text fill="#000000" font-family="D2Coding" font-size="13" lengthAdjust="spacing" textLength="259" x="57.25" y="1317.53">Action Input: the input to the action</text><text fill="#000000" font-family="D2Coding" font-size="13" lengthAdjust="spacing" textLength="259" x="57.25" y="1332.61">Observation: the result of the action</text><text fill="#000000" font-family="D2Coding" font-size="13" lengthAdjust="spacing" textLength="483" x="57.25" y="1347.69">... (this Thought/Action/Action Input/Observation can repeat N times)</text><text fill="#000000" font-family="D2Coding" font-size="13" lengthAdjust="spacing" textLength="252" x="57.25" y="1362.77">Thought: I now know the final answer</text><text fill="#000000" font-family="D2Coding" font-size="13" lengthAdjust="spacing" textLength="427" x="57.25" y="1377.85">Final Answer: the final answer to the original input question</text><text fill="#000000" font-family="D2Coding" font-size="13" lengthAdjust="spacing" textLength="7" x="57.25" y="1392.93"> </text><text fill="#000000" font-family="D2Coding" font-size="13" lengthAdjust="spacing" textLength="42" x="57.25" y="1408.01">Begin!</text><text fill="#000000" font-family="D2Coding" font-size="13" lengthAdjust="spacing" textLength="7" x="57.25" y="1423.09"> </text><text fill="#000000" font-family="D2Coding" font-size="13" lengthAdjust="spacing" textLength="644" x="57.25" y="1438.17">Question: Who is Olivia Wilde's boyfriend? What is his current age raised to the 0.23 power?</text><text fill="#000000" font-family="D2Coding" font-size="13" lengthAdjust="spacing" textLength="896" x="57.25" y="1453.25">Thought: I should use google-custom-search to find out who Olivia Wilde's boyfriend is, and then use the calculator to calculate</text><text fill="#000000" font-family="D2Coding" font-size="13" lengthAdjust="spacing" textLength="231" x="57.25" y="1468.33">his age raised to the 0.23 power.</text><text fill="#000000" font-family="D2Coding" font-size="13" lengthAdjust="spacing" textLength="196" x="57.25" y="1483.41">Action: google-custom-search</text><text fill="#000000" font-family="D2Coding" font-size="13" lengthAdjust="spacing" textLength="266" x="57.25" y="1498.49">Action Input: "Olivia Wilde boyfriend"</text><text fill="#000000" font-family="D2Coding" font-size="13" lengthAdjust="spacing" textLength="287" x="57.25" y="1513.57">Observation: {{ google search response }}</text><text fill="#000000" font-family="D2Coding" font-size="13" lengthAdjust="spacing" textLength="56" x="57.25" y="1528.65">Thought:</text><polygon fill="#181818" points="367.5,1543.64,357.5,1547.64,367.5,1551.64,363.5,1547.64" style="stroke:#181818;stroke-width:1.0;"/><line style="stroke:#181818;stroke-width:1.0;stroke-dasharray:2.0,2.0;" x1="361.5" x2="756.5" y1="1547.64" y2="1547.64"/><path d="M5,1560.64 L5,1615.64 L1014,1615.64 L1014,1570.64 L1004,1560.64 L5,1560.64 " fill="#FEFFDD" style="stroke:#181818;stroke-width:0.5;"/><path d="M1004,1560.64 L1004,1570.64 L1014,1570.64 L1004,1560.64 " fill="#FEFFDD" style="stroke:#181818;stroke-width:0.5;"/><text fill="#000000" font-family="D2Coding" font-size="13" lengthAdjust="spacing" textLength="294" x="358.25" y="1577.73">Olivia Wilde's boyfriend is Jason Sudeikis</text><text fill="#000000" font-family="D2Coding" font-size="13" lengthAdjust="spacing" textLength="126" x="358.25" y="1592.81">Action: calculator</text><text fill="#000000" font-family="D2Coding" font-size="13" lengthAdjust="spacing" textLength="147" x="358.25" y="1607.89">Action Input: 36^0.23</text><polygon fill="#181818" points="970.5,1637.96,980.5,1641.96,970.5,1645.96,974.5,1641.96" style="stroke:#181818;stroke-width:1.0;"/><line style="stroke:#181818;stroke-width:1.0;" x1="356.5" x2="976.5" y1="1641.96" y2="1641.96"/><text fill="#000000" font-family="D2Coding" font-size="13" lengthAdjust="spacing" textLength="105" x="363.5" y="1636.97">call('36^0.23')</text><polygon fill="#181818" points="367.5,1651.96,357.5,1655.96,367.5,1659.96,363.5,1655.96" style="stroke:#181818;stroke-width:1.0;"/><line style="stroke:#181818;stroke-width:1.0;stroke-dasharray:2.0,2.0;" x1="361.5" x2="986.5" y1="1655.96" y2="1655.96"/><polygon fill="#181818" points="740.5,1665.96,750.5,1669.96,740.5,1673.96,744.5,1669.96" style="stroke:#181818;stroke-width:1.0;"/><line style="stroke:#181818;stroke-width:1.0;" x1="356.5" x2="746.5" y1="1669.96" y2="1669.96"/><path d="M5,1682.96 L5,2174.96 L1014,2174.96 L1014,1692.96 L1004,1682.96 L5,1682.96 " fill="#FEFFDD" style="stroke:#181818;stroke-width:0.5;"/><path d="M1004,1682.96 L1004,1692.96 L1014,1692.96 L1004,1682.96 " fill="#FEFFDD" style="stroke:#181818;stroke-width:0.5;"/><text fill="#000000" font-family="D2Coding" font-size="13" lengthAdjust="spacing" textLength="609" x="57.25" y="1700.05">Answer the following questions as best you can. You have access to the following tools:</text><text fill="#000000" font-family="D2Coding" font-size="13" lengthAdjust="spacing" textLength="7" x="57.25" y="1715.13"> </text><text fill="#000000" font-family="D2Coding" font-size="13" lengthAdjust="spacing" textLength="896" x="57.25" y="1730.21">google-custom-search: a custom search engine. useful for when you need to answer questions about current events. input should be</text><text fill="#000000" font-family="D2Coding" font-size="13" lengthAdjust="spacing" textLength="336" x="57.25" y="1745.29">a search query. outputs a JSON array of results.</text><text fill="#000000" font-family="D2Coding" font-size="13" lengthAdjust="spacing" textLength="896" x="57.25" y="1760.37">calculator: Useful for getting the result of a math expression. The input to this tool should be a valid mathematical expression</text><text fill="#000000" font-family="D2Coding" font-size="13" lengthAdjust="spacing" textLength="322" x="57.25" y="1775.45">that could be executed by a simple calculator.</text><text fill="#000000" font-family="D2Coding" font-size="13" lengthAdjust="spacing" textLength="7" x="57.25" y="1790.53"> </text><text fill="#000000" font-family="D2Coding" font-size="13" lengthAdjust="spacing" textLength="294" x="57.25" y="1805.61">Use the following format in your response:</text><text fill="#000000" font-family="D2Coding" font-size="13" lengthAdjust="spacing" textLength="7" x="57.25" y="1820.69"> </text><text fill="#000000" font-family="D2Coding" font-size="13" lengthAdjust="spacing" textLength="308" x="57.25" y="1835.77">Question: the input question you must answer</text><text fill="#000000" font-family="D2Coding" font-size="13" lengthAdjust="spacing" textLength="343" x="57.25" y="1850.85">Thought: you should always think about what to do</text><text fill="#000000" font-family="D2Coding" font-size="13" lengthAdjust="spacing" textLength="546" x="57.25" y="1865.93">Action: the action to take, should be one of [google-custom-search,calculator]</text><text fill="#000000" font-family="D2Coding" font-size="13" lengthAdjust="spacing" textLength="259" x="57.25" y="1881.01">Action Input: the input to the action</text><text fill="#000000" font-family="D2Coding" font-size="13" lengthAdjust="spacing" textLength="259" x="57.25" y="1896.09">Observation: the result of the action</text><text fill="#000000" font-family="D2Coding" font-size="13" lengthAdjust="spacing" textLength="483" x="57.25" y="1911.17">... (this Thought/Action/Action Input/Observation can repeat N times)</text><text fill="#000000" font-family="D2Coding" font-size="13" lengthAdjust="spacing" textLength="252" x="57.25" y="1926.25">Thought: I now know the final answer</text><text fill="#000000" font-family="D2Coding" font-size="13" lengthAdjust="spacing" textLength="427" x="57.25" y="1941.33">Final Answer: the final answer to the original input question</text><text fill="#000000" font-family="D2Coding" font-size="13" lengthAdjust="spacing" textLength="7" x="57.25" y="1956.41"> </text><text fill="#000000" font-family="D2Coding" font-size="13" lengthAdjust="spacing" textLength="42" x="57.25" y="1971.49">Begin!</text><text fill="#000000" font-family="D2Coding" font-size="13" lengthAdjust="spacing" textLength="7" x="57.25" y="1986.57"> </text><text fill="#000000" font-family="D2Coding" font-size="13" lengthAdjust="spacing" textLength="644" x="57.25" y="2001.65">Question: Who is Olivia Wilde's boyfriend? What is his current age raised to the 0.23 power?</text><text fill="#000000" font-family="D2Coding" font-size="13" lengthAdjust="spacing" textLength="896" x="57.25" y="2016.73">Thought: I should use google-custom-search to find out who Olivia Wilde's boyfriend is, and then use the calculator to calculate</text><text fill="#000000" font-family="D2Coding" font-size="13" lengthAdjust="spacing" textLength="231" x="57.25" y="2031.81">his age raised to the 0.23 power.</text><text fill="#000000" font-family="D2Coding" font-size="13" lengthAdjust="spacing" textLength="196" x="57.25" y="2046.89">Action: google-custom-search</text><text fill="#000000" font-family="D2Coding" font-size="13" lengthAdjust="spacing" textLength="266" x="57.25" y="2061.97">Action Input: "Olivia Wilde boyfriend"</text><text fill="#000000" font-family="D2Coding" font-size="13" lengthAdjust="spacing" textLength="315" x="57.25" y="2077.05">Observation: {{ google search api response }}</text><text fill="#000000" font-family="D2Coding" font-size="13" lengthAdjust="spacing" textLength="357" x="57.25" y="2092.13">Thought: Olivia Wilde's boyfriend is Jason Sudeikis</text><text fill="#000000" font-family="D2Coding" font-size="13" lengthAdjust="spacing" textLength="126" x="57.25" y="2107.21">Action: calculator</text><text fill="#000000" font-family="D2Coding" font-size="13" lengthAdjust="spacing" textLength="147" x="57.25" y="2122.29">Action Input: 36^0.23</text><text fill="#000000" font-family="D2Coding" font-size="13" lengthAdjust="spacing" textLength="217" x="57.25" y="2137.37">Observation: 2.2800773226742175</text><text fill="#000000" font-family="D2Coding" font-size="13" lengthAdjust="spacing" textLength="56" x="57.25" y="2152.45">Thought:</text><text fill="#000000" font-family="D2Coding" font-size="13" lengthAdjust="spacing" textLength="7" x="57.25" y="2167.53"> </text><polygon fill="#181818" points="367.5,2182.52,357.5,2186.52,367.5,2190.52,363.5,2186.52" style="stroke:#181818;stroke-width:1.0;"/><line style="stroke:#181818;stroke-width:1.0;stroke-dasharray:2.0,2.0;" x1="361.5" x2="756.5" y1="2186.52" y2="2186.52"/><path d="M5,2199.52 L5,2239.52 L1014,2239.52 L1014,2209.52 L1004,2199.52 L5,2199.52 " fill="#FEFFDD" style="stroke:#181818;stroke-width:0.5;"/><path d="M1004,2199.52 L1004,2209.52 L1014,2209.52 L1004,2199.52 " fill="#FEFFDD" style="stroke:#181818;stroke-width:0.5;"/><text fill="#000000" font-family="D2Coding" font-size="13" lengthAdjust="spacing" textLength="189" x="71.25" y="2216.61">I now know the final answer</text><text fill="#000000" font-family="D2Coding" font-size="13" lengthAdjust="spacing" textLength="868" x="71.25" y="2231.69">Final Answer: Olivia Wilde's boyfriend is Jason Sudeikis and his current age raised to the 0.23 power is 2.2800773226742175.</text><!--MD5=[43e43eb8e55c3cced5f11709f66ff9a2]
--></g></svg>
