<svg viewBox="0,0,1152,500" xmlns="http://www.w3.org/2000/svg" xmlns:xlink="http://www.w3.org/1999/xlink"><g fill="steelblue"><rect x="41" width="30.200000000000017" y="461.3461538461538" height="8.653846153846189"/><rect x="72.20000000000002" width="30.200000000000045" y="466.53846153846155" height="3.461538461538453"/><rect x="103.40000000000006" width="30.19999999999996" y="444.0384615384615" height="25.96153846153851"/><rect x="134.60000000000002" width="30.200000000000045" y="459.6153846153846" height="10.384615384615415"/><rect x="165.80000000000007" width="30.199999999999932" y="445.7692307692308" height="24.230769230769226"/><rect x="197" width="30.200000000000017" y="431.9230769230769" height="38.076923076923094"/><rect x="228.20000000000002" width="30.19999999999996" y="386.9230769230769" height="83.0769230769231"/><rect x="259.4" width="30.200000000000045" y="386.9230769230769" height="83.0769230769231"/><rect x="290.6" width="30.200000000000045" y="310.7692307692308" height="159.23076923076923"/><rect x="321.80000000000007" width="30.199999999999875" y="305.5769230769231" height="164.4230769230769"/><rect x="352.99999999999994" width="30.200000000000102" y="246.73076923076923" height="223.26923076923077"/><rect x="384.20000000000005" width="30.19999999999999" y="151.53846153846152" height="318.46153846153845"/><rect x="415.40000000000003" width="30.19999999999999" y="161.9230769230769" height="308.0769230769231"/><rect x="446.6" width="30.19999999999999" y="142.88461538461542" height="327.1153846153846"/><rect x="477.8" width="30.199999999999932" y="44.23076923076924" height="425.7692307692308"/><rect x="508.99999999999994" width="30.200000000000102" y="68.46153846153844" height="401.53846153846155"/><rect x="540.2" width="30.200000000000045" y="90.96153846153845" height="379.03846153846155"/><rect x="571.4000000000001" width="30.200000000000045" y="73.65384615384616" height="396.3461538461538"/><rect x="602.6000000000001" width="30.200000000000045" y="66.73076923076921" height="403.2692307692308"/><rect x="633.8000000000002" width="30.199999999999704" y="125.57692307692311" height="344.4230769230769"/><rect x="664.9999999999999" width="30.200000000000045" y="212.1153846153846" height="257.88461538461536"/><rect x="696.1999999999999" width="30.20000000000016" y="264.03846153846155" height="205.96153846153845"/><rect x="727.4000000000001" width="30.199999999999818" y="309.0384615384615" height="160.9615384615385"/><rect x="758.5999999999999" width="30.20000000000016" y="326.3461538461538" height="143.6538461538462"/><rect x="789.8000000000001" width="30.199999999999932" y="359.2307692307692" height="110.76923076923077"/><rect x="821" width="30.200000000000045" y="402.5" height="67.5"/><rect x="852.2" width="30.199999999999932" y="433.65384615384613" height="36.34615384615387"/><rect x="883.4" width="30.199999999999932" y="433.65384615384613" height="36.34615384615387"/><rect x="914.5999999999999" width="30.20000000000016" y="461.3461538461538" height="8.653846153846189"/><rect x="945.8000000000001" width="30.199999999999818" y="452.69230769230774" height="17.307692307692264"/><rect x="976.9999999999999" width="30.20000000000016" y="461.3461538461538" height="8.653846153846189"/><rect x="1008.2" width="30.200000000000045" y="464.8076923076923" height="5.192307692307679"/><rect x="1039.4" width="30.199999999999818" y="470" height="0"/><rect x="1070.6" width="30.200000000000273" y="468.2692307692308" height="1.7307692307692264"/><rect x="1101.8000000000002" width="30.199999999999818" y="466.53846153846155" height="3.461538461538453"/></g><g transform="translate(0,470)" fill="none" font-size="10" font-family="sans-serif" text-anchor="middle"><path class="domain" stroke="currentColor" d="M40,0H1132"/><g class="tick" opacity="1" transform="translate(71.20000000000002,0)"><line stroke="currentColor" y2="6"/><text fill="currentColor" y="9" dy="0.71em">−3.0</text></g><g class="tick" opacity="1" transform="translate(149.20000000000002,0)"><line stroke="currentColor" y2="6"/><text fill="currentColor" y="9" dy="0.71em">−2.5</text></g><g class="tick" opacity="1" transform="translate(227.20000000000002,0)"><line stroke="currentColor" y2="6"/><text fill="currentColor" y="9" dy="0.71em">−2.0</text></g><g class="tick" opacity="1" transform="translate(305.20000000000005,0)"><line stroke="currentColor" y2="6"/><text fill="currentColor" y="9" dy="0.71em">−1.5</text></g><g class="tick" opacity="1" transform="translate(383.20000000000005,0)"><line stroke="currentColor" y2="6"/><text fill="currentColor" y="9" dy="0.71em">−1.0</text></g><g class="tick" opacity="1" transform="translate(461.2,0)"><line stroke="currentColor" y2="6"/><text fill="currentColor" y="9" dy="0.71em">−0.5</text></g><g class="tick" opacity="1" transform="translate(539.2,0)"><line stroke="currentColor" y2="6"/><text fill="currentColor" y="9" dy="0.71em">0.0</text></g><g class="tick" opacity="1" transform="translate(617.2,0)"><line stroke="currentColor" y2="6"/><text fill="currentColor" y="9" dy="0.71em">0.5</text></g><g class="tick" opacity="1" transform="translate(695.1999999999999,0)"><line stroke="currentColor" y2="6"/><text fill="currentColor" y="9" dy="0.71em">1.0</text></g><g class="tick" opacity="1" transform="translate(773.2,0)"><line stroke="currentColor" y2="6"/><text fill="currentColor" y="9" dy="0.71em">1.5</text></g><g class="tick" opacity="1" transform="translate(851.2,0)"><line stroke="currentColor" y2="6"/><text fill="currentColor" y="9" dy="0.71em">2.0</text></g><g class="tick" opacity="1" transform="translate(929.2,0)"><line stroke="currentColor" y2="6"/><text fill="currentColor" y="9" dy="0.71em">2.5</text></g><g class="tick" opacity="1" transform="translate(1007.2,0)"><line stroke="currentColor" y2="6"/><text fill="currentColor" y="9" dy="0.71em">3.0</text></g><g class="tick" opacity="1" transform="translate(1085.2,0)"><line stroke="currentColor" y2="6"/><text fill="currentColor" y="9" dy="0.71em">3.5</text></g><text x="1132" y="-4" fill="currentColor" font-weight="bold" text-anchor="end"/></g><g transform="translate(40,0)" fill="none" font-size="10" font-family="sans-serif" text-anchor="end"><g class="tick" opacity="1" transform="translate(0,470)"><line stroke="currentColor" x2="-6"/><text fill="currentColor" x="-9" dy="0.32em">0</text></g><g class="tick" opacity="1" transform="translate(0,435.3846153846154)"><line stroke="currentColor" x2="-6"/><text fill="currentColor" x="-9" dy="0.32em">20</text></g><g class="tick" opacity="1" transform="translate(0,400.7692307692308)"><line stroke="currentColor" x2="-6"/><text fill="currentColor" x="-9" dy="0.32em">40</text></g><g class="tick" opacity="1" transform="translate(0,366.15384615384613)"><line stroke="currentColor" x2="-6"/><text fill="currentColor" x="-9" dy="0.32em">60</text></g><g class="tick" opacity="1" transform="translate(0,331.5384615384615)"><line stroke="currentColor" x2="-6"/><text fill="currentColor" x="-9" dy="0.32em">80</text></g><g class="tick" opacity="1" transform="translate(0,296.9230769230769)"><line stroke="currentColor" x2="-6"/><text fill="currentColor" x="-9" dy="0.32em">100</text></g><g class="tick" opacity="1" transform="translate(0,262.3076923076923)"><line stroke="currentColor" x2="-6"/><text fill="currentColor" x="-9" dy="0.32em">120</text></g><g class="tick" opacity="1" transform="translate(0,227.6923076923077)"><line stroke="currentColor" x2="-6"/><text fill="currentColor" x="-9" dy="0.32em">140</text></g><g class="tick" opacity="1" transform="translate(0,193.07692307692307)"><line stroke="currentColor" x2="-6"/><text fill="currentColor" x="-9" dy="0.32em">160</text></g><g class="tick" opacity="1" transform="translate(0,158.46153846153845)"><line stroke="currentColor" x2="-6"/><text fill="currentColor" x="-9" dy="0.32em">180</text></g><g class="tick" opacity="1" transform="translate(0,123.84615384615383)"><line stroke="currentColor" x2="-6"/><text fill="currentColor" x="-9" dy="0.32em">200</text></g><g class="tick" opacity="1" transform="translate(0,89.23076923076923)"><line stroke="currentColor" x2="-6"/><text fill="currentColor" x="-9" dy="0.32em">220</text></g><g class="tick" opacity="1" transform="translate(0,54.6153846153846)"><line stroke="currentColor" x2="-6"/><text fill="currentColor" x="-9" dy="0.32em">240</text></g><g class="tick" opacity="1" transform="translate(0,20)"><line stroke="currentColor" x2="-6"/><text fill="currentColor" x="-9" dy="0.32em">260</text><text fill="currentColor" x="4" dy="0.32em" text-anchor="start" font-weight="bold"/></g></g></svg>