<?xml version="1.0" encoding="UTF-8" standalone="no"?><svg xmlns="http://www.w3.org/2000/svg" xmlns:xlink="http://www.w3.org/1999/xlink" contentStyleType="text/css" height="647px" preserveAspectRatio="none" style="width:1411px;height:647px;background:#FFFFFF;" version="1.1" viewBox="0 0 1411 647" width="1411px" zoomAndPan="magnify"><defs/><g><rect fill="#DDDDDD" height="635.6" style="stroke:#181818;stroke-width:0.5;" width="298" x="157" y="6"/><text fill="#000000" font-family="D2Coding" font-size="13" font-weight="bold" lengthAdjust="spacing" textLength="14" x="299" y="18.09">""</text><rect fill="#DDDDDD" height="635.6" style="stroke:#181818;stroke-width:0.5;" width="92" x="457" y="6"/><text fill="#000000" font-family="D2Coding" font-size="13" font-weight="bold" lengthAdjust="spacing" textLength="42" x="482" y="18.09">@remix</text><rect fill="#DDDDDD" height="635.6" style="stroke:#181818;stroke-width:0.5;" width="427" x="551" y="6"/><text fill="#000000" font-family="D2Coding" font-size="13" font-weight="bold" lengthAdjust="spacing" textLength="42" x="743.5" y="18.09">routes</text><rect fill="#DDDDDD" height="635.6" style="stroke:#181818;stroke-width:0.5;" width="270" x="980" y="6"/><text fill="#000000" font-family="D2Coding" font-size="13" font-weight="bold" lengthAdjust="spacing" textLength="161" x="1034.5" y="18.09">@webstudio-is/dashboard</text><rect fill="#DDDDDD" height="635.6" style="stroke:#181818;stroke-width:0.5;" width="153" x="1252" y="6"/><text fill="#000000" font-family="D2Coding" font-size="13" font-weight="bold" lengthAdjust="spacing" textLength="147" x="1255" y="18.09">@webstudio-is/project</text><rect fill="#FFFFFF" height="29.08" style="stroke:#181818;stroke-width:1.0;" width="10" x="369" y="320.8"/><rect fill="#FFFFFF" height="29.08" style="stroke:#181818;stroke-width:1.0;" width="10" x="369" y="378.96"/><rect fill="#FFFFFF" height="159.4" style="stroke:#181818;stroke-width:1.0;" width="10" x="686" y="112.32"/><rect fill="#FFFFFF" height="29.08" style="stroke:#181818;stroke-width:1.0;" width="10" x="1174.5" y="155.4"/><rect fill="#FFFFFF" height="29.08" style="stroke:#181818;stroke-width:1.0;" width="10" x="1174.5" y="213.56"/><line style="stroke:#181818;stroke-width:0.5;stroke-dasharray:5.0,5.0;" x1="116" x2="116" y1="81.24" y2="562.36"/><line style="stroke:#181818;stroke-width:0.5;stroke-dasharray:5.0,5.0;" x1="224" x2="224" y1="81.24" y2="562.36"/><line style="stroke:#181818;stroke-width:0.5;stroke-dasharray:5.0,5.0;" x1="374" x2="374" y1="81.24" y2="562.36"/><line style="stroke:#181818;stroke-width:0.5;stroke-dasharray:5.0,5.0;" x1="503" x2="503" y1="81.24" y2="562.36"/><line style="stroke:#181818;stroke-width:0.5;stroke-dasharray:5.0,5.0;" x1="579" x2="579" y1="81.24" y2="562.36"/><line style="stroke:#181818;stroke-width:0.5;stroke-dasharray:5.0,5.0;" x1="691" x2="691" y1="81.24" y2="562.36"/><line style="stroke:#181818;stroke-width:0.5;stroke-dasharray:5.0,5.0;" x1="876" x2="876" y1="81.24" y2="562.36"/><line style="stroke:#181818;stroke-width:0.5;stroke-dasharray:5.0,5.0;" x1="1043" x2="1043" y1="81.24" y2="562.36"/><line style="stroke:#181818;stroke-width:0.5;stroke-dasharray:5.0,5.0;" x1="1179" x2="1179" y1="81.24" y2="562.36"/><line style="stroke:#181818;stroke-width:0.5;stroke-dasharray:5.0,5.0;" x1="1328" x2="1328" y1="81.24" y2="562.36"/><text fill="#000000" font-family="D2Coding" font-size="14" lengthAdjust="spacing" textLength="28" x="99" y="78.02">User</text><ellipse cx="116" cy="13.5" fill="#E2E2F0" rx="8" ry="8" style="stroke:#181818;stroke-width:0.5;"/><path d="M116,21.5 L116,48.5 M103,29.5 L129,29.5 M116,48.5 L103,63.5 M116,48.5 L129,63.5 " fill="none" style="stroke:#181818;stroke-width:0.5;"/><text fill="#000000" font-family="D2Coding" font-size="14" lengthAdjust="spacing" textLength="28" x="99" y="574.38">User</text><ellipse cx="116" cy="586.1" fill="#E2E2F0" rx="8" ry="8" style="stroke:#181818;stroke-width:0.5;"/><path d="M116,594.1 L116,621.1 M103,602.1 L129,602.1 M116,621.1 L103,636.1 M116,621.1 L129,636.1 " fill="none" style="stroke:#181818;stroke-width:0.5;"/><rect fill="#E2E2F0" height="30.24" rx="2.5" ry="2.5" style="stroke:#181818;stroke-width:0.5;" width="126" x="161" y="50"/><text fill="#000000" font-family="D2Coding" font-size="14" lengthAdjust="spacing" textLength="112" x="168" y="70.02">useCreateProject</text><rect fill="#E2E2F0" height="30.24" rx="2.5" ry="2.5" style="stroke:#181818;stroke-width:0.5;" width="126" x="161" y="561.36"/><text fill="#000000" font-family="D2Coding" font-size="14" lengthAdjust="spacing" textLength="112" x="168" y="581.38">useCreateProject</text><rect fill="#E2E2F0" height="30.24" rx="2.5" ry="2.5" style="stroke:#181818;stroke-width:0.5;" width="154" x="297" y="50"/><text fill="#000000" font-family="D2Coding" font-size="14" lengthAdjust="spacing" textLength="140" x="304" y="70.02">createTrpcRemixProxy</text><rect fill="#E2E2F0" height="30.24" rx="2.5" ry="2.5" style="stroke:#181818;stroke-width:0.5;" width="154" x="297" y="561.36"/><text fill="#000000" font-family="D2Coding" font-size="14" lengthAdjust="spacing" textLength="140" x="304" y="581.38">createTrpcRemixProxy</text><rect fill="#E2E2F0" height="30.24" rx="2.5" ry="2.5" style="stroke:#181818;stroke-width:0.5;" width="84" x="461" y="50"/><text fill="#000000" font-family="D2Coding" font-size="14" lengthAdjust="spacing" textLength="70" x="468" y="70.02">useFetcher</text><rect fill="#E2E2F0" height="30.24" rx="2.5" ry="2.5" style="stroke:#181818;stroke-width:0.5;" width="84" x="461" y="561.36"/><text fill="#000000" font-family="D2Coding" font-size="14" lengthAdjust="spacing" textLength="70" x="468" y="581.38">useFetcher</text><rect fill="#E2E2F0" height="30.24" rx="2.5" ry="2.5" style="stroke:#181818;stroke-width:0.5;" width="49" x="555" y="50"/><text fill="#000000" font-family="D2Coding" font-size="14" lengthAdjust="spacing" textLength="35" x="562" y="70.02">$.tsx</text><rect fill="#E2E2F0" height="30.24" rx="2.5" ry="2.5" style="stroke:#181818;stroke-width:0.5;" width="49" x="555" y="561.36"/><text fill="#000000" font-family="D2Coding" font-size="14" lengthAdjust="spacing" textLength="35" x="562" y="581.38">$.tsx</text><rect fill="#E2E2F0" height="30.24" rx="2.5" ry="2.5" style="stroke:#181818;stroke-width:0.5;" width="154" x="614" y="50"/><text fill="#000000" font-family="D2Coding" font-size="14" lengthAdjust="spacing" textLength="140" x="621" y="70.02">dashbaord._index.tsx</text><rect fill="#E2E2F0" height="30.24" rx="2.5" ry="2.5" style="stroke:#181818;stroke-width:0.5;" width="154" x="614" y="561.36"/><text fill="#000000" font-family="D2Coding" font-size="14" lengthAdjust="spacing" textLength="140" x="621" y="581.38">dashbaord._index.tsx</text><rect fill="#E2E2F0" height="30.24" rx="2.5" ry="2.5" style="stroke:#181818;stroke-width:0.5;" width="196" x="778" y="50"/><text fill="#000000" font-family="D2Coding" font-size="14" lengthAdjust="spacing" textLength="182" x="785" y="70.02">dashboard.projects.$method</text><rect fill="#E2E2F0" height="30.24" rx="2.5" ry="2.5" style="stroke:#181818;stroke-width:0.5;" width="196" x="778" y="561.36"/><text fill="#000000" font-family="D2Coding" font-size="14" lengthAdjust="spacing" textLength="182" x="785" y="581.38">dashboard.projects.$method</text><rect fill="#E2E2F0" height="30.24" rx="2.5" ry="2.5" style="stroke:#181818;stroke-width:0.5;" width="119" x="984" y="50"/><text fill="#000000" font-family="D2Coding" font-size="14" lengthAdjust="spacing" textLength="105" x="991" y="70.02">index.server.ts</text><rect fill="#E2E2F0" height="30.24" rx="2.5" ry="2.5" style="stroke:#181818;stroke-width:0.5;" width="119" x="984" y="561.36"/><text fill="#000000" font-family="D2Coding" font-size="14" lengthAdjust="spacing" textLength="105" x="991" y="581.38">index.server.ts</text><rect fill="#E2E2F0" height="30.24" rx="2.5" ry="2.5" style="stroke:#181818;stroke-width:0.5;" width="133" x="1113" y="50"/><text fill="#000000" font-family="D2Coding" font-size="14" lengthAdjust="spacing" textLength="119" x="1120" y="70.02">project-router.ts</text><rect fill="#E2E2F0" height="30.24" rx="2.5" ry="2.5" style="stroke:#181818;stroke-width:0.5;" width="133" x="1113" y="561.36"/><text fill="#000000" font-family="D2Coding" font-size="14" lengthAdjust="spacing" textLength="119" x="1120" y="581.38">project-router.ts</text><rect fill="#E2E2F0" height="30.24" rx="2.5" ry="2.5" style="stroke:#181818;stroke-width:0.5;" width="133" x="1262" y="50"/><text fill="#000000" font-family="D2Coding" font-size="14" lengthAdjust="spacing" textLength="119" x="1269" y="70.02">project-router.ts</text><rect fill="#E2E2F0" height="30.24" rx="2.5" ry="2.5" style="stroke:#181818;stroke-width:0.5;" width="133" x="1262" y="561.36"/><text fill="#000000" font-family="D2Coding" font-size="14" lengthAdjust="spacing" textLength="119" x="1269" y="581.38">project-router.ts</text><rect fill="#FFFFFF" height="29.08" style="stroke:#181818;stroke-width:1.0;" width="10" x="369" y="320.8"/><rect fill="#FFFFFF" height="29.08" style="stroke:#181818;stroke-width:1.0;" width="10" x="369" y="378.96"/><rect fill="#FFFFFF" height="159.4" style="stroke:#181818;stroke-width:1.0;" width="10" x="686" y="112.32"/><rect fill="#FFFFFF" height="29.08" style="stroke:#181818;stroke-width:1.0;" width="10" x="1174.5" y="155.4"/><rect fill="#FFFFFF" height="29.08" style="stroke:#181818;stroke-width:1.0;" width="10" x="1174.5" y="213.56"/><polygon fill="#181818" points="674,108.32,684,112.32,674,116.32,678,112.32" style="stroke:#181818;stroke-width:1.0;"/><line style="stroke:#181818;stroke-width:1.0;stroke-dasharray:2.0,2.0;" x1="116" x2="680" y1="112.32" y2="112.32"/><text fill="#000000" font-family="D2Coding" font-size="13" lengthAdjust="spacing" textLength="84" x="123" y="107.33">'/dashboard'</text><polygon fill="#181818" points="1031.5,122.32,1041.5,126.32,1031.5,130.32,1035.5,126.32" style="stroke:#181818;stroke-width:1.0;"/><line style="stroke:#181818;stroke-width:1.0;" x1="696" x2="1037.5" y1="126.32" y2="126.32"/><polygon fill="#181818" points="1162.5,151.4,1172.5,155.4,1162.5,159.4,1166.5,155.4" style="stroke:#181818;stroke-width:1.0;"/><line style="stroke:#181818;stroke-width:1.0;" x1="696" x2="1168.5" y1="155.4" y2="155.4"/><text fill="#000000" font-family="D2Coding" font-size="13" lengthAdjust="spacing" textLength="112" x="703" y="150.41">findMany(userId)</text><polygon fill="#181818" points="707,180.48,697,184.48,707,188.48,703,184.48" style="stroke:#181818;stroke-width:1.0;"/><line style="stroke:#181818;stroke-width:1.0;stroke-dasharray:2.0,2.0;" x1="701" x2="1178.5" y1="184.48" y2="184.48"/><text fill="#000000" font-family="D2Coding" font-size="13" lengthAdjust="spacing" textLength="56" x="713" y="179.49">projects</text><polygon fill="#181818" points="1162.5,209.56,1172.5,213.56,1162.5,217.56,1166.5,213.56" style="stroke:#181818;stroke-width:1.0;"/><line style="stroke:#181818;stroke-width:1.0;" x1="696" x2="1168.5" y1="213.56" y2="213.56"/><text fill="#000000" font-family="D2Coding" font-size="13" lengthAdjust="spacing" textLength="231" x="703" y="208.57">findManyByIds(templateProjectIds)</text><polygon fill="#181818" points="707,238.64,697,242.64,707,246.64,703,242.64" style="stroke:#181818;stroke-width:1.0;"/><line style="stroke:#181818;stroke-width:1.0;stroke-dasharray:2.0,2.0;" x1="701" x2="1178.5" y1="242.64" y2="242.64"/><text fill="#000000" font-family="D2Coding" font-size="13" lengthAdjust="spacing" textLength="112" x="713" y="237.65">projectTemplates</text><polygon fill="#181818" points="127,267.72,117,271.72,127,275.72,123,271.72" style="stroke:#181818;stroke-width:1.0;"/><line style="stroke:#181818;stroke-width:1.0;stroke-dasharray:2.0,2.0;" x1="121" x2="690" y1="271.72" y2="271.72"/><text fill="#000000" font-family="D2Coding" font-size="13" lengthAdjust="spacing" textLength="105" x="133" y="266.73">`&lt;Dashboard /&gt;`</text><path d="M156,284.72 L156,309.72 L441,309.72 L441,294.72 L431,284.72 L156,284.72 " fill="#FEFFDD" style="stroke:#181818;stroke-width:0.5;"/><path d="M431,284.72 L431,294.72 L441,294.72 L431,284.72 " fill="#FEFFDD" style="stroke:#181818;stroke-width:0.5;"/><text fill="#000000" font-family="D2Coding" font-size="13" lengthAdjust="spacing" textLength="118" x="235" y="301.81">프로젝트 목록 화면</text><polygon fill="#181818" points="357,316.8,367,320.8,357,324.8,361,320.8" style="stroke:#181818;stroke-width:1.0;"/><line style="stroke:#181818;stroke-width:1.0;" x1="224" x2="363" y1="320.8" y2="320.8"/><polygon fill="#181818" points="235,345.88,225,349.88,235,353.88,231,349.88" style="stroke:#181818;stroke-width:1.0;"/><line style="stroke:#181818;stroke-width:1.0;stroke-dasharray:2.0,2.0;" x1="229" x2="373" y1="349.88" y2="349.88"/><text fill="#000000" font-family="D2Coding" font-size="13" lengthAdjust="spacing" textLength="28" x="241" y="344.89">trpc</text><polygon fill="#181818" points="357,374.96,367,378.96,357,382.96,361,378.96" style="stroke:#181818;stroke-width:1.0;"/><line style="stroke:#181818;stroke-width:1.0;" x1="224" x2="363" y1="378.96" y2="378.96"/><text fill="#000000" font-family="D2Coding" font-size="13" lengthAdjust="spacing" textLength="126" x="231" y="373.97">trpc.create.Mutate</text><polygon fill="#181818" points="235,404.04,225,408.04,235,412.04,231,408.04" style="stroke:#181818;stroke-width:1.0;"/><line style="stroke:#181818;stroke-width:1.0;stroke-dasharray:2.0,2.0;" x1="229" x2="373" y1="408.04" y2="408.04"/><text fill="#000000" font-family="D2Coding" font-size="13" lengthAdjust="spacing" textLength="56" x="241" y="403.05">{ send }</text><polygon fill="#181818" points="212,436.12,222,440.12,212,444.12,216,440.12" style="stroke:#181818;stroke-width:1.0;"/><line style="stroke:#181818;stroke-width:1.0;" x1="116" x2="218" y1="440.12" y2="440.12"/><text fill="#000000" font-family="D2Coding" font-size="13" lengthAdjust="spacing" textLength="84" x="123" y="435.13">handleSubmit</text><path d="M5,421.04 L5,446.04 L111,446.04 L111,431.04 L101,421.04 L5,421.04 " fill="#FEFFDD" style="stroke:#181818;stroke-width:0.5;"/><path d="M101,421.04 L101,431.04 L111,431.04 L101,421.04 " fill="#FEFFDD" style="stroke:#181818;stroke-width:0.5;"/><text fill="#000000" font-family="D2Coding" font-size="13" lengthAdjust="spacing" textLength="85" x="11" y="438.13">프로젝트 생성</text><polygon fill="#181818" points="362,468.2,372,472.2,362,476.2,366,472.2" style="stroke:#181818;stroke-width:1.0;"/><line style="stroke:#181818;stroke-width:1.0;" x1="224" x2="368" y1="472.2" y2="472.2"/><text fill="#000000" font-family="D2Coding" font-size="13" lengthAdjust="spacing" textLength="28" x="231" y="467.21">send</text><polygon fill="#181818" points="491,497.28,501,501.28,491,505.28,495,501.28" style="stroke:#181818;stroke-width:1.0;"/><line style="stroke:#181818;stroke-width:1.0;" x1="374" x2="497" y1="501.28" y2="501.28"/><text fill="#000000" font-family="D2Coding" font-size="13" lengthAdjust="spacing" textLength="42" x="381" y="496.29">submit</text><polygon fill="#181818" points="864,511.28,874,515.28,864,519.28,868,515.28" style="stroke:#181818;stroke-width:1.0;"/><line style="stroke:#181818;stroke-width:1.0;stroke-dasharray:2.0,2.0;" x1="503" x2="870" y1="515.28" y2="515.28"/><polygon fill="#181818" points="1316.5,540.36,1326.5,544.36,1316.5,548.36,1320.5,544.36" style="stroke:#181818;stroke-width:1.0;"/><line style="stroke:#181818;stroke-width:1.0;" x1="876" x2="1322.5" y1="544.36" y2="544.36"/><text fill="#000000" font-family="D2Coding" font-size="13" lengthAdjust="spacing" textLength="42" x="883" y="539.37">create</text><!--MD5=[460d6d3ba5e27ab9d080f422fdde4482]
--></g></svg>
