<?xml version="1.0" encoding="UTF-8" standalone="no"?><svg xmlns="http://www.w3.org/2000/svg" xmlns:xlink="http://www.w3.org/1999/xlink" contentStyleType="text/css" height="846px" preserveAspectRatio="none" style="width:912px;height:846px;background:#FFFFFF;" version="1.1" viewBox="0 0 912 846" width="912px" zoomAndPan="magnify"><defs/><g><!--MD5=[cc3de0a176daa3c4ec875deafdf5ddd1]
class Serializable--><g id="elem_Serializable"><rect codeLine="4" fill="#F1F1F1" height="96.72" id="Serializable" rx="2.5" ry="2.5" style="stroke:#181818;stroke-width:0.5;" width="166" x="330" y="7"/><ellipse cx="367.5" cy="23" fill="#A9DCDF" rx="11" ry="11" style="stroke:#181818;stroke-width:1.0;"/><path d="M367.3633,18.3481 L366.2095,23.4199 L368.5254,23.4199 Z M365.8691,16.1069 L368.8657,16.1069 L372.2109,28.5 L369.7622,28.5 L368.9985,25.437 L365.7197,25.437 L364.9727,28.5 L362.5239,28.5 Z " fill="#000000"/><text fill="#000000" font-family="D2Coding" font-size="14" font-style="italic" lengthAdjust="spacing" textLength="84" x="386.5" y="27.9">Serializable</text><line style="stroke:#181818;stroke-width:0.5;" x1="331" x2="495" y1="39" y2="39"/><text fill="#000000" font-family="D2Coding" font-size="14" font-style="italic" lengthAdjust="spacing" textLength="147" x="336" y="56.02">lc_namespace string[]</text><line style="stroke:#181818;stroke-width:0.5;" x1="331" x2="495" y1="63.24" y2="63.24"/><text fill="#000000" font-family="D2Coding" font-size="14" lengthAdjust="spacing" textLength="56" x="336" y="80.26">toJSON()</text><text fill="#000000" font-family="D2Coding" font-size="14" lengthAdjust="spacing" textLength="154" x="336" y="96.5">toJSONNotImplemented()</text></g><!--MD5=[fe461b558a4d1284e7bb9d48d7fbe586]
class BasePromptTemplate--><g id="elem_BasePromptTemplate"><rect codeLine="10" fill="#F1F1F1" height="129.2" id="BasePromptTemplate" rx="2.5" ry="2.5" style="stroke:#181818;stroke-width:0.5;" width="236" x="167" y="164"/><ellipse cx="217.75" cy="180" fill="#A9DCDF" rx="11" ry="11" style="stroke:#181818;stroke-width:1.0;"/><path d="M217.6133,175.3481 L216.4595,180.4199 L218.7754,180.4199 Z M216.1191,173.1069 L219.1157,173.1069 L222.4609,185.5 L220.0122,185.5 L219.2485,182.437 L215.9697,182.437 L215.2227,185.5 L212.7739,185.5 Z " fill="#000000"/><text fill="#000000" font-family="D2Coding" font-size="14" font-style="italic" lengthAdjust="spacing" textLength="126" x="238.25" y="184.9">BasePromptTemplate</text><line style="stroke:#181818;stroke-width:0.5;" x1="168" x2="402" y1="196" y2="196"/><text fill="#000000" font-family="D2Coding" font-size="14" lengthAdjust="spacing" textLength="224" x="173" y="213.02">Base class for prompt templates.</text><line style="stroke:#181818;stroke-width:1.0;" x1="168" x2="402" y1="220.24" y2="220.24"/><text fill="#000000" font-family="D2Coding" font-size="14" font-style="italic" lengthAdjust="spacing" textLength="63" x="173" y="237.26">partial()</text><text fill="#000000" font-family="D2Coding" font-size="14" font-style="italic" lengthAdjust="spacing" textLength="56" x="173" y="253.5">format()</text><text fill="#000000" font-family="D2Coding" font-size="14" font-style="italic" lengthAdjust="spacing" textLength="133" x="173" y="269.74">formatPromptValue()</text><text fill="#000000" font-family="D2Coding" font-size="14" font-style="italic" lengthAdjust="spacing" textLength="112" x="173" y="285.98">_getPromptType()</text></g><!--MD5=[efb0f170d6eb2efaa0353c03ab1c3eda]
class BaseChatPromptTemplate--><g id="elem_BaseChatPromptTemplate"><rect codeLine="19" fill="#F1F1F1" height="108.96" id="BaseChatPromptTemplate" rx="2.5" ry="2.5" style="stroke:#181818;stroke-width:0.5;" width="186" x="24" y="356.5"/><ellipse cx="39" cy="372.5" fill="#A9DCDF" rx="11" ry="11" style="stroke:#181818;stroke-width:1.0;"/><path d="M38.8633,367.8481 L37.7095,372.9199 L40.0254,372.9199 Z M37.3691,365.6069 L40.3657,365.6069 L43.7109,378 L41.2622,378 L40.4985,374.937 L37.2197,374.937 L36.4727,378 L34.0239,378 Z " fill="#000000"/><text fill="#000000" font-family="D2Coding" font-size="14" font-style="italic" lengthAdjust="spacing" textLength="154" x="53" y="377.4">BaseChatPromptTemplate</text><line style="stroke:#181818;stroke-width:0.5;" x1="25" x2="209" y1="388.5" y2="388.5"/><text fill="#000000" font-family="D2Coding" font-size="14" font-style="italic" lengthAdjust="spacing" textLength="112" x="30" y="405.52">formatMessages()</text><text fill="#000000" font-family="D2Coding" font-size="14" lengthAdjust="spacing" textLength="56" x="30" y="442">format()</text><text fill="#000000" font-family="D2Coding" font-size="14" lengthAdjust="spacing" textLength="133" x="30" y="458.24">formatPromptValue()</text><line style="stroke:#181818;stroke-width:1.0;stroke-dasharray:1.0,2.0;" x1="25" x2="68" y1="420.86" y2="420.86"/><text fill="#000000" font-family="D2Coding" font-size="14" lengthAdjust="spacing" textLength="98" x="68" y="425.26">IMPLEMENTATION</text><line style="stroke:#181818;stroke-width:1.0;stroke-dasharray:1.0,2.0;" x1="166" x2="209" y1="420.86" y2="420.86"/></g><!--MD5=[3ab467ca88e02c21258c848ed1c714de]
class ChatPromptTemplate--><g id="elem_ChatPromptTemplate"><rect codeLine="26" fill="#F1F1F1" height="108.96" id="ChatPromptTemplate" rx="2.5" ry="2.5" style="stroke:#181818;stroke-width:0.5;" width="158" x="7" y="529"/><ellipse cx="22" cy="545" fill="#ADD1B2" rx="11" ry="11" style="stroke:#181818;stroke-width:1.0;"/><path d="M24.4731,551.1431 Q23.8921,551.4419 23.2529,551.5913 Q22.6138,551.7407 21.9082,551.7407 Q19.4014,551.7407 18.0815,550.0889 Q16.7617,548.437 16.7617,545.3159 Q16.7617,542.1865 18.0815,540.5347 Q19.4014,538.8828 21.9082,538.8828 Q22.6138,538.8828 23.2612,539.0322 Q23.9087,539.1816 24.4731,539.4805 L24.4731,542.2031 Q23.8423,541.6221 23.2488,541.3523 Q22.6553,541.0825 22.0244,541.0825 Q20.6797,541.0825 19.9949,542.1492 Q19.3101,543.2158 19.3101,545.3159 Q19.3101,547.4077 19.9949,548.4744 Q20.6797,549.541 22.0244,549.541 Q22.6553,549.541 23.2488,549.2712 Q23.8423,549.0015 24.4731,548.4204 Z " fill="#000000"/><text fill="#000000" font-family="D2Coding" font-size="14" lengthAdjust="spacing" textLength="126" x="36" y="549.9">ChatPromptTemplate</text><line style="stroke:#181818;stroke-width:0.5;" x1="8" x2="164" y1="561" y2="561"/><text fill="#000000" font-family="D2Coding" font-size="14" lengthAdjust="spacing" textLength="63" x="13" y="598.26">partial()</text><text fill="#000000" font-family="D2Coding" font-size="14" lengthAdjust="spacing" textLength="112" x="13" y="614.5">formatMessages()</text><text fill="#000000" font-family="D2Coding" font-size="14" lengthAdjust="spacing" text-decoration="underline" textLength="140" x="13" y="630.74">fromPromptMessages()</text><line style="stroke:#181818;stroke-width:1.0;stroke-dasharray:1.0,2.0;" x1="8" x2="37" y1="577.12" y2="577.12"/><text fill="#000000" font-family="D2Coding" font-size="14" lengthAdjust="spacing" textLength="98" x="37" y="581.52">IMPLEMENTATION</text><line style="stroke:#181818;stroke-width:1.0;stroke-dasharray:1.0,2.0;" x1="135" x2="164" y1="577.12" y2="577.12"/></g><!--MD5=[bf5d884b452ab2a8846556c2acea9428]
class BaseStringPromptTemplate--><g id="elem_BaseStringPromptTemplate"><rect codeLine="33" fill="#F1F1F1" height="76.48" id="BaseStringPromptTemplate" rx="2.5" ry="2.5" style="stroke:#181818;stroke-width:0.5;" width="200" x="200" y="545.5"/><ellipse cx="215" cy="561.5" fill="#A9DCDF" rx="11" ry="11" style="stroke:#181818;stroke-width:1.0;"/><path d="M214.8633,556.8481 L213.7095,561.9199 L216.0254,561.9199 Z M213.3691,554.6069 L216.3657,554.6069 L219.7109,567 L217.2622,567 L216.4985,563.937 L213.2197,563.937 L212.4727,567 L210.0239,567 Z " fill="#000000"/><text fill="#000000" font-family="D2Coding" font-size="14" font-style="italic" lengthAdjust="spacing" textLength="168" x="229" y="566.4">BaseStringPromptTemplate</text><line style="stroke:#181818;stroke-width:0.5;" x1="201" x2="399" y1="577.5" y2="577.5"/><text fill="#000000" font-family="D2Coding" font-size="14" lengthAdjust="spacing" textLength="133" x="206" y="614.76">formatPromptValue()</text><line style="stroke:#181818;stroke-width:1.0;stroke-dasharray:1.0,2.0;" x1="201" x2="251" y1="593.62" y2="593.62"/><text fill="#000000" font-family="D2Coding" font-size="14" lengthAdjust="spacing" textLength="98" x="251" y="598.02">IMPLEMENTATION</text><line style="stroke:#181818;stroke-width:1.0;stroke-dasharray:1.0,2.0;" x1="349" x2="399" y1="593.62" y2="593.62"/></g><!--MD5=[38eb5a479ab8c919b746c0571501c77d]
class PromptTemplate--><g id="elem_PromptTemplate"><rect codeLine="38" fill="#F1F1F1" height="141.44" id="PromptTemplate" rx="2.5" ry="2.5" style="stroke:#181818;stroke-width:0.5;" width="130" x="235" y="698"/><ellipse cx="250" cy="714" fill="#ADD1B2" rx="11" ry="11" style="stroke:#181818;stroke-width:1.0;"/><path d="M252.4731,720.1431 Q251.8921,720.4419 251.2529,720.5913 Q250.6138,720.7407 249.9082,720.7407 Q247.4014,720.7407 246.0815,719.0889 Q244.7617,717.437 244.7617,714.3159 Q244.7617,711.1865 246.0815,709.5347 Q247.4014,707.8828 249.9082,707.8828 Q250.6138,707.8828 251.2612,708.0322 Q251.9087,708.1816 252.4731,708.4805 L252.4731,711.2031 Q251.8423,710.6221 251.2488,710.3523 Q250.6553,710.0825 250.0244,710.0825 Q248.6797,710.0825 247.9949,711.1492 Q247.3101,712.2158 247.3101,714.3159 Q247.3101,716.4077 247.9949,717.4744 Q248.6797,718.541 250.0244,718.541 Q250.6553,718.541 251.2488,718.2712 Q251.8423,718.0015 252.4731,717.4204 Z " fill="#000000"/><text fill="#000000" font-family="D2Coding" font-size="14" lengthAdjust="spacing" textLength="98" x="264" y="718.9">PromptTemplate</text><line style="stroke:#181818;stroke-width:0.5;" x1="236" x2="364" y1="730" y2="730"/><text fill="#000000" font-family="D2Coding" font-size="14" lengthAdjust="spacing" textLength="63" x="241" y="767.26">partial()</text><text fill="#000000" font-family="D2Coding" font-size="14" lengthAdjust="spacing" textLength="56" x="241" y="783.5">format()</text><text fill="#000000" font-family="D2Coding" font-size="14" lengthAdjust="spacing" text-decoration="underline" textLength="98" x="241" y="799.74">fromExamples()</text><text fill="#000000" font-family="D2Coding" font-size="14" lengthAdjust="spacing" text-decoration="underline" textLength="98" x="241" y="815.98">fromTemplate()</text><text fill="#000000" font-family="D2Coding" font-size="14" lengthAdjust="spacing" text-decoration="underline" textLength="91" x="241" y="832.22">deserialize()</text><line style="stroke:#181818;stroke-width:1.0;stroke-dasharray:1.0,2.0;" x1="236" x2="251" y1="746.12" y2="746.12"/><text fill="#000000" font-family="D2Coding" font-size="14" lengthAdjust="spacing" textLength="98" x="251" y="750.52">IMPLEMENTATION</text><line style="stroke:#181818;stroke-width:1.0;stroke-dasharray:1.0,2.0;" x1="349" x2="364" y1="746.12" y2="746.12"/></g><!--MD5=[67a8b5ce2fc63d6ea03e7e93b7764739]
class BaseMessagePromptTemplate--><g id="elem_BaseMessagePromptTemplate"><rect codeLine="47" fill="#F1F1F1" height="80.48" id="BaseMessagePromptTemplate" rx="2.5" ry="2.5" style="stroke:#181818;stroke-width:0.5;" width="207" x="438.5" y="188.5"/><ellipse cx="453.5" cy="204.5" fill="#A9DCDF" rx="11" ry="11" style="stroke:#181818;stroke-width:1.0;"/><path d="M453.3633,199.8481 L452.2095,204.9199 L454.5254,204.9199 Z M451.8691,197.6069 L454.8657,197.6069 L458.2109,210 L455.7622,210 L454.9985,206.937 L451.7197,206.937 L450.9727,210 L448.5239,210 Z " fill="#000000"/><text fill="#000000" font-family="D2Coding" font-size="14" font-style="italic" lengthAdjust="spacing" textLength="175" x="467.5" y="209.4">BaseMessagePromptTemplate</text><line style="stroke:#181818;stroke-width:0.5;" x1="439.5" x2="644.5" y1="220.5" y2="220.5"/><text fill="#000000" font-family="D2Coding" font-size="14" font-style="italic" lengthAdjust="spacing" textLength="168" x="444.5" y="237.52">inputVariables: string[]</text><line style="stroke:#181818;stroke-width:0.5;" x1="439.5" x2="644.5" y1="244.74" y2="244.74"/><text fill="#000000" font-family="D2Coding" font-size="14" font-style="italic" lengthAdjust="spacing" textLength="112" x="444.5" y="261.76">formatMessages()</text></g><!--MD5=[71830b81c93026e00d51a893e8a50471]
class BaseMessageStringPromptTemplate--><g id="elem_BaseMessageStringPromptTemplate"><rect codeLine="52" fill="#F1F1F1" height="108.96" id="BaseMessageStringPromptTemplate" rx="2.5" ry="2.5" style="stroke:#181818;stroke-width:0.5;" width="250" x="417" y="357"/><ellipse cx="432.45" cy="373" fill="#A9DCDF" rx="11" ry="11" style="stroke:#181818;stroke-width:1.0;"/><path d="M432.3133,368.3481 L431.1595,373.4199 L433.4754,373.4199 Z M430.8191,366.1069 L433.8157,366.1069 L437.1609,378.5 L434.7122,378.5 L433.9485,375.437 L430.6697,375.437 L429.9227,378.5 L427.4739,378.5 Z " fill="#000000"/><text fill="#000000" font-family="D2Coding" font-size="14" font-style="italic" lengthAdjust="spacing" textLength="217" x="446.55" y="377.9">BaseMessageStringPromptTemplate</text><line style="stroke:#181818;stroke-width:0.5;" x1="418" x2="666" y1="389" y2="389"/><text fill="#000000" font-family="D2Coding" font-size="14" lengthAdjust="spacing" textLength="217" x="423" y="406.02">BaseStringPromptTemplate prompt</text><text fill="#000000" font-family="D2Coding" font-size="14" font-style="italic" lengthAdjust="spacing" textLength="238" x="423" y="422.26">format(): Promise&lt;BaseChatMessage&gt;</text><text fill="#000000" font-family="D2Coding" font-size="14" lengthAdjust="spacing" textLength="112" x="423" y="458.74">formatMessages()</text><line style="stroke:#181818;stroke-width:1.0;stroke-dasharray:1.0,2.0;" x1="418" x2="493" y1="437.6" y2="437.6"/><text fill="#000000" font-family="D2Coding" font-size="14" lengthAdjust="spacing" textLength="98" x="493" y="442">IMPLEMENTATION</text><line style="stroke:#181818;stroke-width:1.0;stroke-dasharray:1.0,2.0;" x1="591" x2="666" y1="437.6" y2="437.6"/></g><!--MD5=[d31089d206944803deb2f52a529e8e67]
class HumanMessagePromptTemplate--><g id="elem_HumanMessagePromptTemplate"><rect codeLine="59" fill="#F1F1F1" height="92.72" id="HumanMessagePromptTemplate" rx="2.5" ry="2.5" style="stroke:#181818;stroke-width:0.5;" width="214" x="435" y="537"/><ellipse cx="450" cy="553" fill="#ADD1B2" rx="11" ry="11" style="stroke:#181818;stroke-width:1.0;"/><path d="M452.4731,559.1431 Q451.8921,559.4419 451.2529,559.5913 Q450.6138,559.7407 449.9082,559.7407 Q447.4014,559.7407 446.0815,558.0889 Q444.7617,556.437 444.7617,553.3159 Q444.7617,550.1865 446.0815,548.5347 Q447.4014,546.8828 449.9082,546.8828 Q450.6138,546.8828 451.2612,547.0322 Q451.9087,547.1816 452.4731,547.4805 L452.4731,550.2031 Q451.8423,549.6221 451.2488,549.3523 Q450.6553,549.0825 450.0244,549.0825 Q448.6797,549.0825 447.9949,550.1492 Q447.3101,551.2158 447.3101,553.3159 Q447.3101,555.4077 447.9949,556.4744 Q448.6797,557.541 450.0244,557.541 Q450.6553,557.541 451.2488,557.2712 Q451.8423,557.0015 452.4731,556.4204 Z " fill="#000000"/><text fill="#000000" font-family="D2Coding" font-size="14" lengthAdjust="spacing" textLength="182" x="464" y="557.9">HumanMessagePromptTemplate</text><line style="stroke:#181818;stroke-width:0.5;" x1="436" x2="648" y1="569" y2="569"/><text fill="#000000" font-family="D2Coding" font-size="14" lengthAdjust="spacing" textLength="56" x="441" y="606.26">format()</text><text fill="#000000" font-family="D2Coding" font-size="14" lengthAdjust="spacing" textLength="98" x="441" y="622.5">fromTemplate()</text><line style="stroke:#181818;stroke-width:1.0;stroke-dasharray:1.0,2.0;" x1="436" x2="493" y1="585.12" y2="585.12"/><text fill="#000000" font-family="D2Coding" font-size="14" lengthAdjust="spacing" textLength="98" x="493" y="589.52">IMPLEMENTATION</text><line style="stroke:#181818;stroke-width:1.0;stroke-dasharray:1.0,2.0;" x1="591" x2="648" y1="585.12" y2="585.12"/></g><!--MD5=[5627c99e615e0cb3ea11318601e1dac7]
class SystemMessagePromptTemplate--><g id="elem_SystemMessagePromptTemplate"><rect codeLine="65" fill="#F1F1F1" height="48" id="SystemMessagePromptTemplate" rx="2.5" ry="2.5" style="stroke:#181818;stroke-width:0.5;" width="221" x="684.5" y="559.5"/><ellipse cx="699.5" cy="575.5" fill="#ADD1B2" rx="11" ry="11" style="stroke:#181818;stroke-width:1.0;"/><path d="M701.9731,581.6431 Q701.3921,581.9419 700.7529,582.0913 Q700.1138,582.2407 699.4082,582.2407 Q696.9014,582.2407 695.5815,580.5889 Q694.2617,578.937 694.2617,575.8159 Q694.2617,572.6865 695.5815,571.0347 Q696.9014,569.3828 699.4082,569.3828 Q700.1138,569.3828 700.7612,569.5322 Q701.4087,569.6816 701.9731,569.9805 L701.9731,572.7031 Q701.3423,572.1221 700.7488,571.8523 Q700.1553,571.5825 699.5244,571.5825 Q698.1797,571.5825 697.4949,572.6492 Q696.8101,573.7158 696.8101,575.8159 Q696.8101,577.9077 697.4949,578.9744 Q698.1797,580.041 699.5244,580.041 Q700.1553,580.041 700.7488,579.7712 Q701.3423,579.5015 701.9731,578.9204 Z " fill="#000000"/><text fill="#000000" font-family="D2Coding" font-size="14" lengthAdjust="spacing" textLength="189" x="713.5" y="580.4">SystemMessagePromptTemplate</text><line style="stroke:#181818;stroke-width:0.5;" x1="685.5" x2="904.5" y1="591.5" y2="591.5"/><line style="stroke:#181818;stroke-width:0.5;" x1="685.5" x2="904.5" y1="599.5" y2="599.5"/></g><!--MD5=[4552de57f2ead8f1ec7a3b6655d1e059]
reverse link Serializable to BasePromptTemplate--><g id="link_Serializable_BasePromptTemplate"><path codeLine="69" d="M364.6,121.16 C354.22,135.02 343.26,149.66 332.9,163.5 " fill="none" id="Serializable-backto-BasePromptTemplate" style="stroke:#181818;stroke-width:1.0;"/><polygon fill="none" points="358.85,117.16,376.44,105.34,370.06,125.55,358.85,117.16" style="stroke:#181818;stroke-width:1.0;"/></g><!--MD5=[f2059f17e829c599387813dfd3d35f21]
reverse link BasePromptTemplate to BaseChatPromptTemplate--><g id="link_BasePromptTemplate_BaseChatPromptTemplate"><path codeLine="70" d="M210.96,309.05 C196.17,324.94 180.97,341.27 167.21,356.05 " fill="none" id="BasePromptTemplate-backto-BaseChatPromptTemplate" style="stroke:#181818;stroke-width:1.0;"/><polygon fill="none" points="205.75,304.37,224.5,294.5,216,313.91,205.75,304.37" style="stroke:#181818;stroke-width:1.0;"/></g><!--MD5=[384c3b5d69d914969e94c68863fa1b94]
reverse link BaseChatPromptTemplate to ChatPromptTemplate--><g id="link_BaseChatPromptTemplate_ChatPromptTemplate"><path codeLine="71" d="M103.4,486.8 C100.84,500.88 98.21,515.33 95.8,528.61 " fill="none" id="BaseChatPromptTemplate-backto-ChatPromptTemplate" style="stroke:#181818;stroke-width:1.0;"/><polygon fill="none" points="96.46,485.86,106.92,467.44,110.23,488.37,96.46,485.86" style="stroke:#181818;stroke-width:1.0;"/></g><!--MD5=[32d02ebec75556b3bd9b3dc28e96cf1f]
reverse link BasePromptTemplate to BaseStringPromptTemplate--><g id="link_BasePromptTemplate_BaseStringPromptTemplate"><path codeLine="73" d="M288.62,314.72 C291.74,388.15 296.1,490.67 298.41,545.09 " fill="none" id="BasePromptTemplate-backto-BaseStringPromptTemplate" style="stroke:#181818;stroke-width:1.0;"/><polygon fill="none" points="281.64,315.22,287.78,294.94,295.62,314.62,281.64,315.22" style="stroke:#181818;stroke-width:1.0;"/></g><!--MD5=[70e4ef62dff8d50bc5f046c4798644d9]
reverse link BaseStringPromptTemplate to PromptTemplate--><g id="link_BaseStringPromptTemplate_PromptTemplate"><path codeLine="74" d="M300,643.38 C300,660.62 300,679.65 300,697.52 " fill="none" id="BaseStringPromptTemplate-backto-PromptTemplate" style="stroke:#181818;stroke-width:1.0;"/><polygon fill="none" points="293,643.49,300,623.49,307,643.49,293,643.49" style="stroke:#181818;stroke-width:1.0;"/></g><!--MD5=[d8c7362d6d43f87c8067190ee87cb755]
reverse link Serializable to BaseMessagePromptTemplate--><g id="link_Serializable_BaseMessagePromptTemplate"><path codeLine="76" d="M461.84,121.24 C478.84,143.78 497.38,168.36 512.35,188.2 " fill="none" id="Serializable-backto-BaseMessagePromptTemplate" style="stroke:#181818;stroke-width:1.0;"/><polygon fill="none" points="456.3,125.52,449.85,105.34,467.48,117.09,456.3,125.52" style="stroke:#181818;stroke-width:1.0;"/></g><!--MD5=[ec0838d5673b42023f092191e3bdffba]
reverse link BaseMessagePromptTemplate to BaseMessageStringPromptTemplate--><g id="link_BaseMessagePromptTemplate_BaseMessageStringPromptTemplate"><path codeLine="77" d="M542,290.03 C542,310.39 542,333.02 542,353.09 " fill="none" id="BaseMessagePromptTemplate-backto-BaseMessageStringPromptTemplate" style="stroke:#181818;stroke-width:1.0;"/><polygon fill="none" points="535,290.18,542,270.18,549,290.18,535,290.18" style="stroke:#181818;stroke-width:1.0;"/></g><!--MD5=[4a88db2a4afe148f0c59fbdba9677ebc]
reverse link BaseMessageStringPromptTemplate to HumanMessagePromptTemplate--><g id="link_BaseMessageStringPromptTemplate_HumanMessagePromptTemplate"><path codeLine="78" d="M542,490.11 C542,506.07 542,522.36 542,536.73 " fill="none" id="BaseMessageStringPromptTemplate-backto-HumanMessagePromptTemplate" style="stroke:#181818;stroke-width:1.0;"/><polygon fill="none" points="535,490.29,542,470.29,549,490.29,535,490.29" style="stroke:#181818;stroke-width:1.0;"/></g><!--MD5=[7d4d79413de78c06a794d7410af43b09]
reverse link BaseMessageStringPromptTemplate to SystemMessagePromptTemplate--><g id="link_BaseMessageStringPromptTemplate_SystemMessagePromptTemplate"><path codeLine="79" d="M644,480.74 C685.36,508.61 730.35,538.93 760.36,559.16 " fill="none" id="BaseMessageStringPromptTemplate-backto-SystemMessagePromptTemplate" style="stroke:#181818;stroke-width:1.0;"/><polygon fill="none" points="640.17,486.6,627.5,469.62,648,474.99,640.17,486.6" style="stroke:#181818;stroke-width:1.0;"/></g><!--MD5=[16670f2412eb4bb6e5720389a741895d]
reverse link BaseMessageStringPromptTemplate to BaseStringPromptTemplate--><g id="link_BaseMessageStringPromptTemplate_BaseStringPromptTemplate"><path codeLine="81" d="M401.87,402.38 C343.89,413.99 317.34,496.07 306.51,545.33 " fill="none" id="BaseMessageStringPromptTemplate-backto-BaseStringPromptTemplate" style="stroke:#181818;stroke-width:1.0;"/><polygon fill="#181818" points="414.49,401.15,408.1277,397.7557,402.5475,402.3232,408.9098,405.7174,414.49,401.15" style="stroke:#181818;stroke-width:1.0;"/></g><!--MD5=[9f4ba47b407b42330fa597e73a79a758]
--></g></svg>
