<?xml version="1.0" encoding="UTF-8" standalone="no"?><svg xmlns="http://www.w3.org/2000/svg" xmlns:xlink="http://www.w3.org/1999/xlink" contentStyleType="text/css" height="733px" preserveAspectRatio="none" style="width:583px;height:733px;background:#FFFFFF;" version="1.1" viewBox="0 0 583 733" width="583px" zoomAndPan="magnify"><defs/><g><line style="stroke:#181818;stroke-width:0.5;stroke-dasharray:5.0,5.0;" x1="39" x2="39" y1="81.24" y2="652.56"/><line style="stroke:#181818;stroke-width:0.5;stroke-dasharray:5.0,5.0;" x1="101" x2="101" y1="121.86" y2="652.56"/><line style="stroke:#181818;stroke-width:0.5;stroke-dasharray:5.0,5.0;" x1="174" x2="174" y1="213.26" y2="652.56"/><line style="stroke:#181818;stroke-width:0.5;stroke-dasharray:5.0,5.0;" x1="385" x2="385" y1="254.5" y2="652.56"/><line style="stroke:#181818;stroke-width:0.5;stroke-dasharray:5.0,5.0;" x1="521" x2="521" y1="573.78" y2="652.56"/><text fill="#000000" font-family="D2Coding" font-size="14" lengthAdjust="spacing" textLength="28" x="22" y="78.02">User</text><ellipse cx="39" cy="13.5" fill="#E2E2F0" rx="8" ry="8" style="stroke:#181818;stroke-width:0.5;"/><path d="M39,21.5 L39,48.5 M26,29.5 L52,29.5 M39,48.5 L26,63.5 M39,48.5 L52,63.5 " fill="none" style="stroke:#181818;stroke-width:0.5;"/><text fill="#000000" font-family="D2Coding" font-size="14" lengthAdjust="spacing" textLength="28" x="22" y="664.58">User</text><ellipse cx="39" cy="676.3" fill="#E2E2F0" rx="8" ry="8" style="stroke:#181818;stroke-width:0.5;"/><path d="M39,684.3 L39,711.3 M26,692.3 L52,692.3 M39,711.3 L26,726.3 M39,711.3 L52,726.3 " fill="none" style="stroke:#181818;stroke-width:0.5;"/><rect fill="#E2E2F0" height="30.24" rx="2.5" ry="2.5" style="stroke:#181818;stroke-width:0.5;" width="70" x="66" y="651.56"/><text fill="#000000" font-family="D2Coding" font-size="14" lengthAdjust="spacing" textLength="56" x="73" y="671.58">Document</text><rect fill="#E2E2F0" height="30.24" rx="2.5" ry="2.5" style="stroke:#181818;stroke-width:0.5;" width="56" x="146" y="651.56"/><text fill="#000000" font-family="D2Coding" font-size="14" lengthAdjust="spacing" textLength="42" x="153" y="671.58">OpenAI</text><rect fill="#E2E2F0" height="30.24" rx="2.5" ry="2.5" style="stroke:#181818;stroke-width:0.5;" width="140" x="315" y="651.56"/><text fill="#000000" font-family="D2Coding" font-size="14" lengthAdjust="spacing" textLength="126" x="322" y="671.58">StuffDocumentChain</text><rect fill="#E2E2F0" height="30.24" rx="2.5" ry="2.5" style="stroke:#181818;stroke-width:0.5;" width="112" x="465" y="651.56"/><text fill="#000000" font-family="D2Coding" font-size="14" lengthAdjust="spacing" textLength="98" x="472" y="671.58">MapReduceChain</text><polygon fill="#181818" points="54,93.24,64,97.24,54,101.24,58,97.24" style="stroke:#181818;stroke-width:1.0;"/><line style="stroke:#181818;stroke-width:1.0;" x1="39" x2="60" y1="97.24" y2="97.24"/><rect fill="#E2E2F0" height="30.24" rx="2.5" ry="2.5" style="stroke:#181818;stroke-width:0.5;" width="70" x="66" y="91.24"/><text fill="#000000" font-family="D2Coding" font-size="14" lengthAdjust="spacing" textLength="56" x="73" y="111.26">Document</text><path d="M5,137.48 L5,177.48 L555,177.48 L555,147.48 L545,137.48 L5,137.48 " fill="#FEFFDD" style="stroke:#181818;stroke-width:0.5;"/><path d="M545,137.48 L545,147.48 L555,147.48 L545,137.48 " fill="#FEFFDD" style="stroke:#181818;stroke-width:0.5;"/><text fill="#000000" font-family="D2Coding" font-size="13" lengthAdjust="spacing" textLength="413" x="69" y="154.57">new Document({ pageContent: "Harrison went to Harvard." }),</text><text fill="#000000" font-family="D2Coding" font-size="13" lengthAdjust="spacing" textLength="413" x="69" y="169.65">new Document({ pageContent: "Ankush went to Princeton." }),</text><polygon fill="#181818" points="134,184.64,144,188.64,134,192.64,138,188.64" style="stroke:#181818;stroke-width:1.0;"/><line style="stroke:#181818;stroke-width:1.0;" x1="39" x2="140" y1="188.64" y2="188.64"/><rect fill="#E2E2F0" height="30.24" rx="2.5" ry="2.5" style="stroke:#181818;stroke-width:0.5;" width="56" x="146" y="182.64"/><text fill="#000000" font-family="D2Coding" font-size="14" lengthAdjust="spacing" textLength="42" x="153" y="202.66">OpenAI</text><polygon fill="#181818" points="303,240.96,313,244.96,303,248.96,307,244.96" style="stroke:#181818;stroke-width:1.0;"/><line style="stroke:#181818;stroke-width:1.0;" x1="39" x2="309" y1="244.96" y2="244.96"/><text fill="#000000" font-family="D2Coding" font-size="13" lengthAdjust="spacing" textLength="112" x="46" y="239.97">loadQAStuffChain</text><rect fill="#E2E2F0" height="30.24" rx="2.5" ry="2.5" style="stroke:#181818;stroke-width:0.5;" width="140" x="315" y="223.88"/><text fill="#000000" font-family="D2Coding" font-size="14" lengthAdjust="spacing" textLength="126" x="322" y="243.9">StuffDocumentChain</text><polygon fill="#181818" points="373,282.2,383,286.2,373,290.2,377,286.2" style="stroke:#181818;stroke-width:1.0;"/><line style="stroke:#181818;stroke-width:1.0;" x1="39" x2="379" y1="286.2" y2="286.2"/><text fill="#000000" font-family="D2Coding" font-size="13" lengthAdjust="spacing" textLength="322" x="46" y="281.21">call(docs, 'where did Harrison go to college')</text><polygon fill="#181818" points="185,311.28,175,315.28,185,319.28,181,315.28" style="stroke:#181818;stroke-width:1.0;"/><line style="stroke:#181818;stroke-width:1.0;" x1="179" x2="384" y1="315.28" y2="315.28"/><text fill="#000000" font-family="D2Coding" font-size="13" lengthAdjust="spacing" textLength="63" x="191" y="310.29">_generate</text><path d="M5,328.28 L5,488.28 L555,488.28 L555,338.28 L545,328.28 L5,328.28 " fill="#FEFFDD" style="stroke:#181818;stroke-width:0.5;"/><path d="M545,328.28 L545,338.28 L555,338.28 L545,328.28 " fill="#FEFFDD" style="stroke:#181818;stroke-width:0.5;"/><text fill="#000000" font-family="D2Coding" font-size="13" lengthAdjust="spacing" textLength="490" x="27" y="345.37">Use the following pieces of context to answer the question at the end.</text><text fill="#000000" font-family="D2Coding" font-size="13" lengthAdjust="spacing" textLength="483" x="27" y="360.45">If you don't know the answer, just say that you don't know, don't try</text><text fill="#000000" font-family="D2Coding" font-size="13" lengthAdjust="spacing" textLength="147" x="27" y="375.53">to make up an answer.</text><text fill="#000000" font-family="D2Coding" font-size="13" lengthAdjust="spacing" textLength="7" x="27" y="390.61"> </text><text fill="#000000" font-family="D2Coding" font-size="13" lengthAdjust="spacing" textLength="175" x="27" y="405.69">Harrison went to Harvard.</text><text fill="#000000" font-family="D2Coding" font-size="13" lengthAdjust="spacing" textLength="7" x="27" y="420.77"> </text><text fill="#000000" font-family="D2Coding" font-size="13" lengthAdjust="spacing" textLength="175" x="27" y="435.85">Ankush went to Princeton.</text><text fill="#000000" font-family="D2Coding" font-size="13" lengthAdjust="spacing" textLength="7" x="27" y="450.93"> </text><text fill="#000000" font-family="D2Coding" font-size="13" lengthAdjust="spacing" textLength="301" x="27" y="466.01">Question: Where did Harrison go to college?</text><text fill="#000000" font-family="D2Coding" font-size="13" lengthAdjust="spacing" textLength="105" x="27" y="481.09">Helpful Answer:</text><polygon fill="#181818" points="50,496.08,40,500.08,50,504.08,46,500.08" style="stroke:#181818;stroke-width:1.0;"/><line style="stroke:#181818;stroke-width:1.0;stroke-dasharray:2.0,2.0;" x1="44" x2="173" y1="500.08" y2="500.08"/><path d="M5,513.08 L5,538.08 L555,538.08 L555,523.08 L545,513.08 L5,513.08 " fill="#FEFFDD" style="stroke:#181818;stroke-width:0.5;"/><path d="M545,513.08 L545,523.08 L555,523.08 L545,513.08 " fill="#FEFFDD" style="stroke:#181818;stroke-width:0.5;"/><text fill="#000000" font-family="D2Coding" font-size="13" lengthAdjust="spacing" textLength="175" x="188" y="530.17">Harrison went to Harvard.</text><polygon fill="#181818" points="453,560.24,463,564.24,453,568.24,457,564.24" style="stroke:#181818;stroke-width:1.0;"/><line style="stroke:#181818;stroke-width:1.0;" x1="39" x2="459" y1="564.24" y2="564.24"/><text fill="#000000" font-family="D2Coding" font-size="13" lengthAdjust="spacing" textLength="140" x="46" y="559.25">loadQAMapReduceChain</text><rect fill="#E2E2F0" height="30.24" rx="2.5" ry="2.5" style="stroke:#181818;stroke-width:0.5;" width="112" x="465" y="543.16"/><text fill="#000000" font-family="D2Coding" font-size="14" lengthAdjust="spacing" textLength="98" x="472" y="563.18">MapReduceChain</text><polygon fill="#181818" points="509,601.48,519,605.48,509,609.48,513,605.48" style="stroke:#181818;stroke-width:1.0;"/><line style="stroke:#181818;stroke-width:1.0;" x1="39" x2="515" y1="605.48" y2="605.48"/><text fill="#000000" font-family="D2Coding" font-size="13" lengthAdjust="spacing" textLength="322" x="46" y="600.49">call(docs, 'where did Harrison go to college')</text><polygon fill="#181818" points="185,630.56,175,634.56,185,638.56,181,634.56" style="stroke:#181818;stroke-width:1.0;"/><line style="stroke:#181818;stroke-width:1.0;" x1="179" x2="520" y1="634.56" y2="634.56"/><text fill="#000000" font-family="D2Coding" font-size="13" lengthAdjust="spacing" textLength="63" x="191" y="629.57">_generate</text><!--MD5=[9b6d19f0cb270339449871450605d8f9]
--></g></svg>
