<?xml version="1.0" encoding="UTF-8" standalone="no"?><svg xmlns="http://www.w3.org/2000/svg" xmlns:xlink="http://www.w3.org/1999/xlink" contentStyleType="text/css" height="1049px" preserveAspectRatio="none" style="width:1639px;height:1049px;background:#FFFFFF;" version="1.1" viewBox="0 0 1639 1049" width="1639px" zoomAndPan="magnify"><defs/><g><rect fill="#FFFFFF" height="29.3105" style="stroke:#181818;stroke-width:1.0;" width="10" x="235" y="195.7754"/><rect fill="#FFFFFF" height="73.7988" style="stroke:#181818;stroke-width:1.0;" width="10" x="576" y="305.8848"/><rect fill="#FFFFFF" height="14" style="stroke:#181818;stroke-width:1.0;" width="10" x="576" y="408.9941"/><rect fill="#FFFFFF" height="94.6211" style="stroke:#181818;stroke-width:1.0;" width="10" x="576" y="747.5"/><rect fill="#FFFFFF" height="28" style="stroke:#181818;stroke-width:1.0;" width="10" x="581" y="814.1211"/><rect fill="#FFFFFF" height="99.9766" style="stroke:#181818;stroke-width:1.0;" width="10" x="802" y="489.793"/><rect fill="#FFFFFF" height="60.4883" style="stroke:#181818;stroke-width:1.0;" width="10" x="807" y="529.2813"/><rect fill="#FFFFFF" height="297.1738" style="stroke:#181818;stroke-width:1.0;" width="10" x="802" y="646.5684"/><rect fill="#FFFFFF" height="259.8633" style="stroke:#181818;stroke-width:1.0;" width="10" x="807" y="683.8789"/><rect fill="#FFFFFF" height="123.9316" style="stroke:#181818;stroke-width:1.0;" width="10" x="1295" y="718.1895"/><rect fill="#FFFFFF" height="65.3105" style="stroke:#181818;stroke-width:1.0;" width="10" x="1550.5" y="878.4316"/><rect fill="#FFFFFF" height="28" style="stroke:#181818;stroke-width:1.0;" width="10" x="1555.5" y="915.7422"/><line style="stroke:#181818;stroke-width:0.5;stroke-dasharray:5.0,5.0;" x1="23" x2="23" y1="81.4883" y2="968.7422"/><line style="stroke:#181818;stroke-width:0.5;stroke-dasharray:5.0,5.0;" x1="84" x2="84" y1="122.2324" y2="968.7422"/><line style="stroke:#181818;stroke-width:0.5;stroke-dasharray:5.0,5.0;" x1="240" x2="240" y1="163.7207" y2="968.7422"/><line style="stroke:#181818;stroke-width:0.5;stroke-dasharray:5.0,5.0;" x1="438" x2="438" y1="263.8301" y2="968.7422"/><line style="stroke:#181818;stroke-width:0.5;stroke-dasharray:5.0,5.0;" x1="581" x2="581" y1="305.3184" y2="968.7422"/><line style="stroke:#181818;stroke-width:0.5;stroke-dasharray:5.0,5.0;" x1="807" x2="807" y1="489.2266" y2="968.7422"/><line style="stroke:#181818;stroke-width:0.5;stroke-dasharray:5.0,5.0;" x1="1299.5" x2="1299.5" y1="447.7383" y2="968.7422"/><line style="stroke:#181818;stroke-width:0.5;stroke-dasharray:5.0,5.0;" x1="1427.5" x2="1427.5" y1="573.0254" y2="968.7422"/><line style="stroke:#181818;stroke-width:0.5;stroke-dasharray:5.0,5.0;" x1="1555.5" x2="1555.5" y1="614.5137" y2="968.7422"/><text fill="#000000" font-family="sans-serif" font-size="14" lengthAdjust="spacing" textLength="31" x="5" y="78.5352">User</text><ellipse cx="23.5" cy="13.5" fill="#E2E2F0" rx="8" ry="8" style="stroke:#181818;stroke-width:0.5;"/><path d="M23.5,21.5 L23.5,48.5 M10.5,29.5 L36.5,29.5 M23.5,48.5 L10.5,63.5 M23.5,48.5 L36.5,63.5 " fill="none" style="stroke:#181818;stroke-width:0.5;"/><text fill="#000000" font-family="sans-serif" font-size="14" lengthAdjust="spacing" textLength="31" x="5" y="981.2773">User</text><ellipse cx="23.5" cy="992.7305" fill="#E2E2F0" rx="8" ry="8" style="stroke:#181818;stroke-width:0.5;"/><path d="M23.5,1000.7305 L23.5,1027.7305 M10.5,1008.7305 L36.5,1008.7305 M23.5,1027.7305 L10.5,1042.7305 M23.5,1027.7305 L36.5,1042.7305 " fill="none" style="stroke:#181818;stroke-width:0.5;"/><rect fill="#E2E2F0" height="30.4883" rx="2.5" ry="2.5" style="stroke:#181818;stroke-width:0.5;" width="65" x="52" y="967.7422"/><text fill="#000000" font-family="sans-serif" font-size="14" lengthAdjust="spacing" textLength="51" x="59" y="988.2773">OpenAI</text><rect fill="#E2E2F0" height="30.4883" rx="2.5" ry="2.5" style="stroke:#181818;stroke-width:0.5;" width="226" x="127" y="967.7422"/><text fill="#000000" font-family="sans-serif" font-size="14" lengthAdjust="spacing" textLength="212" x="134" y="988.2773">RecursiveCharacterTextSplitter</text><rect fill="#E2E2F0" height="30.4883" rx="2.5" ry="2.5" style="stroke:#181818;stroke-width:0.5;" width="150" x="363" y="967.7422"/><text fill="#000000" font-family="sans-serif" font-size="14" lengthAdjust="spacing" textLength="136" x="370" y="988.2773">OpenAIEmbeddings</text><rect fill="#E2E2F0" height="30.4883" rx="2.5" ry="2.5" style="stroke:#181818;stroke-width:0.5;" width="74" x="544" y="967.7422"/><text fill="#000000" font-family="sans-serif" font-size="14" lengthAdjust="spacing" textLength="60" x="551" y="988.2773">HNSWLib</text><rect fill="#E2E2F0" height="30.4883" rx="2.5" ry="2.5" style="stroke:#181818;stroke-width:0.5;" width="134" x="740" y="967.7422"/><text fill="#000000" font-family="sans-serif" font-size="14" lengthAdjust="spacing" textLength="120" x="747" y="988.2773">RetrievalQAChain</text><rect fill="#E2E2F0" height="30.4883" rx="2.5" ry="2.5" style="stroke:#181818;stroke-width:0.5;" width="155" x="1222.5" y="967.7422"/><text fill="#000000" font-family="sans-serif" font-size="14" lengthAdjust="spacing" textLength="141" x="1229.5" y="988.2773">VectorStoreRetriever</text><rect fill="#E2E2F0" height="30.4883" rx="2.5" ry="2.5" style="stroke:#181818;stroke-width:0.5;" width="80" x="1387.5" y="967.7422"/><text fill="#000000" font-family="sans-serif" font-size="14" lengthAdjust="spacing" textLength="66" x="1394.5" y="988.2773">LLMChain</text><rect fill="#E2E2F0" height="30.4883" rx="2.5" ry="2.5" style="stroke:#181818;stroke-width:0.5;" width="156" x="1477.5" y="967.7422"/><text fill="#000000" font-family="sans-serif" font-size="14" lengthAdjust="spacing" textLength="142" x="1484.5" y="988.2773">StuffDocumentChain</text><rect fill="#FFFFFF" height="29.3105" style="stroke:#181818;stroke-width:1.0;" width="10" x="235" y="195.7754"/><rect fill="#FFFFFF" height="73.7988" style="stroke:#181818;stroke-width:1.0;" width="10" x="576" y="305.8848"/><rect fill="#FFFFFF" height="14" style="stroke:#181818;stroke-width:1.0;" width="10" x="576" y="408.9941"/><rect fill="#FFFFFF" height="94.6211" style="stroke:#181818;stroke-width:1.0;" width="10" x="576" y="747.5"/><rect fill="#FFFFFF" height="28" style="stroke:#181818;stroke-width:1.0;" width="10" x="581" y="814.1211"/><rect fill="#FFFFFF" height="99.9766" style="stroke:#181818;stroke-width:1.0;" width="10" x="802" y="489.793"/><rect fill="#FFFFFF" height="60.4883" style="stroke:#181818;stroke-width:1.0;" width="10" x="807" y="529.2813"/><rect fill="#FFFFFF" height="297.1738" style="stroke:#181818;stroke-width:1.0;" width="10" x="802" y="646.5684"/><rect fill="#FFFFFF" height="259.8633" style="stroke:#181818;stroke-width:1.0;" width="10" x="807" y="683.8789"/><rect fill="#FFFFFF" height="123.9316" style="stroke:#181818;stroke-width:1.0;" width="10" x="1295" y="718.1895"/><rect fill="#FFFFFF" height="65.3105" style="stroke:#181818;stroke-width:1.0;" width="10" x="1550.5" y="878.4316"/><rect fill="#FFFFFF" height="28" style="stroke:#181818;stroke-width:1.0;" width="10" x="1555.5" y="915.7422"/><polygon fill="#181818" points="40,93.4883,50,97.4883,40,101.4883,44,97.4883" style="stroke:#181818;stroke-width:1.0;"/><line style="stroke:#181818;stroke-width:1.0;" x1="23.5" x2="46" y1="97.4883" y2="97.4883"/><rect fill="#E2E2F0" height="30.4883" rx="2.5" ry="2.5" style="stroke:#181818;stroke-width:0.5;" width="65" x="52" y="91.4883"/><text fill="#000000" font-family="sans-serif" font-size="14" lengthAdjust="spacing" textLength="51" x="59" y="112.0234">OpenAI</text><polygon fill="#181818" points="115,134.9766,125,138.9766,115,142.9766,119,138.9766" style="stroke:#181818;stroke-width:1.0;"/><line style="stroke:#181818;stroke-width:1.0;" x1="23.5" x2="121" y1="138.9766" y2="138.9766"/><rect fill="#E2E2F0" height="30.4883" rx="2.5" ry="2.5" style="stroke:#181818;stroke-width:0.5;" width="226" x="127" y="132.9766"/><text fill="#000000" font-family="sans-serif" font-size="14" lengthAdjust="spacing" textLength="212" x="134" y="153.5117">RecursiveCharacterTextSplitter</text><polygon fill="#181818" points="223,191.7754,233,195.7754,223,199.7754,227,195.7754" style="stroke:#181818;stroke-width:1.0;"/><line style="stroke:#181818;stroke-width:1.0;" x1="23.5" x2="229" y1="195.7754" y2="195.7754"/><text fill="#000000" font-family="sans-serif" font-size="13" lengthAdjust="spacing" textLength="110" x="30.5" y="191.0332">createDocuments</text><polygon fill="#181818" points="34.5,221.0859,24.5,225.0859,34.5,229.0859,30.5,225.0859" style="stroke:#181818;stroke-width:1.0;"/><line style="stroke:#181818;stroke-width:1.0;stroke-dasharray:2.0,2.0;" x1="28.5" x2="239" y1="225.0859" y2="225.0859"/><text fill="#000000" font-family="sans-serif" font-size="13" lengthAdjust="spacing" textLength="30" x="40.5" y="220.3438">docs</text><polygon fill="#181818" points="351,235.0859,361,239.0859,351,243.0859,355,239.0859" style="stroke:#181818;stroke-width:1.0;"/><line style="stroke:#181818;stroke-width:1.0;" x1="23.5" x2="357" y1="239.0859" y2="239.0859"/><rect fill="#E2E2F0" height="30.4883" rx="2.5" ry="2.5" style="stroke:#181818;stroke-width:0.5;" width="150" x="363" y="233.0859"/><text fill="#000000" font-family="sans-serif" font-size="14" lengthAdjust="spacing" textLength="136" x="370" y="253.6211">OpenAIEmbeddings</text><polygon fill="#181818" points="532,291.8848,542,295.8848,532,299.8848,536,295.8848" style="stroke:#181818;stroke-width:1.0;"/><line style="stroke:#181818;stroke-width:1.0;" x1="23.5" x2="538" y1="295.8848" y2="295.8848"/><text fill="#000000" font-family="sans-serif" font-size="13" lengthAdjust="spacing" textLength="102" x="30.5" y="291.1426">fromDocuments</text><rect fill="#E2E2F0" height="30.4883" rx="2.5" ry="2.5" style="stroke:#181818;stroke-width:0.5;" width="74" x="544" y="274.5742"/><text fill="#000000" font-family="sans-serif" font-size="14" lengthAdjust="spacing" textLength="60" x="551" y="295.1094">HNSWLib</text><line style="stroke:#181818;stroke-width:1.0;" x1="586" x2="628" y1="337.373" y2="337.373"/><line style="stroke:#181818;stroke-width:1.0;" x1="628" x2="628" y1="337.373" y2="350.373"/><line style="stroke:#181818;stroke-width:1.0;" x1="587" x2="628" y1="350.373" y2="350.373"/><polygon fill="#181818" points="597,346.373,587,350.373,597,354.373,593,350.373" style="stroke:#181818;stroke-width:1.0;"/><text fill="#000000" font-family="sans-serif" font-size="13" lengthAdjust="spacing" textLength="95" x="593" y="332.6309">addDocuments</text><polygon fill="#181818" points="449,375.6836,439,379.6836,449,383.6836,445,379.6836" style="stroke:#181818;stroke-width:1.0;"/><line style="stroke:#181818;stroke-width:1.0;" x1="443" x2="580" y1="379.6836" y2="379.6836"/><text fill="#000000" font-family="sans-serif" font-size="13" lengthAdjust="spacing" textLength="114" x="455" y="374.9414">embedDocuments</text><polygon fill="#181818" points="564,404.9941,574,408.9941,564,412.9941,568,408.9941" style="stroke:#181818;stroke-width:1.0;"/><line style="stroke:#181818;stroke-width:1.0;" x1="23.5" x2="570" y1="408.9941" y2="408.9941"/><text fill="#000000" font-family="sans-serif" font-size="13" lengthAdjust="spacing" textLength="69" x="30.5" y="404.252">asRetriever</text><polygon fill="#181818" points="1210.5,418.9941,1220.5,422.9941,1210.5,426.9941,1214.5,422.9941" style="stroke:#181818;stroke-width:1.0;"/><line style="stroke:#181818;stroke-width:1.0;" x1="581" x2="1216.5" y1="422.9941" y2="422.9941"/><rect fill="#E2E2F0" height="30.4883" rx="2.5" ry="2.5" style="stroke:#181818;stroke-width:0.5;" width="155" x="1222.5" y="416.9941"/><text fill="#000000" font-family="sans-serif" font-size="14" lengthAdjust="spacing" textLength="141" x="1229.5" y="437.5293">VectorStoreRetriever</text><polygon fill="#181818" points="728,475.793,738,479.793,728,483.793,732,479.793" style="stroke:#181818;stroke-width:1.0;"/><line style="stroke:#181818;stroke-width:1.0;" x1="23.5" x2="734" y1="479.793" y2="479.793"/><text fill="#000000" font-family="sans-serif" font-size="13" lengthAdjust="spacing" textLength="55" x="30.5" y="475.0508">fromLLM</text><rect fill="#E2E2F0" height="30.4883" rx="2.5" ry="2.5" style="stroke:#181818;stroke-width:0.5;" width="134" x="740" y="458.4824"/><text fill="#000000" font-family="sans-serif" font-size="14" lengthAdjust="spacing" textLength="120" x="747" y="479.0176">RetrievalQAChain</text><line style="stroke:#181818;stroke-width:1.0;" x1="812" x2="859" y1="516.2813" y2="516.2813"/><line style="stroke:#181818;stroke-width:1.0;" x1="859" x2="859" y1="516.2813" y2="529.2813"/><line style="stroke:#181818;stroke-width:1.0;" x1="818" x2="859" y1="529.2813" y2="529.2813"/><polygon fill="#181818" points="828,525.2813,818,529.2813,828,533.2813,824,529.2813" style="stroke:#181818;stroke-width:1.0;"/><text fill="#000000" font-family="sans-serif" font-size="13" lengthAdjust="spacing" textLength="112" x="824" y="511.5391">loadQAStuffChain</text><polygon fill="#181818" points="1375.5,544.2813,1385.5,548.2813,1375.5,552.2813,1379.5,548.2813" style="stroke:#181818;stroke-width:1.0;"/><line style="stroke:#181818;stroke-width:1.0;" x1="817" x2="1381.5" y1="548.2813" y2="548.2813"/><rect fill="#E2E2F0" height="30.4883" rx="2.5" ry="2.5" style="stroke:#181818;stroke-width:0.5;" width="80" x="1387.5" y="542.2813"/><text fill="#000000" font-family="sans-serif" font-size="14" lengthAdjust="spacing" textLength="66" x="1394.5" y="562.8164">LLMChain</text><polygon fill="#181818" points="1465.5,585.7695,1475.5,589.7695,1465.5,593.7695,1469.5,589.7695" style="stroke:#181818;stroke-width:1.0;"/><line style="stroke:#181818;stroke-width:1.0;" x1="807" x2="1471.5" y1="589.7695" y2="589.7695"/><rect fill="#E2E2F0" height="30.4883" rx="2.5" ry="2.5" style="stroke:#181818;stroke-width:0.5;" width="156" x="1477.5" y="583.7695"/><text fill="#000000" font-family="sans-serif" font-size="14" lengthAdjust="spacing" textLength="142" x="1484.5" y="604.3047">StuffDocumentChain</text><polygon fill="#181818" points="790,642.5684,800,646.5684,790,650.5684,794,646.5684" style="stroke:#181818;stroke-width:1.0;"/><line style="stroke:#181818;stroke-width:1.0;" x1="23.5" x2="796" y1="646.5684" y2="646.5684"/><text fill="#000000" font-family="sans-serif" font-size="13" lengthAdjust="spacing" textLength="90" x="30.5" y="641.8262">BaseChain.call</text><line style="stroke:#181818;stroke-width:1.0;" x1="812" x2="859" y1="670.8789" y2="670.8789"/><line style="stroke:#181818;stroke-width:1.0;" x1="859" x2="859" y1="670.8789" y2="683.8789"/><line style="stroke:#181818;stroke-width:1.0;" x1="818" x2="859" y1="683.8789" y2="683.8789"/><polygon fill="#181818" points="828,679.8789,818,683.8789,828,687.8789,824,683.8789" style="stroke:#181818;stroke-width:1.0;"/><text fill="#000000" font-family="sans-serif" font-size="13" lengthAdjust="spacing" textLength="29" x="824" y="666.1367">_call</text><polygon fill="#181818" points="1283,714.1895,1293,718.1895,1283,722.1895,1287,718.1895" style="stroke:#181818;stroke-width:1.0;"/><line style="stroke:#181818;stroke-width:1.0;" x1="817" x2="1289" y1="718.1895" y2="718.1895"/><text fill="#000000" font-family="sans-serif" font-size="13" lengthAdjust="spacing" textLength="459" x="824" y="713.4473">getRelevantDocuments('What did the president say about Justice Breyer?')</text><polygon fill="#181818" points="597,743.5,587,747.5,597,751.5,593,747.5" style="stroke:#181818;stroke-width:1.0;"/><line style="stroke:#181818;stroke-width:1.0;" x1="591" x2="1294" y1="747.5" y2="747.5"/><text fill="#000000" font-family="sans-serif" font-size="13" lengthAdjust="spacing" textLength="100" x="603" y="742.7578">similaritySearch</text><polygon fill="#181818" points="449,772.8105,439,776.8105,449,780.8105,445,776.8105" style="stroke:#181818;stroke-width:1.0;"/><line style="stroke:#181818;stroke-width:1.0;" x1="443" x2="575" y1="776.8105" y2="776.8105"/><text fill="#000000" font-family="sans-serif" font-size="13" lengthAdjust="spacing" textLength="79" x="455" y="772.0684">embedQuery</text><line style="stroke:#181818;stroke-width:1.0;" x1="591" x2="633" y1="806.1211" y2="806.1211"/><line style="stroke:#181818;stroke-width:1.0;" x1="633" x2="633" y1="806.1211" y2="819.1211"/><line style="stroke:#181818;stroke-width:1.0;" x1="592" x2="633" y1="819.1211" y2="819.1211"/><polygon fill="#181818" points="602,815.1211,592,819.1211,602,823.1211,598,819.1211" style="stroke:#181818;stroke-width:1.0;"/><text fill="#000000" font-family="sans-serif" font-size="13" lengthAdjust="spacing" textLength="202" x="598" y="801.3789">similaritySearchVectorWithScore</text><polygon fill="#181818" points="1538.5,874.4316,1548.5,878.4316,1538.5,882.4316,1542.5,878.4316" style="stroke:#181818;stroke-width:1.0;"/><line style="stroke:#181818;stroke-width:1.0;" x1="817" x2="1544.5" y1="878.4316" y2="878.4316"/><text fill="#000000" font-family="sans-serif" font-size="13" lengthAdjust="spacing" textLength="90" x="824" y="873.6895">BaseChain.call</text><line style="stroke:#181818;stroke-width:1.0;" x1="1565.5" x2="1607.5" y1="907.7422" y2="907.7422"/><line style="stroke:#181818;stroke-width:1.0;" x1="1607.5" x2="1607.5" y1="907.7422" y2="920.7422"/><line style="stroke:#181818;stroke-width:1.0;" x1="1566.5" x2="1607.5" y1="920.7422" y2="920.7422"/><polygon fill="#181818" points="1576.5,916.7422,1566.5,920.7422,1576.5,924.7422,1572.5,920.7422" style="stroke:#181818;stroke-width:1.0;"/><text fill="#000000" font-family="sans-serif" font-size="13" lengthAdjust="spacing" textLength="29" x="1572.5" y="903">_call</text><!--MD5=[8b3e7d9d4a3e9d001a17a8f656693a6e]
--></g></svg>
