<?xml version="1.0" encoding="us-ascii" standalone="no"?><svg xmlns="http://www.w3.org/2000/svg" xmlns:xlink="http://www.w3.org/1999/xlink" contentStyleType="text/css" height="336px" preserveAspectRatio="none" style="width:1546px;height:336px;background:#FFFFFF;" version="1.1" viewBox="0 0 1546 336" width="1546px" zoomAndPan="magnify"><defs/><g><rect fill="#DDDDDD" height="324.4609" style="stroke:#181818;stroke-width:0.5;" width="261" x="1" y="6"/><text fill="#000000" font-family="sans-serif" font-size="13" font-weight="bold" lengthAdjust="spacing" textLength="39" x="112" y="18.5684">Client</text><rect fill="#DDDDDD" height="324.4609" style="stroke:#181818;stroke-width:0.5;" width="166" x="264" y="6"/><text fill="#000000" font-family="sans-serif" font-size="13" font-weight="bold" lengthAdjust="spacing" textLength="124" x="285" y="18.5684">@boxyhq/react-ui</text><rect fill="#DDDDDD" height="324.4609" style="stroke:#181818;stroke-width:0.5;" width="367.5" x="528.5" y="6"/><text fill="#000000" font-family="sans-serif" font-size="13" font-weight="bold" lengthAdjust="spacing" textLength="158" x="633.25" y="18.5684">Server: saas-starter-kit</text><rect fill="#DDDDDD" height="324.4609" style="stroke:#181818;stroke-width:0.5;" width="325" x="1020.5" y="6"/><text fill="#000000" font-family="sans-serif" font-size="13" font-weight="bold" lengthAdjust="spacing" textLength="101" x="1132.5" y="18.5684">Server: jackson</text><rect fill="#DDDDDD" height="324.4609" style="stroke:#181818;stroke-width:0.5;" width="193" x="1347.5" y="6"/><text fill="#000000" font-family="sans-serif" font-size="13" font-weight="bold" lengthAdjust="spacing" textLength="160" x="1364" y="18.5684">@boxyhq/saml-jackson</text><rect fill="#FFFFFF" height="189.8633" style="stroke:#181818;stroke-width:1.0;" width="10" x="213.5" y="88.1094"/><rect fill="#FFFFFF" height="175.8633" style="stroke:#181818;stroke-width:1.0;" width="10" x="342" y="102.1094"/><rect fill="#FFFFFF" height="146.5527" style="stroke:#181818;stroke-width:1.0;" width="10" x="588" y="131.4199"/><rect fill="#FFFFFF" height="117.2422" style="stroke:#181818;stroke-width:1.0;" width="10" x="691" y="160.7305"/><rect fill="#FFFFFF" height="87.9316" style="stroke:#181818;stroke-width:1.0;" width="10" x="830" y="190.041"/><rect fill="#FFFFFF" height="58.6211" style="stroke:#181818;stroke-width:1.0;" width="10" x="1074" y="219.3516"/><rect fill="#FFFFFF" height="29.3105" style="stroke:#181818;stroke-width:1.0;" width="10" x="1237.5" y="248.6621"/><line style="stroke:#181818;stroke-width:0.5;stroke-dasharray:5.0,5.0;" x1="39" x2="39" y1="56.7988" y2="295.9727"/><line style="stroke:#181818;stroke-width:0.5;stroke-dasharray:5.0,5.0;" x1="218" x2="218" y1="56.7988" y2="295.9727"/><line style="stroke:#181818;stroke-width:0.5;stroke-dasharray:5.0,5.0;" x1="347" x2="347" y1="56.7988" y2="295.9727"/><line style="stroke:#181818;stroke-width:0.5;stroke-dasharray:5.0,5.0;" x1="592.5" x2="592.5" y1="56.7988" y2="295.9727"/><line style="stroke:#181818;stroke-width:0.5;stroke-dasharray:5.0,5.0;" x1="695.5" x2="695.5" y1="56.7988" y2="295.9727"/><line style="stroke:#181818;stroke-width:0.5;stroke-dasharray:5.0,5.0;" x1="835" x2="835" y1="56.7988" y2="295.9727"/><line style="stroke:#181818;stroke-width:0.5;stroke-dasharray:5.0,5.0;" x1="1078.5" x2="1078.5" y1="56.7988" y2="295.9727"/><line style="stroke:#181818;stroke-width:0.5;stroke-dasharray:5.0,5.0;" x1="1242.5" x2="1242.5" y1="56.7988" y2="295.9727"/><line style="stroke:#181818;stroke-width:0.5;stroke-dasharray:5.0,5.0;" x1="1443.5" x2="1443.5" y1="56.7988" y2="295.9727"/><rect fill="#E2E2F0" height="30.4883" rx="2.5" ry="2.5" style="stroke:#181818;stroke-width:0.5;" width="69" x="5" y="25.3105"/><text fill="#000000" font-family="sans-serif" font-size="14" lengthAdjust="spacing" textLength="55" x="12" y="45.8457">Browser</text><rect fill="#E2E2F0" height="30.4883" rx="2.5" ry="2.5" style="stroke:#181818;stroke-width:0.5;" width="69" x="5" y="294.9727"/><text fill="#000000" font-family="sans-serif" font-size="14" lengthAdjust="spacing" textLength="55" x="12" y="315.5078">Browser</text><rect fill="#E2E2F0" height="30.4883" rx="2.5" ry="2.5" style="stroke:#181818;stroke-width:0.5;" width="79" x="179" y="25.3105"/><text fill="#000000" font-family="sans-serif" font-size="14" lengthAdjust="spacing" textLength="65" x="186" y="45.8457">TeamSSO</text><rect fill="#E2E2F0" height="30.4883" rx="2.5" ry="2.5" style="stroke:#181818;stroke-width:0.5;" width="79" x="179" y="294.9727"/><text fill="#000000" font-family="sans-serif" font-size="14" lengthAdjust="spacing" textLength="65" x="186" y="315.5078">TeamSSO</text><rect fill="#E2E2F0" height="30.4883" rx="2.5" ry="2.5" style="stroke:#181818;stroke-width:0.5;" width="158" x="268" y="25.3105"/><text fill="#000000" font-family="sans-serif" font-size="14" lengthAdjust="spacing" textLength="144" x="275" y="45.8457">ConnectionsWrapper</text><rect fill="#E2E2F0" height="30.4883" rx="2.5" ry="2.5" style="stroke:#181818;stroke-width:0.5;" width="158" x="268" y="294.9727"/><text fill="#000000" font-family="sans-serif" font-size="14" lengthAdjust="spacing" textLength="144" x="275" y="315.5078">ConnectionsWrapper</text><rect fill="#E2E2F0" height="30.4883" rx="2.5" ry="2.5" style="stroke:#181818;stroke-width:0.5;" width="121" x="532.5" y="25.3105"/><text fill="#000000" font-family="sans-serif" font-size="14" lengthAdjust="spacing" textLength="107" x="539.5" y="45.8457">StarterKitServer</text><rect fill="#E2E2F0" height="30.4883" rx="2.5" ry="2.5" style="stroke:#181818;stroke-width:0.5;" width="121" x="532.5" y="294.9727"/><text fill="#000000" font-family="sans-serif" font-size="14" lengthAdjust="spacing" textLength="107" x="539.5" y="315.5078">StarterKitServer</text><rect fill="#E2E2F0" height="30.4883" rx="2.5" ry="2.5" style="stroke:#181818;stroke-width:0.5;" width="53" x="669.5" y="25.3105"/><text fill="#000000" font-family="sans-serif" font-size="14" lengthAdjust="spacing" textLength="39" x="676.5" y="45.8457">sso.ts</text><rect fill="#E2E2F0" height="30.4883" rx="2.5" ry="2.5" style="stroke:#181818;stroke-width:0.5;" width="53" x="669.5" y="294.9727"/><text fill="#000000" font-family="sans-serif" font-size="14" lengthAdjust="spacing" textLength="39" x="676.5" y="315.5078">sso.ts</text><rect fill="#E2E2F0" height="30.4883" rx="2.5" ry="2.5" style="stroke:#181818;stroke-width:0.5;" width="114" x="778" y="25.3105"/><text fill="#000000" font-family="sans-serif" font-size="14" lengthAdjust="spacing" textLength="100" x="785" y="45.8457">JacksonHosted</text><rect fill="#E2E2F0" height="30.4883" rx="2.5" ry="2.5" style="stroke:#181818;stroke-width:0.5;" width="114" x="778" y="294.9727"/><text fill="#000000" font-family="sans-serif" font-size="14" lengthAdjust="spacing" textLength="100" x="785" y="315.5078">JacksonHosted</text><rect fill="#E2E2F0" height="30.4883" rx="2.5" ry="2.5" style="stroke:#181818;stroke-width:0.5;" width="109" x="1024.5" y="25.3105"/><text fill="#000000" font-family="sans-serif" font-size="14" lengthAdjust="spacing" textLength="95" x="1031.5" y="45.8457">JacksonServer</text><rect fill="#E2E2F0" height="30.4883" rx="2.5" ry="2.5" style="stroke:#181818;stroke-width:0.5;" width="109" x="1024.5" y="294.9727"/><text fill="#000000" font-family="sans-serif" font-size="14" lengthAdjust="spacing" textLength="95" x="1031.5" y="315.5078">JacksonServer</text><rect fill="#E2E2F0" height="30.4883" rx="2.5" ry="2.5" style="stroke:#181818;stroke-width:0.5;" width="198" x="1143.5" y="25.3105"/><text fill="#000000" font-family="sans-serif" font-size="14" lengthAdjust="spacing" textLength="184" x="1150.5" y="45.8457">pages/api/v1/sso/index.ts</text><rect fill="#E2E2F0" height="30.4883" rx="2.5" ry="2.5" style="stroke:#181818;stroke-width:0.5;" width="198" x="1143.5" y="294.9727"/><text fill="#000000" font-family="sans-serif" font-size="14" lengthAdjust="spacing" textLength="184" x="1150.5" y="315.5078">pages/api/v1/sso/index.ts</text><rect fill="#E2E2F0" height="30.4883" rx="2.5" ry="2.5" style="stroke:#181818;stroke-width:0.5;" width="185" x="1351.5" y="25.3105"/><text fill="#000000" font-family="sans-serif" font-size="14" lengthAdjust="spacing" textLength="171" x="1358.5" y="45.8457">ConnectionAPIController</text><rect fill="#E2E2F0" height="30.4883" rx="2.5" ry="2.5" style="stroke:#181818;stroke-width:0.5;" width="185" x="1351.5" y="294.9727"/><text fill="#000000" font-family="sans-serif" font-size="14" lengthAdjust="spacing" textLength="171" x="1358.5" y="315.5078">ConnectionAPIController</text><rect fill="#FFFFFF" height="189.8633" style="stroke:#181818;stroke-width:1.0;" width="10" x="213.5" y="88.1094"/><rect fill="#FFFFFF" height="175.8633" style="stroke:#181818;stroke-width:1.0;" width="10" x="342" y="102.1094"/><rect fill="#FFFFFF" height="146.5527" style="stroke:#181818;stroke-width:1.0;" width="10" x="588" y="131.4199"/><rect fill="#FFFFFF" height="117.2422" style="stroke:#181818;stroke-width:1.0;" width="10" x="691" y="160.7305"/><rect fill="#FFFFFF" height="87.9316" style="stroke:#181818;stroke-width:1.0;" width="10" x="830" y="190.041"/><rect fill="#FFFFFF" height="58.6211" style="stroke:#181818;stroke-width:1.0;" width="10" x="1074" y="219.3516"/><rect fill="#FFFFFF" height="29.3105" style="stroke:#181818;stroke-width:1.0;" width="10" x="1237.5" y="248.6621"/><polygon fill="#181818" points="201.5,84.1094,211.5,88.1094,201.5,92.1094,205.5,88.1094" style="stroke:#181818;stroke-width:1.0;"/><line style="stroke:#181818;stroke-width:1.0;" x1="39.5" x2="207.5" y1="88.1094" y2="88.1094"/><text fill="#000000" font-family="sans-serif" font-size="13" lengthAdjust="spacing" textLength="155" x="46.5" y="83.3672">/teams/{team-slug}/sso</text><polygon fill="#181818" points="330,98.1094,340,102.1094,330,106.1094,334,102.1094" style="stroke:#181818;stroke-width:1.0;"/><line style="stroke:#181818;stroke-width:1.0;" x1="223.5" x2="336" y1="102.1094" y2="102.1094"/><polygon fill="#181818" points="576,127.4199,586,131.4199,576,135.4199,580,131.4199" style="stroke:#181818;stroke-width:1.0;"/><line style="stroke:#181818;stroke-width:1.0;stroke-dasharray:2.0,2.0;" x1="352" x2="582" y1="131.4199" y2="131.4199"/><text fill="#000000" font-family="sans-serif" font-size="13" lengthAdjust="spacing" textLength="217" x="359" y="126.6777">POST /api/teams/{team-slug}/sso</text><polygon fill="#181818" points="679,156.7305,689,160.7305,679,164.7305,683,160.7305" style="stroke:#181818;stroke-width:1.0;"/><line style="stroke:#181818;stroke-width:1.0;" x1="598" x2="685" y1="160.7305" y2="160.7305"/><text fill="#000000" font-family="sans-serif" font-size="13" lengthAdjust="spacing" textLength="74" x="605" y="155.9883">handlePOST</text><polygon fill="#181818" points="818,186.041,828,190.041,818,194.041,822,190.041" style="stroke:#181818;stroke-width:1.0;"/><line style="stroke:#181818;stroke-width:1.0;" x1="701" x2="824" y1="190.041" y2="190.041"/><text fill="#000000" font-family="sans-serif" font-size="13" lengthAdjust="spacing" textLength="110" x="708" y="185.2988">createConnection</text><polygon fill="#181818" points="1062,215.3516,1072,219.3516,1062,223.3516,1066,219.3516" style="stroke:#181818;stroke-width:1.0;"/><line style="stroke:#181818;stroke-width:1.0;stroke-dasharray:2.0,2.0;" x1="840" x2="1068" y1="219.3516" y2="219.3516"/><text fill="#000000" font-family="sans-serif" font-size="13" lengthAdjust="spacing" textLength="215" x="847" y="214.6094">http://localhost:5225/api/v1/sso</text><polygon fill="#181818" points="1225.5,244.6621,1235.5,248.6621,1225.5,252.6621,1229.5,248.6621" style="stroke:#181818;stroke-width:1.0;"/><line style="stroke:#181818;stroke-width:1.0;" x1="1084" x2="1231.5" y1="248.6621" y2="248.6621"/><text fill="#000000" font-family="sans-serif" font-size="13" lengthAdjust="spacing" textLength="74" x="1091" y="243.9199">handlePOST</text><polygon fill="#181818" points="1432,273.9727,1442,277.9727,1432,281.9727,1436,277.9727" style="stroke:#181818;stroke-width:1.0;"/><line style="stroke:#181818;stroke-width:1.0;" x1="1242.5" x2="1438" y1="277.9727" y2="277.9727"/><text fill="#000000" font-family="sans-serif" font-size="13" lengthAdjust="spacing" textLength="144" x="1249.5" y="273.2305">createSAMLConnection</text><!--SRC=[XLF9Ri8m4BtdAqQvfrOhSScXAkNILI05gSVA92DmCNRgCPIgwh_N1XBir5Nd06QMzsPvBFGUyeaKg6oUjTnOKOkMAmktHdyGciWtHxwfgcc6ge65tcVPmbVVkC_FrJipo6jRR4MCCz5AOMs5LlHYUDiwoBYyGhD3Km9nJWLPLugcM8j1EzKny2ZiCJyAvaJwmb8EdC0zezW3hzUarPqcYyqVr6_7d3nLcA9h-HA9yLQmtILpX4oe1lTT1oUqLzz9UbF4Dx98afwtDPxTkn_MQ2d3bPtE0iLrTuqIc7KlOb_-go2vNNxxfZ9t3R7Z5lkpGVVorOcx0FGboIWat50uhE5nIfXDgpaSDfJkpOFrPBzk2mSRkdtNhhQ45LUDH4znokoHEcXlxkqhelkNK3kLMZpFqQVt6B5WeBV8VnWxKeXhozgsP4pgcikLoof7LrUZG2K1rf0icZkYEuyUo2gnWW5kg468B8Z4CeW4rosg6Zy_9PRbhS5_s8A4z9Y_4wAb1-4EE70bH1D44_eDejqVuWS0]--></g></svg>