<?xml version="1.0" encoding="UTF-8" standalone="no"?><svg xmlns="http://www.w3.org/2000/svg" xmlns:xlink="http://www.w3.org/1999/xlink" contentStyleType="text/css" height="643px" preserveAspectRatio="none" style="width:1468px;height:643px;background:#FFFFFF;" version="1.1" viewBox="0 0 1468 643" width="1468px" zoomAndPan="magnify"><defs/><g><rect fill="#DDDDDD" height="631.6" style="stroke:#181818;stroke-width:0.5;" width="1058.5" x="404" y="6"/><text fill="#000000" font-family="D2Coding" font-size="13" font-weight="bold" lengthAdjust="spacing" textLength="49" x="908.75" y="18.09">yuebing</text><rect fill="#FFFFFF" height="158.4" style="stroke:#181818;stroke-width:1.0;" width="10" x="549.5" y="176.48"/><rect fill="#FFFFFF" height="92.24" style="stroke:#181818;stroke-width:1.0;" width="10" x="554.5" y="242.64"/><rect fill="#FFFFFF" height="165.36" style="stroke:#181818;stroke-width:1.0;" width="10" x="865" y="363.96"/><rect fill="#FFFFFF" height="86.2" style="stroke:#181818;stroke-width:1.0;" width="10" x="870" y="443.12"/><rect fill="#FFFFFF" height="44.12" style="stroke:#181818;stroke-width:1.0;" width="10" x="875" y="485.2"/><rect fill="#FFFFFF" height="21.08" style="stroke:#181818;stroke-width:1.0;" width="10" x="1328" y="91.24"/><line style="stroke:#181818;stroke-width:0.5;stroke-dasharray:5.0,5.0;" x1="100" x2="100" y1="81.24" y2="558.36"/><line style="stroke:#181818;stroke-width:0.5;stroke-dasharray:5.0,5.0;" x1="453" x2="453" y1="81.24" y2="558.36"/><line style="stroke:#181818;stroke-width:0.5;stroke-dasharray:5.0,5.0;" x1="554" x2="554" y1="81.24" y2="558.36"/><line style="stroke:#181818;stroke-width:0.5;stroke-dasharray:5.0,5.0;" x1="793.5" x2="793.5" y1="81.24" y2="558.36"/><line style="stroke:#181818;stroke-width:0.5;stroke-dasharray:5.0,5.0;" x1="869.5" x2="869.5" y1="81.24" y2="558.36"/><line style="stroke:#181818;stroke-width:0.5;stroke-dasharray:5.0,5.0;" x1="1332.5" x2="1332.5" y1="81.24" y2="558.36"/><line style="stroke:#181818;stroke-width:0.5;stroke-dasharray:5.0,5.0;" x1="1419.5" x2="1419.5" y1="81.24" y2="558.36"/><text fill="#000000" font-family="D2Coding" font-size="14" lengthAdjust="spacing" textLength="49" x="73" y="78.02">Browser</text><ellipse cx="100.5" cy="13.5" fill="#E2E2F0" rx="8" ry="8" style="stroke:#181818;stroke-width:0.5;"/><path d="M100.5,21.5 L100.5,48.5 M87.5,29.5 L113.5,29.5 M100.5,48.5 L87.5,63.5 M100.5,48.5 L113.5,63.5 " fill="none" style="stroke:#181818;stroke-width:0.5;"/><text fill="#000000" font-family="D2Coding" font-size="14" lengthAdjust="spacing" textLength="49" x="73" y="570.38">Browser</text><ellipse cx="100.5" cy="582.1" fill="#E2E2F0" rx="8" ry="8" style="stroke:#181818;stroke-width:0.5;"/><path d="M100.5,590.1 L100.5,617.1 M87.5,598.1 L113.5,598.1 M100.5,617.1 L87.5,632.1 M100.5,617.1 L113.5,632.1 " fill="none" style="stroke:#181818;stroke-width:0.5;"/><rect fill="#E2E2F0" height="30.24" rx="2.5" ry="2.5" style="stroke:#181818;stroke-width:0.5;" width="91" x="408" y="50"/><text fill="#000000" font-family="D2Coding" font-size="14" lengthAdjust="spacing" textLength="77" x="415" y="70.02">admin/paths</text><rect fill="#E2E2F0" height="30.24" rx="2.5" ry="2.5" style="stroke:#181818;stroke-width:0.5;" width="91" x="408" y="557.36"/><text fill="#000000" font-family="D2Coding" font-size="14" lengthAdjust="spacing" textLength="77" x="415" y="577.38">admin/paths</text><rect fill="#E2E2F0" height="30.24" rx="2.5" ry="2.5" style="stroke:#181818;stroke-width:0.5;" width="91" x="509" y="50"/><text fill="#000000" font-family="D2Coding" font-size="14" lengthAdjust="spacing" textLength="77" x="516" y="70.02">source/scan</text><rect fill="#E2E2F0" height="30.24" rx="2.5" ry="2.5" style="stroke:#181818;stroke-width:0.5;" width="91" x="509" y="557.36"/><text fill="#000000" font-family="D2Coding" font-size="14" lengthAdjust="spacing" textLength="77" x="516" y="577.38">source/scan</text><rect fill="#E2E2F0" height="30.24" rx="2.5" ry="2.5" style="stroke:#181818;stroke-width:0.5;" width="84" x="751.5" y="50"/><text fill="#000000" font-family="D2Coding" font-size="14" lengthAdjust="spacing" textLength="70" x="758.5" y="70.02">sourceUtil</text><rect fill="#E2E2F0" height="30.24" rx="2.5" ry="2.5" style="stroke:#181818;stroke-width:0.5;" width="84" x="751.5" y="557.36"/><text fill="#000000" font-family="D2Coding" font-size="14" lengthAdjust="spacing" textLength="70" x="758.5" y="577.38">sourceUtil</text><rect fill="#E2E2F0" height="30.24" rx="2.5" ry="2.5" style="stroke:#181818;stroke-width:0.5;" width="49" x="845.5" y="50"/><text fill="#000000" font-family="D2Coding" font-size="14" lengthAdjust="spacing" textLength="35" x="852.5" y="70.02">xform</text><rect fill="#E2E2F0" height="30.24" rx="2.5" ry="2.5" style="stroke:#181818;stroke-width:0.5;" width="49" x="845.5" y="557.36"/><text fill="#000000" font-family="D2Coding" font-size="14" lengthAdjust="spacing" textLength="35" x="852.5" y="577.38">xform</text><rect fill="#E2E2F0" height="30.24" rx="2.5" ry="2.5" style="stroke:#181818;stroke-width:0.5;" width="77" x="1294.5" y="50"/><text fill="#000000" font-family="D2Coding" font-size="14" lengthAdjust="spacing" textLength="63" x="1301.5" y="70.02">asset/job</text><rect fill="#E2E2F0" height="30.24" rx="2.5" ry="2.5" style="stroke:#181818;stroke-width:0.5;" width="77" x="1294.5" y="557.36"/><text fill="#000000" font-family="D2Coding" font-size="14" lengthAdjust="spacing" textLength="63" x="1301.5" y="577.38">asset/job</text><rect fill="#E2E2F0" height="30.24" rx="2.5" ry="2.5" style="stroke:#181818;stroke-width:0.5;" width="77" x="1381.5" y="50"/><text fill="#000000" font-family="D2Coding" font-size="14" lengthAdjust="spacing" textLength="63" x="1388.5" y="70.02">mobiletto</text><rect fill="#E2E2F0" height="30.24" rx="2.5" ry="2.5" style="stroke:#181818;stroke-width:0.5;" width="77" x="1381.5" y="557.36"/><text fill="#000000" font-family="D2Coding" font-size="14" lengthAdjust="spacing" textLength="63" x="1388.5" y="577.38">mobiletto</text><rect fill="#FFFFFF" height="158.4" style="stroke:#181818;stroke-width:1.0;" width="10" x="549.5" y="176.48"/><rect fill="#FFFFFF" height="92.24" style="stroke:#181818;stroke-width:1.0;" width="10" x="554.5" y="242.64"/><rect fill="#FFFFFF" height="165.36" style="stroke:#181818;stroke-width:1.0;" width="10" x="865" y="363.96"/><rect fill="#FFFFFF" height="86.2" style="stroke:#181818;stroke-width:1.0;" width="10" x="870" y="443.12"/><rect fill="#FFFFFF" height="44.12" style="stroke:#181818;stroke-width:1.0;" width="10" x="875" y="485.2"/><rect fill="#FFFFFF" height="21.08" style="stroke:#181818;stroke-width:1.0;" width="10" x="1328" y="91.24"/><polygon fill="#181818" points="1321,108.32,1331,112.32,1321,116.32,1325,112.32" style="stroke:#181818;stroke-width:1.0;"/><line style="stroke:#181818;stroke-width:1.0;" x1="870" x2="1327" y1="112.32" y2="112.32"/><text fill="#000000" font-family="D2Coding" font-size="13" lengthAdjust="spacing" textLength="105" x="877" y="107.33">initializeQueue</text><polygon fill="#181818" points="441.5,140.4,451.5,144.4,441.5,148.4,445.5,144.4" style="stroke:#181818;stroke-width:1.0;"/><line style="stroke:#181818;stroke-width:1.0;stroke-dasharray:2.0,2.0;" x1="100.5" x2="447.5" y1="144.4" y2="144.4"/><text fill="#000000" font-family="D2Coding" font-size="13" lengthAdjust="spacing" textLength="329" x="107.5" y="139.41">POST /api/admin/paths/{source}/{file path}/scan</text><path d="M5,125.32 L5,150.32 L96,150.32 L96,135.32 L86,125.32 L5,125.32 " fill="#FEFFDD" style="stroke:#181818;stroke-width:0.5;"/><path d="M86,125.32 L86,135.32 L96,135.32 L86,125.32 " fill="#FEFFDD" style="stroke:#181818;stroke-width:0.5;"/><text fill="#000000" font-family="D2Coding" font-size="13" lengthAdjust="spacing" textLength="70" x="11" y="142.41">Scan click</text><polygon fill="#181818" points="537.5,172.48,547.5,176.48,537.5,180.48,541.5,176.48" style="stroke:#181818;stroke-width:1.0;"/><line style="stroke:#181818;stroke-width:1.0;" x1="453.5" x2="543.5" y1="176.48" y2="176.48"/><text fill="#000000" font-family="D2Coding" font-size="13" lengthAdjust="spacing" textLength="56" x="460.5" y="171.49">scanPath</text><polygon fill="#181818" points="781.5,201.56,791.5,205.56,781.5,209.56,785.5,205.56" style="stroke:#181818;stroke-width:1.0;"/><line style="stroke:#181818;stroke-width:1.0;" x1="559.5" x2="787.5" y1="205.56" y2="205.56"/><text fill="#000000" font-family="D2Coding" font-size="13" lengthAdjust="spacing" textLength="210" x="566.5" y="200.57">extractSourceAndPathAndConnect</text><line style="stroke:#181818;stroke-width:1.0;" x1="559.5" x2="606.5" y1="229.64" y2="229.64"/><line style="stroke:#181818;stroke-width:1.0;" x1="606.5" x2="606.5" y1="229.64" y2="242.64"/><line style="stroke:#181818;stroke-width:1.0;" x1="565.5" x2="606.5" y1="242.64" y2="242.64"/><polygon fill="#181818" points="575.5,238.64,565.5,242.64,575.5,246.64,571.5,242.64" style="stroke:#181818;stroke-width:1.0;"/><text fill="#000000" font-family="D2Coding" font-size="13" lengthAdjust="spacing" textLength="28" x="571.5" y="224.65">scan</text><polygon fill="#181818" points="1408,272.72,1418,276.72,1408,280.72,1412,276.72" style="stroke:#181818;stroke-width:1.0;"/><line style="stroke:#181818;stroke-width:1.0;" x1="564.5" x2="1414" y1="276.72" y2="276.72"/><text fill="#000000" font-family="D2Coding" font-size="13" lengthAdjust="spacing" textLength="196" x="571.5" y="271.73">list({file path}, recursive)</text><polygon fill="#181818" points="858,301.8,868,305.8,858,309.8,862,305.8" style="stroke:#181818;stroke-width:1.0;"/><line style="stroke:#181818;stroke-width:1.0;" x1="564.5" x2="864" y1="305.8" y2="305.8"/><text fill="#000000" font-family="D2Coding" font-size="13" lengthAdjust="spacing" textLength="77" x="571.5" y="300.81">transform()</text><polygon fill="#181818" points="1321,330.88,1331,334.88,1321,338.88,1325,334.88" style="stroke:#181818;stroke-width:1.0;"/><line style="stroke:#181818;stroke-width:1.0;" x1="870" x2="1327" y1="334.88" y2="334.88"/><text fill="#000000" font-family="D2Coding" font-size="13" lengthAdjust="spacing" textLength="49" x="877" y="329.89">enqueue</text><polygon fill="#181818" points="886,359.96,876,363.96,886,367.96,882,363.96" style="stroke:#181818;stroke-width:1.0;"/><line style="stroke:#181818;stroke-width:1.0;" x1="880" x2="1332" y1="363.96" y2="363.96"/><text fill="#000000" font-family="D2Coding" font-size="13" lengthAdjust="spacing" textLength="154" x="892" y="358.97">XFORM_PROCESS_FUNCTION</text><line style="stroke:#181818;stroke-width:1.0;" x1="875" x2="917" y1="393.04" y2="393.04"/><line style="stroke:#181818;stroke-width:1.0;" x1="917" x2="917" y1="393.04" y2="406.04"/><line style="stroke:#181818;stroke-width:1.0;" x1="876" x2="917" y1="406.04" y2="406.04"/><polygon fill="#181818" points="886,402.04,876,406.04,886,410.04,882,406.04" style="stroke:#181818;stroke-width:1.0;"/><text fill="#000000" font-family="D2Coding" font-size="13" lengthAdjust="spacing" textLength="154" x="882" y="388.05">ensureSourceDownloaded</text><line style="stroke:#181818;stroke-width:1.0;" x1="875" x2="922" y1="430.12" y2="430.12"/><line style="stroke:#181818;stroke-width:1.0;" x1="922" x2="922" y1="430.12" y2="443.12"/><line style="stroke:#181818;stroke-width:1.0;" x1="881" x2="922" y1="443.12" y2="443.12"/><polygon fill="#181818" points="891,439.12,881,443.12,891,447.12,887,443.12" style="stroke:#181818;stroke-width:1.0;"/><text fill="#000000" font-family="D2Coding" font-size="13" lengthAdjust="spacing" textLength="238" x="887" y="425.13">createArtifacts(mediainfo_details)</text><line style="stroke:#181818;stroke-width:1.0;" x1="880" x2="927" y1="472.2" y2="472.2"/><line style="stroke:#181818;stroke-width:1.0;" x1="927" x2="927" y1="472.2" y2="485.2"/><line style="stroke:#181818;stroke-width:1.0;" x1="886" x2="927" y1="485.2" y2="485.2"/><polygon fill="#181818" points="896,481.2,886,485.2,896,489.2,892,485.2" style="stroke:#181818;stroke-width:1.0;"/><text fill="#000000" font-family="D2Coding" font-size="13" lengthAdjust="spacing" textLength="434" x="892" y="467.21">mediaTransform(/tmp/yuebing_workdir/{shasum(path)}/source.mp4)</text><line style="stroke:#181818;stroke-width:1.0;" x1="885" x2="927" y1="528.32" y2="528.32"/><line style="stroke:#181818;stroke-width:1.0;" x1="927" x2="927" y1="528.32" y2="541.32"/><line style="stroke:#181818;stroke-width:1.0;" x1="880" x2="927" y1="541.32" y2="541.32"/><polygon fill="#181818" points="890,537.32,880,541.32,890,545.32,886,541.32" style="stroke:#181818;stroke-width:1.0;"/><text fill="#000000" font-family="D2Coding" font-size="13" lengthAdjust="spacing" textLength="133" x="892" y="523.33">runTransformCommand</text><path d="M335,503.2 L335,543.2 L860,543.2 L860,513.2 L850,503.2 L335,503.2 " fill="#FEFFDD" style="stroke:#181818;stroke-width:0.5;"/><path d="M850,503.2 L850,513.2 L860,513.2 L850,503.2 " fill="#FEFFDD" style="stroke:#181818;stroke-width:0.5;"/><text fill="#000000" font-family="D2Coding" font-size="13" lengthAdjust="spacing" textLength="273" x="341" y="520.29">./scripts/mediainfo_wrapper --Details=1</text><text fill="#000000" font-family="D2Coding" font-size="13" lengthAdjust="spacing" textLength="504" x="341" y="535.37">/tmp/yuebing_workdir/8b5c34fb9d00015880cb408f9d6410ace182b529/source.mp4</text><!--MD5=[5614d4b8c7e553c6cc870718dbc306aa]
--></g></svg>
