<?xml version="1.0" encoding="UTF-8" standalone="no"?><svg xmlns="http://www.w3.org/2000/svg" xmlns:xlink="http://www.w3.org/1999/xlink" contentStyleType="text/css" height="460px" preserveAspectRatio="none" style="width:1041px;height:460px;background:#FFFFFF;" version="1.1" viewBox="0 0 1041 460" width="1041px" zoomAndPan="magnify"><defs/><g><rect fill="#DDDDDD" height="448.2" style="stroke:#181818;stroke-width:0.5;" width="687" x="348" y="6"/><text fill="#000000" font-family="D2Coding" font-size="13" font-weight="bold" lengthAdjust="spacing" textLength="49" x="667" y="18.09">yuebing</text><rect fill="#FFFFFF" height="87.24" style="stroke:#181818;stroke-width:1.0;" width="10" x="741.5" y="147.4"/><line style="stroke:#181818;stroke-width:0.5;stroke-dasharray:5.0,5.0;" x1="219" x2="219" y1="81.24" y2="374.96"/><line style="stroke:#181818;stroke-width:0.5;stroke-dasharray:5.0,5.0;" x1="404" x2="404" y1="81.24" y2="374.96"/><line style="stroke:#181818;stroke-width:0.5;stroke-dasharray:5.0,5.0;" x1="512" x2="512" y1="81.24" y2="374.96"/><line style="stroke:#181818;stroke-width:0.5;stroke-dasharray:5.0,5.0;" x1="746.5" x2="746.5" y1="81.24" y2="374.96"/><line style="stroke:#181818;stroke-width:0.5;stroke-dasharray:5.0,5.0;" x1="822.5" x2="822.5" y1="81.24" y2="374.96"/><line style="stroke:#181818;stroke-width:0.5;stroke-dasharray:5.0,5.0;" x1="992" x2="992" y1="81.24" y2="374.96"/><text fill="#000000" font-family="D2Coding" font-size="14" lengthAdjust="spacing" textLength="49" x="192" y="78.02">Browser</text><ellipse cx="219.5" cy="13.5" fill="#E2E2F0" rx="8" ry="8" style="stroke:#181818;stroke-width:0.5;"/><path d="M219.5,21.5 L219.5,48.5 M206.5,29.5 L232.5,29.5 M219.5,48.5 L206.5,63.5 M219.5,48.5 L232.5,63.5 " fill="none" style="stroke:#181818;stroke-width:0.5;"/><text fill="#000000" font-family="D2Coding" font-size="14" lengthAdjust="spacing" textLength="49" x="192" y="386.98">Browser</text><ellipse cx="219.5" cy="398.7" fill="#E2E2F0" rx="8" ry="8" style="stroke:#181818;stroke-width:0.5;"/><path d="M219.5,406.7 L219.5,433.7 M206.5,414.7 L232.5,414.7 M219.5,433.7 L206.5,448.7 M219.5,433.7 L232.5,448.7 " fill="none" style="stroke:#181818;stroke-width:0.5;"/><rect fill="#E2E2F0" height="30.24" rx="2.5" ry="2.5" style="stroke:#181818;stroke-width:0.5;" width="105" x="352" y="50"/><text fill="#000000" font-family="D2Coding" font-size="14" lengthAdjust="spacing" textLength="91" x="359" y="70.02">admin/sources</text><rect fill="#E2E2F0" height="30.24" rx="2.5" ry="2.5" style="stroke:#181818;stroke-width:0.5;" width="105" x="352" y="373.96"/><text fill="#000000" font-family="D2Coding" font-size="14" lengthAdjust="spacing" textLength="91" x="359" y="393.98">admin/sources</text><rect fill="#E2E2F0" height="30.24" rx="2.5" ry="2.5" style="stroke:#181818;stroke-width:0.5;" width="91" x="467" y="50"/><text fill="#000000" font-family="D2Coding" font-size="14" lengthAdjust="spacing" textLength="77" x="474" y="70.02">source/list</text><rect fill="#E2E2F0" height="30.24" rx="2.5" ry="2.5" style="stroke:#181818;stroke-width:0.5;" width="91" x="467" y="373.96"/><text fill="#000000" font-family="D2Coding" font-size="14" lengthAdjust="spacing" textLength="77" x="474" y="393.98">source/list</text><rect fill="#E2E2F0" height="30.24" rx="2.5" ry="2.5" style="stroke:#181818;stroke-width:0.5;" width="84" x="704.5" y="50"/><text fill="#000000" font-family="D2Coding" font-size="14" lengthAdjust="spacing" textLength="70" x="711.5" y="70.02">sourceUtil</text><rect fill="#E2E2F0" height="30.24" rx="2.5" ry="2.5" style="stroke:#181818;stroke-width:0.5;" width="84" x="704.5" y="373.96"/><text fill="#000000" font-family="D2Coding" font-size="14" lengthAdjust="spacing" textLength="70" x="711.5" y="393.98">sourceUtil</text><rect fill="#E2E2F0" height="30.24" rx="2.5" ry="2.5" style="stroke:#181818;stroke-width:0.5;" width="49" x="798.5" y="50"/><text fill="#000000" font-family="D2Coding" font-size="14" lengthAdjust="spacing" textLength="35" x="805.5" y="70.02">query</text><rect fill="#E2E2F0" height="30.24" rx="2.5" ry="2.5" style="stroke:#181818;stroke-width:0.5;" width="49" x="798.5" y="373.96"/><text fill="#000000" font-family="D2Coding" font-size="14" lengthAdjust="spacing" textLength="35" x="805.5" y="393.98">query</text><rect fill="#E2E2F0" height="30.24" rx="2.5" ry="2.5" style="stroke:#181818;stroke-width:0.5;" width="77" x="954" y="50"/><text fill="#000000" font-family="D2Coding" font-size="14" lengthAdjust="spacing" textLength="63" x="961" y="70.02">mobiletto</text><rect fill="#E2E2F0" height="30.24" rx="2.5" ry="2.5" style="stroke:#181818;stroke-width:0.5;" width="77" x="954" y="373.96"/><text fill="#000000" font-family="D2Coding" font-size="14" lengthAdjust="spacing" textLength="63" x="961" y="393.98">mobiletto</text><rect fill="#FFFFFF" height="87.24" style="stroke:#181818;stroke-width:1.0;" width="10" x="741.5" y="147.4"/><polygon fill="#181818" points="392.5,111.32,402.5,115.32,392.5,119.32,396.5,115.32" style="stroke:#181818;stroke-width:1.0;"/><line style="stroke:#181818;stroke-width:1.0;stroke-dasharray:2.0,2.0;" x1="219.5" x2="398.5" y1="115.32" y2="115.32"/><text fill="#000000" font-family="D2Coding" font-size="13" lengthAdjust="spacing" textLength="161" x="226.5" y="110.33">POST /api/admin/sources</text><path d="M95,96.24 L95,121.24 L214,121.24 L214,106.24 L204,96.24 L95,96.24 " fill="#FEFFDD" style="stroke:#181818;stroke-width:0.5;"/><path d="M204,96.24 L204,106.24 L214,106.24 L204,96.24 " fill="#FEFFDD" style="stroke:#181818;stroke-width:0.5;"/><text fill="#000000" font-family="D2Coding" font-size="13" lengthAdjust="spacing" textLength="98" x="101" y="113.33">/admin/sources</text><polygon fill="#181818" points="729.5,143.4,739.5,147.4,729.5,151.4,733.5,147.4" style="stroke:#181818;stroke-width:1.0;"/><line style="stroke:#181818;stroke-width:1.0;" x1="404.5" x2="735.5" y1="147.4" y2="147.4"/><text fill="#000000" font-family="D2Coding" font-size="13" lengthAdjust="spacing" textLength="77" x="411.5" y="142.41">listSources</text><polygon fill="#181818" points="980.5,172.48,990.5,176.48,980.5,180.48,984.5,176.48" style="stroke:#181818;stroke-width:1.0;"/><line style="stroke:#181818;stroke-width:1.0;" x1="751.5" x2="986.5" y1="176.48" y2="176.48"/><text fill="#000000" font-family="D2Coding" font-size="13" lengthAdjust="spacing" textLength="112" x="758.5" y="171.49">list('sources/')</text><polygon fill="#181818" points="980.5,201.56,990.5,205.56,980.5,209.56,984.5,205.56" style="stroke:#181818;stroke-width:1.0;"/><line style="stroke:#181818;stroke-width:1.0;" x1="751.5" x2="986.5" y1="205.56" y2="205.56"/><text fill="#000000" font-family="D2Coding" font-size="13" lengthAdjust="spacing" textLength="217" x="758.5" y="200.57">readFile('sources/{file path}')</text><polygon fill="#181818" points="811,230.64,821,234.64,811,238.64,815,234.64" style="stroke:#181818;stroke-width:1.0;"/><line style="stroke:#181818;stroke-width:1.0;" x1="746.5" x2="817" y1="234.64" y2="234.64"/><text fill="#000000" font-family="D2Coding" font-size="13" lengthAdjust="spacing" textLength="42" x="753.5" y="229.65">search</text><polygon fill="#181818" points="392.5,265.72,402.5,269.72,392.5,273.72,396.5,269.72" style="stroke:#181818;stroke-width:1.0;"/><line style="stroke:#181818;stroke-width:1.0;stroke-dasharray:2.0,2.0;" x1="219.5" x2="398.5" y1="269.72" y2="269.72"/><text fill="#000000" font-family="D2Coding" font-size="13" lengthAdjust="spacing" textLength="161" x="226.5" y="264.73">POST /api/admin/sources</text><path d="M5,247.64 L5,272.64 L215,272.64 L215,257.64 L205,247.64 L5,247.64 " fill="#FEFFDD" style="stroke:#181818;stroke-width:0.5;"/><path d="M205,247.64 L205,257.64 L215,257.64 L205,247.64 " fill="#FEFFDD" style="stroke:#181818;stroke-width:0.5;"/><text fill="#000000" font-family="D2Coding" font-size="13" lengthAdjust="spacing" textLength="189" x="11" y="264.73">/admin/browse?source={name}</text><path d="M409,247.64 L409,272.64 L456,272.64 L456,257.64 L446,247.64 L409,247.64 " fill="#FEFFDD" style="stroke:#181818;stroke-width:0.5;"/><path d="M446,247.64 L446,257.64 L456,257.64 L446,247.64 " fill="#FEFFDD" style="stroke:#181818;stroke-width:0.5;"/><text fill="#000000" font-family="D2Coding" font-size="13" lengthAdjust="spacing" textLength="26" x="415" y="264.73">상동</text><polygon fill="#181818" points="500.5,294.8,510.5,298.8,500.5,302.8,504.5,298.8" style="stroke:#181818;stroke-width:1.0;"/><line style="stroke:#181818;stroke-width:1.0;stroke-dasharray:2.0,2.0;" x1="219.5" x2="506.5" y1="298.8" y2="298.8"/><text fill="#000000" font-family="D2Coding" font-size="13" lengthAdjust="spacing" textLength="245" x="226.5" y="293.81">POST /api/source/list/{source name}</text><polygon fill="#181818" points="734.5,323.88,744.5,327.88,734.5,331.88,738.5,327.88" style="stroke:#181818;stroke-width:1.0;"/><line style="stroke:#181818;stroke-width:1.0;" x1="512.5" x2="740.5" y1="327.88" y2="327.88"/><text fill="#000000" font-family="D2Coding" font-size="13" lengthAdjust="spacing" textLength="210" x="519.5" y="322.89">extractSourceAndPathAndConnect</text><polygon fill="#181818" points="980.5,352.96,990.5,356.96,980.5,360.96,984.5,356.96" style="stroke:#181818;stroke-width:1.0;"/><line style="stroke:#181818;stroke-width:1.0;" x1="746.5" x2="986.5" y1="356.96" y2="356.96"/><text fill="#000000" font-family="D2Coding" font-size="13" lengthAdjust="spacing" textLength="56" x="753.5" y="351.97">list('')</text><!--MD5=[95ff5d6d5dd56c18cf86980d500878cc]
--></g></svg>
