<?xml version="1.0" encoding="us-ascii" standalone="no"?><svg xmlns="http://www.w3.org/2000/svg" xmlns:xlink="http://www.w3.org/1999/xlink" contentStyleType="text/css" height="322px" preserveAspectRatio="none" style="width:763px;height:322px;background:#FFFFFF;" version="1.1" viewBox="0 0 763 322" width="763px" zoomAndPan="magnify"><defs/><g><rect fill="#FFFFFF" height="198.5527" style="stroke:#181818;stroke-width:1.0;" width="10" x="113.5" y="67.7988"/><rect fill="#FFFFFF" height="65.3105" style="stroke:#181818;stroke-width:1.0;" width="10" x="346" y="126.4199"/><rect fill="#FFFFFF" height="28" style="stroke:#181818;stroke-width:1.0;" width="10" x="351" y="163.7305"/><line style="stroke:#181818;stroke-width:0.5;stroke-dasharray:5.0,5.0;" x1="26" x2="26" y1="36.4883" y2="287.3516"/><line style="stroke:#181818;stroke-width:0.5;stroke-dasharray:5.0,5.0;" x1="118.5" x2="118.5" y1="36.4883" y2="287.3516"/><line style="stroke:#181818;stroke-width:0.5;stroke-dasharray:5.0,5.0;" x1="216" x2="216" y1="36.4883" y2="287.3516"/><line style="stroke:#181818;stroke-width:0.5;stroke-dasharray:5.0,5.0;" x1="351" x2="351" y1="36.4883" y2="287.3516"/><line style="stroke:#181818;stroke-width:0.5;stroke-dasharray:5.0,5.0;" x1="489" x2="489" y1="36.4883" y2="287.3516"/><line style="stroke:#181818;stroke-width:0.5;stroke-dasharray:5.0,5.0;" x1="596" x2="596" y1="36.4883" y2="287.3516"/><rect fill="#E2E2F0" height="30.4883" rx="2.5" ry="2.5" style="stroke:#181818;stroke-width:0.5;" width="43" x="5" y="5"/><text fill="#000000" font-family="sans-serif" font-size="14" lengthAdjust="spacing" textLength="29" x="12" y="25.5352">Test</text><rect fill="#E2E2F0" height="30.4883" rx="2.5" ry="2.5" style="stroke:#181818;stroke-width:0.5;" width="43" x="5" y="286.3516"/><text fill="#000000" font-family="sans-serif" font-size="14" lengthAdjust="spacing" textLength="29" x="12" y="306.8867">Test</text><rect fill="#E2E2F0" height="30.4883" rx="2.5" ry="2.5" style="stroke:#181818;stroke-width:0.5;" width="68" x="84.5" y="5"/><text fill="#000000" font-family="sans-serif" font-size="14" lengthAdjust="spacing" textLength="54" x="91.5" y="25.5352">index.js</text><rect fill="#E2E2F0" height="30.4883" rx="2.5" ry="2.5" style="stroke:#181818;stroke-width:0.5;" width="68" x="84.5" y="286.3516"/><text fill="#000000" font-family="sans-serif" font-size="14" lengthAdjust="spacing" textLength="54" x="91.5" y="306.8867">index.js</text><rect fill="#E2E2F0" height="30.4883" rx="2.5" ry="2.5" style="stroke:#181818;stroke-width:0.5;" width="105" x="164" y="5"/><text fill="#000000" font-family="sans-serif" font-size="14" lengthAdjust="spacing" textLength="91" x="171" y="25.5352">preprocess.js</text><rect fill="#E2E2F0" height="30.4883" rx="2.5" ry="2.5" style="stroke:#181818;stroke-width:0.5;" width="105" x="164" y="286.3516"/><text fill="#000000" font-family="sans-serif" font-size="14" lengthAdjust="spacing" textLength="91" x="171" y="306.8867">preprocess.js</text><rect fill="#E2E2F0" height="30.4883" rx="2.5" ry="2.5" style="stroke:#181818;stroke-width:0.5;" width="144" x="279" y="5"/><text fill="#000000" font-family="sans-serif" font-size="14" lengthAdjust="spacing" textLength="130" x="286" y="25.5352">create-tokenizer.js</text><rect fill="#E2E2F0" height="30.4883" rx="2.5" ry="2.5" style="stroke:#181818;stroke-width:0.5;" width="144" x="279" y="286.3516"/><text fill="#000000" font-family="sans-serif" font-size="14" lengthAdjust="spacing" textLength="130" x="286" y="306.8867">create-tokenizer.js</text><rect fill="#E2E2F0" height="30.4883" rx="2.5" ry="2.5" style="stroke:#181818;stroke-width:0.5;" width="112" x="433" y="5"/><text fill="#000000" font-family="sans-serif" font-size="14" lengthAdjust="spacing" textLength="98" x="440" y="25.5352">postprocess.js</text><rect fill="#E2E2F0" height="30.4883" rx="2.5" ry="2.5" style="stroke:#181818;stroke-width:0.5;" width="112" x="433" y="286.3516"/><text fill="#000000" font-family="sans-serif" font-size="14" lengthAdjust="spacing" textLength="98" x="440" y="306.8867">postprocess.js</text><rect fill="#E2E2F0" height="30.4883" rx="2.5" ry="2.5" style="stroke:#181818;stroke-width:0.5;" width="83" x="555" y="5"/><text fill="#000000" font-family="sans-serif" font-size="14" lengthAdjust="spacing" textLength="69" x="562" y="25.5352">compile.js</text><rect fill="#E2E2F0" height="30.4883" rx="2.5" ry="2.5" style="stroke:#181818;stroke-width:0.5;" width="83" x="555" y="286.3516"/><text fill="#000000" font-family="sans-serif" font-size="14" lengthAdjust="spacing" textLength="69" x="562" y="306.8867">compile.js</text><rect fill="#FFFFFF" height="198.5527" style="stroke:#181818;stroke-width:1.0;" width="10" x="113.5" y="67.7988"/><rect fill="#FFFFFF" height="65.3105" style="stroke:#181818;stroke-width:1.0;" width="10" x="346" y="126.4199"/><rect fill="#FFFFFF" height="28" style="stroke:#181818;stroke-width:1.0;" width="10" x="351" y="163.7305"/><polygon fill="#181818" points="101.5,63.7988,111.5,67.7988,101.5,71.7988,105.5,67.7988" style="stroke:#181818;stroke-width:1.0;"/><line style="stroke:#181818;stroke-width:1.0;" x1="26.5" x2="107.5" y1="67.7988" y2="67.7988"/><text fill="#000000" font-family="sans-serif" font-size="13" lengthAdjust="spacing" textLength="68" x="33.5" y="63.0566">micromark</text><polygon fill="#181818" points="204.5,93.1094,214.5,97.1094,204.5,101.1094,208.5,97.1094" style="stroke:#181818;stroke-width:1.0;"/><line style="stroke:#181818;stroke-width:1.0;" x1="123.5" x2="210.5" y1="97.1094" y2="97.1094"/><text fill="#000000" font-family="sans-serif" font-size="13" lengthAdjust="spacing" textLength="69" x="130.5" y="92.3672">preprocess</text><polygon fill="#181818" points="334,122.4199,344,126.4199,334,130.4199,338,126.4199" style="stroke:#181818;stroke-width:1.0;"/><line style="stroke:#181818;stroke-width:1.0;" x1="123.5" x2="340" y1="126.4199" y2="126.4199"/><text fill="#000000" font-family="sans-serif" font-size="13" lengthAdjust="spacing" textLength="31" x="130.5" y="121.6777">write</text><line style="stroke:#181818;stroke-width:1.0;" x1="361" x2="403" y1="155.7305" y2="155.7305"/><line style="stroke:#181818;stroke-width:1.0;" x1="403" x2="403" y1="155.7305" y2="168.7305"/><line style="stroke:#181818;stroke-width:1.0;" x1="362" x2="403" y1="168.7305" y2="168.7305"/><polygon fill="#181818" points="372,164.7305,362,168.7305,372,172.7305,368,168.7305" style="stroke:#181818;stroke-width:1.0;"/><text fill="#000000" font-family="sans-serif" font-size="13" lengthAdjust="spacing" textLength="31" x="368" y="150.9883">main</text><polygon fill="#181818" points="477,227.041,487,231.041,477,235.041,481,231.041" style="stroke:#181818;stroke-width:1.0;"/><line style="stroke:#181818;stroke-width:1.0;" x1="123.5" x2="483" y1="231.041" y2="231.041"/><text fill="#000000" font-family="sans-serif" font-size="13" lengthAdjust="spacing" textLength="77" x="130.5" y="226.2988">postprocess</text><path d="M494,211.7305 L494,236.7305 L711,236.7305 L711,221.7305 L701,211.7305 L494,211.7305 " fill="#FEFFDD" style="stroke:#181818;stroke-width:0.5;"/><path d="M701,211.7305 L701,221.7305 L711,221.7305 L701,211.7305 " fill="#FEFFDD" style="stroke:#181818;stroke-width:0.5;"/><text fill="#000000" font-family="sans-serif" font-size="13" lengthAdjust="spacing" textLength="196" x="500" y="229.2988">Markdown text to token events</text><polygon fill="#181818" points="584.5,262.3516,594.5,266.3516,584.5,270.3516,588.5,266.3516" style="stroke:#181818;stroke-width:1.0;"/><line style="stroke:#181818;stroke-width:1.0;" x1="118.5" x2="590.5" y1="266.3516" y2="266.3516"/><text fill="#000000" font-family="sans-serif" font-size="13" lengthAdjust="spacing" textLength="50" x="125.5" y="261.6094">compile</text><path d="M601,247.041 L601,272.041 L756,272.041 L756,257.041 L746,247.041 L601,247.041 " fill="#FEFFDD" style="stroke:#181818;stroke-width:0.5;"/><path d="M746,247.041 L746,257.041 L756,257.041 L746,247.041 " fill="#FEFFDD" style="stroke:#181818;stroke-width:0.5;"/><text fill="#000000" font-family="sans-serif" font-size="13" lengthAdjust="spacing" textLength="134" x="607" y="264.6094">Token events to html</text><!--SRC=[VL4vRWCn3Epr2i9DAli1AlA3TEu3GI9injO1YJxWrrkxogwE1Aj6u70uu0o3YaoQWd8CHqmiGWFio1by7dxI3bI2kUZx8MA8NcDA2waYFLD7L8nxzXTqzCAuy0l-lUBY0xevu_NDekE5lzJ37Zxnk4Y5Xasy3NJ5TO5I2Z6vX_rdiId1aexUgdWHIZFTyvA_0K3v9serArlZ3MEq9-4HYJ5JLjK_2K1-8_Y_bbNaPlgscC6j_dQtUgrvoYvS0EVpRAJJcNFnbICp_k60ySd07cOrm7i-saH6P-Q1BgLo0xaUOz0yDXAJv9djjPLgB9GRlG40]--></g></svg>