<?xml version="1.0" encoding="UTF-8" standalone="no"?><svg xmlns="http://www.w3.org/2000/svg" xmlns:xlink="http://www.w3.org/1999/xlink" contentStyleType="text/css" height="400px" preserveAspectRatio="none" style="width:843px;height:400px;background:#FFFFFF;" version="1.1" viewBox="0 0 843 400" width="843px" zoomAndPan="magnify"><defs/><g><rect fill="#DDDDDD" height="388.04" style="stroke:#181818;stroke-width:0.5;" width="583.5" x="253.5" y="6"/><text fill="#000000" font-family="D2Coding" font-size="13" font-weight="bold" lengthAdjust="spacing" textLength="49" x="520.75" y="18.09">yuebing</text><line style="stroke:#181818;stroke-width:0.5;stroke-dasharray:5.0,5.0;" x1="142" x2="142" y1="81.24" y2="314.8"/><line style="stroke:#181818;stroke-width:0.5;stroke-dasharray:5.0,5.0;" x1="292.5" x2="292.5" y1="81.24" y2="314.8"/><line style="stroke:#181818;stroke-width:0.5;stroke-dasharray:5.0,5.0;" x1="365.5" x2="365.5" y1="81.24" y2="314.8"/><line style="stroke:#181818;stroke-width:0.5;stroke-dasharray:5.0,5.0;" x1="501.5" x2="501.5" y1="81.24" y2="314.8"/><line style="stroke:#181818;stroke-width:0.5;stroke-dasharray:5.0,5.0;" x1="749" x2="749" y1="81.24" y2="314.8"/><line style="stroke:#181818;stroke-width:0.5;stroke-dasharray:5.0,5.0;" x1="808" x2="808" y1="81.24" y2="314.8"/><text fill="#000000" font-family="D2Coding" font-size="14" lengthAdjust="spacing" textLength="49" x="115" y="78.02">Browser</text><ellipse cx="142.5" cy="13.5" fill="#E2E2F0" rx="8" ry="8" style="stroke:#181818;stroke-width:0.5;"/><path d="M142.5,21.5 L142.5,48.5 M129.5,29.5 L155.5,29.5 M142.5,48.5 L129.5,63.5 M142.5,48.5 L155.5,63.5 " fill="none" style="stroke:#181818;stroke-width:0.5;"/><text fill="#000000" font-family="D2Coding" font-size="14" lengthAdjust="spacing" textLength="49" x="115" y="326.82">Browser</text><ellipse cx="142.5" cy="338.54" fill="#E2E2F0" rx="8" ry="8" style="stroke:#181818;stroke-width:0.5;"/><path d="M142.5,346.54 L142.5,373.54 M129.5,354.54 L155.5,354.54 M142.5,373.54 L129.5,388.54 M142.5,373.54 L155.5,388.54 " fill="none" style="stroke:#181818;stroke-width:0.5;"/><rect fill="#E2E2F0" height="30.24" rx="2.5" ry="2.5" style="stroke:#181818;stroke-width:0.5;" width="70" x="257.5" y="50"/><text fill="#000000" font-family="D2Coding" font-size="14" lengthAdjust="spacing" textLength="56" x="264.5" y="70.02">register</text><rect fill="#E2E2F0" height="30.24" rx="2.5" ry="2.5" style="stroke:#181818;stroke-width:0.5;" width="70" x="257.5" y="313.8"/><text fill="#000000" font-family="D2Coding" font-size="14" lengthAdjust="spacing" textLength="56" x="264.5" y="333.82">register</text><rect fill="#E2E2F0" height="30.24" rx="2.5" ry="2.5" style="stroke:#181818;stroke-width:0.5;" width="56" x="337.5" y="50"/><text fill="#000000" font-family="D2Coding" font-size="14" lengthAdjust="spacing" textLength="42" x="344.5" y="70.02">verify</text><rect fill="#E2E2F0" height="30.24" rx="2.5" ry="2.5" style="stroke:#181818;stroke-width:0.5;" width="56" x="337.5" y="313.8"/><text fill="#000000" font-family="D2Coding" font-size="14" lengthAdjust="spacing" textLength="42" x="344.5" y="333.82">verify</text><rect fill="#E2E2F0" height="30.24" rx="2.5" ry="2.5" style="stroke:#181818;stroke-width:0.5;" width="70" x="466.5" y="50"/><text fill="#000000" font-family="D2Coding" font-size="14" lengthAdjust="spacing" textLength="56" x="473.5" y="70.02">userUtil</text><rect fill="#E2E2F0" height="30.24" rx="2.5" ry="2.5" style="stroke:#181818;stroke-width:0.5;" width="70" x="466.5" y="313.8"/><text fill="#000000" font-family="D2Coding" font-size="14" lengthAdjust="spacing" textLength="56" x="473.5" y="333.82">userUtil</text><rect fill="#E2E2F0" height="30.24" rx="2.5" ry="2.5" style="stroke:#181818;stroke-width:0.5;" width="49" x="725" y="50"/><text fill="#000000" font-family="D2Coding" font-size="14" lengthAdjust="spacing" textLength="35" x="732" y="70.02">email</text><rect fill="#E2E2F0" height="30.24" rx="2.5" ry="2.5" style="stroke:#181818;stroke-width:0.5;" width="49" x="725" y="313.8"/><text fill="#000000" font-family="D2Coding" font-size="14" lengthAdjust="spacing" textLength="35" x="732" y="333.82">email</text><rect fill="#E2E2F0" height="30.24" rx="2.5" ry="2.5" style="stroke:#181818;stroke-width:0.5;" width="49" x="784" y="50"/><text fill="#000000" font-family="D2Coding" font-size="14" lengthAdjust="spacing" textLength="35" x="791" y="70.02">redis</text><rect fill="#E2E2F0" height="30.24" rx="2.5" ry="2.5" style="stroke:#181818;stroke-width:0.5;" width="49" x="784" y="313.8"/><text fill="#000000" font-family="D2Coding" font-size="14" lengthAdjust="spacing" textLength="35" x="791" y="333.82">redis</text><polygon fill="#181818" points="280.5,111.32,290.5,115.32,280.5,119.32,284.5,115.32" style="stroke:#181818;stroke-width:1.0;"/><line style="stroke:#181818;stroke-width:1.0;stroke-dasharray:2.0,2.0;" x1="142.5" x2="286.5" y1="115.32" y2="115.32"/><text fill="#000000" font-family="D2Coding" font-size="13" lengthAdjust="spacing" textLength="126" x="149.5" y="110.33">/api/user/register</text><path d="M18,96.24 L18,121.24 L137,121.24 L137,106.24 L127,96.24 L18,96.24 " fill="#FEFFDD" style="stroke:#181818;stroke-width:0.5;"/><path d="M127,96.24 L127,106.24 L137,106.24 L127,96.24 " fill="#FEFFDD" style="stroke:#181818;stroke-width:0.5;"/><text fill="#000000" font-family="D2Coding" font-size="13" lengthAdjust="spacing" textLength="98" x="24" y="113.33">/auth/register</text><polygon fill="#181818" points="489.5,153.94,499.5,157.94,489.5,161.94,493.5,157.94" style="stroke:#181818;stroke-width:1.0;"/><line style="stroke:#181818;stroke-width:1.0;" x1="292.5" x2="495.5" y1="157.94" y2="157.94"/><text fill="#000000" font-family="D2Coding" font-size="13" lengthAdjust="spacing" textLength="112" x="299.5" y="152.95">createUserRecord</text><path d="M506,131.32 L506,171.32 L779,171.32 L779,141.32 L769,131.32 L506,131.32 " fill="#FEFFDD" style="stroke:#181818;stroke-width:0.5;"/><path d="M769,131.32 L769,141.32 L779,141.32 L769,131.32 " fill="#FEFFDD" style="stroke:#181818;stroke-width:0.5;"/><text fill="#000000" font-family="D2Coding" font-size="13" lengthAdjust="spacing" textLength="252" x="512" y="148.41">/users/{shasum(`/users/{username}`)}</text><text fill="#000000" font-family="D2Coding" font-size="13" lengthAdjust="spacing" textLength="245" x="512" y="163.49">/emails/{shasum(`/emails/{email}`)}</text><polygon fill="#181818" points="737.5,193.56,747.5,197.56,737.5,201.56,741.5,197.56" style="stroke:#181818;stroke-width:1.0;"/><line style="stroke:#181818;stroke-width:1.0;" x1="501.5" x2="743.5" y1="197.56" y2="197.56"/><text fill="#000000" font-family="D2Coding" font-size="13" lengthAdjust="spacing" textLength="224" x="508.5" y="192.57">sendEmail(TEMPLATE_VERIFY_EMAIL)</text><polygon fill="#181818" points="353.5,225.64,363.5,229.64,353.5,233.64,357.5,229.64" style="stroke:#181818;stroke-width:1.0;"/><line style="stroke:#181818;stroke-width:1.0;stroke-dasharray:2.0,2.0;" x1="142.5" x2="359.5" y1="229.64" y2="229.64"/><text fill="#000000" font-family="D2Coding" font-size="13" lengthAdjust="spacing" textLength="112" x="149.5" y="224.65">/api/user/verify</text><path d="M5,210.56 L5,235.56 L138,235.56 L138,220.56 L128,210.56 L5,210.56 " fill="#FEFFDD" style="stroke:#181818;stroke-width:0.5;"/><path d="M128,210.56 L128,220.56 L138,220.56 L128,210.56 " fill="#FEFFDD" style="stroke:#181818;stroke-width:0.5;"/><text fill="#000000" font-family="D2Coding" font-size="13" lengthAdjust="spacing" textLength="112" x="11" y="227.65">/verify?e={emil}</text><polygon fill="#181818" points="489.5,257.72,499.5,261.72,489.5,265.72,493.5,261.72" style="stroke:#181818;stroke-width:1.0;"/><line style="stroke:#181818;stroke-width:1.0;" x1="365.5" x2="495.5" y1="261.72" y2="261.72"/><text fill="#000000" font-family="D2Coding" font-size="13" lengthAdjust="spacing" textLength="56" x="372.5" y="256.73">findUser</text><polygon fill="#181818" points="489.5,289.8,499.5,293.8,489.5,297.8,493.5,293.8" style="stroke:#181818;stroke-width:1.0;"/><line style="stroke:#181818;stroke-width:1.0;" x1="365.5" x2="495.5" y1="293.8" y2="293.8"/><text fill="#000000" font-family="D2Coding" font-size="13" lengthAdjust="spacing" textLength="112" x="372.5" y="288.81">updateUserRecord</text><path d="M506,274.72 L506,299.72 L618,299.72 L618,284.72 L608,274.72 L506,274.72 " fill="#FEFFDD" style="stroke:#181818;stroke-width:0.5;"/><path d="M608,274.72 L608,284.72 L618,284.72 L608,274.72 " fill="#FEFFDD" style="stroke:#181818;stroke-width:0.5;"/><text fill="#000000" font-family="D2Coding" font-size="13" lengthAdjust="spacing" textLength="91" x="512" y="291.81">user.verified</text><!--MD5=[c6d23b904099b49f25030522e494b334]
--></g></svg>
