<?xml version="1.0" encoding="UTF-8" standalone="no"?><svg xmlns="http://www.w3.org/2000/svg" xmlns:xlink="http://www.w3.org/1999/xlink" contentStyleType="text/css" height="500px" preserveAspectRatio="none" style="width:798px;height:500px;background:#FFFFFF;" version="1.1" viewBox="0 0 798 500" width="798px" zoomAndPan="magnify"><defs/><g><rect fill="#DDDDDD" height="488.2" style="stroke:#181818;stroke-width:0.5;" width="612" x="161" y="6"/><text fill="#000000" font-family="D2Coding" font-size="13" font-weight="bold" lengthAdjust="spacing" textLength="49" x="442.5" y="18.09">yuebing</text><rect fill="#FFFFFF" height="177.4" style="stroke:#181818;stroke-width:1.0;" width="10" x="428.5" y="212.56"/><rect fill="#FFFFFF" height="35.08" style="stroke:#181818;stroke-width:1.0;" width="10" x="739.5" y="283.72"/><line style="stroke:#181818;stroke-width:0.5;stroke-dasharray:5.0,5.0;" x1="32" x2="32" y1="81.24" y2="414.96"/><line style="stroke:#181818;stroke-width:0.5;stroke-dasharray:5.0,5.0;" x1="217" x2="217" y1="81.24" y2="414.96"/><line style="stroke:#181818;stroke-width:0.5;stroke-dasharray:5.0,5.0;" x1="346.5" x2="346.5" y1="81.24" y2="414.96"/><line style="stroke:#181818;stroke-width:0.5;stroke-dasharray:5.0,5.0;" x1="433" x2="433" y1="81.24" y2="414.96"/><line style="stroke:#181818;stroke-width:0.5;stroke-dasharray:5.0,5.0;" x1="744" x2="744" y1="81.24" y2="414.96"/><text fill="#000000" font-family="D2Coding" font-size="14" lengthAdjust="spacing" textLength="49" x="5" y="78.02">Browser</text><ellipse cx="32.5" cy="13.5" fill="#E2E2F0" rx="8" ry="8" style="stroke:#181818;stroke-width:0.5;"/><path d="M32.5,21.5 L32.5,48.5 M19.5,29.5 L45.5,29.5 M32.5,48.5 L19.5,63.5 M32.5,48.5 L45.5,63.5 " fill="none" style="stroke:#181818;stroke-width:0.5;"/><text fill="#000000" font-family="D2Coding" font-size="14" lengthAdjust="spacing" textLength="49" x="5" y="426.98">Browser</text><ellipse cx="32.5" cy="438.7" fill="#E2E2F0" rx="8" ry="8" style="stroke:#181818;stroke-width:0.5;"/><path d="M32.5,446.7 L32.5,473.7 M19.5,454.7 L45.5,454.7 M32.5,473.7 L19.5,488.7 M32.5,473.7 L45.5,488.7 " fill="none" style="stroke:#181818;stroke-width:0.5;"/><rect fill="#E2E2F0" height="30.24" rx="2.5" ry="2.5" style="stroke:#181818;stroke-width:0.5;" width="105" x="165" y="50"/><text fill="#000000" font-family="D2Coding" font-size="14" lengthAdjust="spacing" textLength="91" x="172" y="70.02">inviteFriends</text><rect fill="#E2E2F0" height="30.24" rx="2.5" ry="2.5" style="stroke:#181818;stroke-width:0.5;" width="105" x="165" y="413.96"/><text fill="#000000" font-family="D2Coding" font-size="14" lengthAdjust="spacing" textLength="91" x="172" y="433.98">inviteFriends</text><rect fill="#E2E2F0" height="30.24" rx="2.5" ry="2.5" style="stroke:#181818;stroke-width:0.5;" width="70" x="311.5" y="50"/><text fill="#000000" font-family="D2Coding" font-size="14" lengthAdjust="spacing" textLength="56" x="318.5" y="70.02">userUtil</text><rect fill="#E2E2F0" height="30.24" rx="2.5" ry="2.5" style="stroke:#181818;stroke-width:0.5;" width="70" x="311.5" y="413.96"/><text fill="#000000" font-family="D2Coding" font-size="14" lengthAdjust="spacing" textLength="56" x="318.5" y="433.98">userUtil</text><rect fill="#E2E2F0" height="30.24" rx="2.5" ry="2.5" style="stroke:#181818;stroke-width:0.5;" width="49" x="409" y="50"/><text fill="#000000" font-family="D2Coding" font-size="14" lengthAdjust="spacing" textLength="35" x="416" y="70.02">email</text><rect fill="#E2E2F0" height="30.24" rx="2.5" ry="2.5" style="stroke:#181818;stroke-width:0.5;" width="49" x="409" y="413.96"/><text fill="#000000" font-family="D2Coding" font-size="14" lengthAdjust="spacing" textLength="35" x="416" y="433.98">email</text><rect fill="#E2E2F0" height="30.24" rx="2.5" ry="2.5" style="stroke:#181818;stroke-width:0.5;" width="49" x="720" y="50"/><text fill="#000000" font-family="D2Coding" font-size="14" lengthAdjust="spacing" textLength="35" x="727" y="70.02">redis</text><rect fill="#E2E2F0" height="30.24" rx="2.5" ry="2.5" style="stroke:#181818;stroke-width:0.5;" width="49" x="720" y="413.96"/><text fill="#000000" font-family="D2Coding" font-size="14" lengthAdjust="spacing" textLength="35" x="727" y="433.98">redis</text><rect fill="#FFFFFF" height="177.4" style="stroke:#181818;stroke-width:1.0;" width="10" x="428.5" y="212.56"/><rect fill="#FFFFFF" height="35.08" style="stroke:#181818;stroke-width:1.0;" width="10" x="739.5" y="283.72"/><polygon fill="#181818" points="205.5,108.32,215.5,112.32,205.5,116.32,209.5,112.32" style="stroke:#181818;stroke-width:1.0;"/><line style="stroke:#181818;stroke-width:1.0;stroke-dasharray:2.0,2.0;" x1="32.5" x2="211.5" y1="112.32" y2="112.32"/><text fill="#000000" font-family="D2Coding" font-size="13" lengthAdjust="spacing" textLength="161" x="39.5" y="107.33">/api/user/inviteFriends</text><polygon fill="#181818" points="334.5,137.4,344.5,141.4,334.5,145.4,338.5,141.4" style="stroke:#181818;stroke-width:1.0;"/><line style="stroke:#181818;stroke-width:1.0;" x1="217.5" x2="340.5" y1="141.4" y2="141.4"/><text fill="#000000" font-family="D2Coding" font-size="13" lengthAdjust="spacing" textLength="105" x="224.5" y="136.41">sendInvitations</text><line style="stroke:#181818;stroke-width:1.0;" x1="346.5" x2="388.5" y1="170.48" y2="170.48"/><line style="stroke:#181818;stroke-width:1.0;" x1="388.5" x2="388.5" y1="170.48" y2="183.48"/><line style="stroke:#181818;stroke-width:1.0;" x1="347.5" x2="388.5" y1="183.48" y2="183.48"/><polygon fill="#181818" points="357.5,179.48,347.5,183.48,357.5,187.48,353.5,183.48" style="stroke:#181818;stroke-width:1.0;"/><text fill="#000000" font-family="D2Coding" font-size="13" lengthAdjust="spacing" textLength="56" x="353.5" y="165.49">findUser</text><polygon fill="#181818" points="416.5,208.56,426.5,212.56,416.5,216.56,420.5,212.56" style="stroke:#181818;stroke-width:1.0;"/><line style="stroke:#181818;stroke-width:1.0;" x1="346.5" x2="422.5" y1="212.56" y2="212.56"/><text fill="#000000" font-family="D2Coding" font-size="13" lengthAdjust="spacing" textLength="63" x="353.5" y="207.57">sendEmail</text><line style="stroke:#181818;stroke-width:1.0;" x1="438.5" x2="480.5" y1="241.64" y2="241.64"/><line style="stroke:#181818;stroke-width:1.0;" x1="480.5" x2="480.5" y1="241.64" y2="254.64"/><line style="stroke:#181818;stroke-width:1.0;" x1="439.5" x2="480.5" y1="254.64" y2="254.64"/><polygon fill="#181818" points="449.5,250.64,439.5,254.64,449.5,258.64,445.5,254.64" style="stroke:#181818;stroke-width:1.0;"/><text fill="#000000" font-family="D2Coding" font-size="13" lengthAdjust="spacing" textLength="287" x="445.5" y="236.65">'mlimit_' + shasum(to + ' ! ' + template)</text><polygon fill="#181818" points="727.5,279.72,737.5,283.72,727.5,287.72,731.5,283.72" style="stroke:#181818;stroke-width:1.0;"/><line style="stroke:#181818;stroke-width:1.0;" x1="438.5" x2="733.5" y1="283.72" y2="283.72"/><text fill="#000000" font-family="D2Coding" font-size="13" lengthAdjust="spacing" textLength="112" x="445.5" y="278.73">findMatchingKeys</text><line style="stroke:#181818;stroke-width:1.0;" x1="749.5" x2="791.5" y1="317.8" y2="317.8"/><line style="stroke:#181818;stroke-width:1.0;" x1="791.5" x2="791.5" y1="317.8" y2="330.8"/><line style="stroke:#181818;stroke-width:1.0;" x1="744.5" x2="791.5" y1="330.8" y2="330.8"/><polygon fill="#181818" points="754.5,326.8,744.5,330.8,754.5,334.8,750.5,330.8" style="stroke:#181818;stroke-width:1.0;"/><text fill="#000000" font-family="D2Coding" font-size="13" lengthAdjust="spacing" textLength="28" x="756.5" y="312.81">scan</text><polygon fill="#181818" points="732.5,350.88,742.5,354.88,732.5,358.88,736.5,354.88" style="stroke:#181818;stroke-width:1.0;"/><line style="stroke:#181818;stroke-width:1.0;" x1="438.5" x2="738.5" y1="354.88" y2="354.88"/><text fill="#000000" font-family="D2Coding" font-size="13" lengthAdjust="spacing" textLength="21" x="445.5" y="349.89">set</text><line style="stroke:#181818;stroke-width:1.0;" x1="438.5" x2="480.5" y1="388.96" y2="388.96"/><line style="stroke:#181818;stroke-width:1.0;" x1="480.5" x2="480.5" y1="388.96" y2="401.96"/><line style="stroke:#181818;stroke-width:1.0;" x1="433.5" x2="480.5" y1="401.96" y2="401.96"/><polygon fill="#181818" points="443.5,397.96,433.5,401.96,443.5,405.96,439.5,401.96" style="stroke:#181818;stroke-width:1.0;"/><text fill="#000000" font-family="D2Coding" font-size="13" lengthAdjust="spacing" textLength="147" x="445.5" y="383.97">mailSender().sendMail</text><!--MD5=[21028e90ab80b8d15a75edfa9701eb93]
--></g></svg>
