<?xml version="1.0" encoding="UTF-8" standalone="no"?><svg xmlns="http://www.w3.org/2000/svg" xmlns:xlink="http://www.w3.org/1999/xlink" contentStyleType="text/css" height="756px" preserveAspectRatio="none" style="width:1378px;height:756px;background:#FFFFFF;" version="1.1" viewBox="0 0 1378 756" width="1378px" zoomAndPan="magnify"><defs/><g><rect fill="#FFFFFF" height="227.041" style="stroke:#181818;stroke-width:1.0;" width="10" x="275" y="183.5977"/><rect fill="#FFFFFF" height="148.2422" style="stroke:#181818;stroke-width:1.0;" width="10" x="280" y="262.3965"/><rect fill="#FFFFFF" height="105.9316" style="stroke:#181818;stroke-width:1.0;" width="10" x="285" y="304.707"/><rect fill="#FFFFFF" height="34.3105" style="stroke:#181818;stroke-width:1.0;" width="10" x="290" y="347.0176"/><rect fill="#FFFFFF" height="226.3516" style="stroke:#181818;stroke-width:1.0;" width="10" x="275" y="439.9492"/><rect fill="#FFFFFF" height="202.3516" style="stroke:#181818;stroke-width:1.0;" width="10" x="280" y="463.9492"/><rect fill="#FFFFFF" height="58.6211" style="stroke:#181818;stroke-width:1.0;" width="10" x="810" y="540.0586"/><rect fill="#FFFFFF" height="38.3105" style="stroke:#181818;stroke-width:1.0;" width="10" x="978.5" y="627.9902"/><line style="stroke:#181818;stroke-width:0.5;stroke-dasharray:5.0,5.0;" x1="23" x2="23" y1="81.4883" y2="675.3008"/><line style="stroke:#181818;stroke-width:0.5;stroke-dasharray:5.0,5.0;" x1="96.5" x2="96.5" y1="81.4883" y2="675.3008"/><line style="stroke:#181818;stroke-width:0.5;stroke-dasharray:5.0,5.0;" x1="161.5" x2="161.5" y1="151.543" y2="675.3008"/><line style="stroke:#181818;stroke-width:0.5;stroke-dasharray:5.0,5.0;" x1="279.5" x2="279.5" y1="81.4883" y2="675.3008"/><line style="stroke:#181818;stroke-width:0.5;stroke-dasharray:5.0,5.0;" x1="483" x2="483" y1="81.4883" y2="675.3008"/><line style="stroke:#181818;stroke-width:0.5;stroke-dasharray:5.0,5.0;" x1="644" x2="644" y1="478.6934" y2="675.3008"/><line style="stroke:#181818;stroke-width:0.5;stroke-dasharray:5.0,5.0;" x1="815" x2="815" y1="81.4883" y2="675.3008"/><line style="stroke:#181818;stroke-width:0.5;stroke-dasharray:5.0,5.0;" x1="983" x2="983" y1="81.4883" y2="675.3008"/><line style="stroke:#181818;stroke-width:0.5;stroke-dasharray:5.0,5.0;" x1="1144" x2="1144" y1="222.3418" y2="675.3008"/><line style="stroke:#181818;stroke-width:0.5;stroke-dasharray:5.0,5.0;" x1="1299" x2="1299" y1="81.4883" y2="675.3008"/><text fill="#000000" font-family="sans-serif" font-size="14" lengthAdjust="spacing" textLength="31" x="5" y="78.5352">User</text><ellipse cx="23.5" cy="13.5" fill="#E2E2F0" rx="8" ry="8" style="stroke:#181818;stroke-width:0.5;"/><path d="M23.5,21.5 L23.5,48.5 M10.5,29.5 L36.5,29.5 M23.5,48.5 L10.5,63.5 M23.5,48.5 L36.5,63.5 " fill="none" style="stroke:#181818;stroke-width:0.5;"/><text fill="#000000" font-family="sans-serif" font-size="14" lengthAdjust="spacing" textLength="31" x="5" y="687.8359">User</text><ellipse cx="23.5" cy="699.2891" fill="#E2E2F0" rx="8" ry="8" style="stroke:#181818;stroke-width:0.5;"/><path d="M23.5,707.2891 L23.5,734.2891 M10.5,715.2891 L36.5,715.2891 M23.5,734.2891 L10.5,749.2891 M23.5,734.2891 L36.5,749.2891 " fill="none" style="stroke:#181818;stroke-width:0.5;"/><rect fill="#E2E2F0" height="30.4883" rx="2.5" ry="2.5" style="stroke:#181818;stroke-width:0.5;" width="26" x="83.5" y="50"/><text fill="#000000" font-family="sans-serif" font-size="14" lengthAdjust="spacing" textLength="12" x="90.5" y="70.5352">fs</text><rect fill="#E2E2F0" height="30.4883" rx="2.5" ry="2.5" style="stroke:#181818;stroke-width:0.5;" width="26" x="83.5" y="674.3008"/><text fill="#000000" font-family="sans-serif" font-size="14" lengthAdjust="spacing" textLength="12" x="90.5" y="694.8359">fs</text><rect fill="#E2E2F0" height="30.4883" rx="2.5" ry="2.5" style="stroke:#181818;stroke-width:0.5;" width="84" x="119.5" y="674.3008"/><text fill="#000000" font-family="sans-serif" font-size="14" lengthAdjust="spacing" textLength="70" x="126.5" y="694.8359">Document</text><rect fill="#E2E2F0" height="30.4883" rx="2.5" ry="2.5" style="stroke:#181818;stroke-width:0.5;" width="133" x="213.5" y="50"/><text fill="#000000" font-family="sans-serif" font-size="14" lengthAdjust="spacing" textLength="119" x="220.5" y="70.5352">VectorStoreIndex</text><rect fill="#E2E2F0" height="30.4883" rx="2.5" ry="2.5" style="stroke:#181818;stroke-width:0.5;" width="133" x="213.5" y="674.3008"/><text fill="#000000" font-family="sans-serif" font-size="14" lengthAdjust="spacing" textLength="119" x="220.5" y="694.8359">VectorStoreIndex</text><rect fill="#E2E2F0" height="30.4883" rx="2.5" ry="2.5" style="stroke:#181818;stroke-width:0.5;" width="140" x="413" y="50"/><text fill="#000000" font-family="sans-serif" font-size="14" lengthAdjust="spacing" textLength="126" x="420" y="70.5352">SimpleVectorStore</text><rect fill="#E2E2F0" height="30.4883" rx="2.5" ry="2.5" style="stroke:#181818;stroke-width:0.5;" width="140" x="413" y="674.3008"/><text fill="#000000" font-family="sans-serif" font-size="14" lengthAdjust="spacing" textLength="126" x="420" y="694.8359">SimpleVectorStore</text><rect fill="#E2E2F0" height="30.4883" rx="2.5" ry="2.5" style="stroke:#181818;stroke-width:0.5;" width="163" x="563" y="674.3008"/><text fill="#000000" font-family="sans-serif" font-size="14" lengthAdjust="spacing" textLength="149" x="570" y="694.8359">RetrieverQueryEngine</text><rect fill="#E2E2F0" height="30.4883" rx="2.5" ry="2.5" style="stroke:#181818;stroke-width:0.5;" width="158" x="736" y="50"/><text fill="#000000" font-family="sans-serif" font-size="14" lengthAdjust="spacing" textLength="144" x="743" y="70.5352">VectorIndexRetriever</text><rect fill="#E2E2F0" height="30.4883" rx="2.5" ry="2.5" style="stroke:#181818;stroke-width:0.5;" width="158" x="736" y="674.3008"/><text fill="#000000" font-family="sans-serif" font-size="14" lengthAdjust="spacing" textLength="144" x="743" y="694.8359">VectorIndexRetriever</text><rect fill="#E2E2F0" height="30.4883" rx="2.5" ry="2.5" style="stroke:#181818;stroke-width:0.5;" width="159" x="904" y="50"/><text fill="#000000" font-family="sans-serif" font-size="14" lengthAdjust="spacing" textLength="145" x="911" y="70.5352">ResponseSynthesizer</text><rect fill="#E2E2F0" height="30.4883" rx="2.5" ry="2.5" style="stroke:#181818;stroke-width:0.5;" width="159" x="904" y="674.3008"/><text fill="#000000" font-family="sans-serif" font-size="14" lengthAdjust="spacing" textLength="145" x="911" y="694.8359">ResponseSynthesizer</text><rect fill="#E2E2F0" height="30.4883" rx="2.5" ry="2.5" style="stroke:#181818;stroke-width:0.5;" width="143" x="1073" y="674.3008"/><text fill="#000000" font-family="sans-serif" font-size="14" lengthAdjust="spacing" textLength="129" x="1080" y="694.8359">OpenAIEmbedding</text><rect fill="#E2E2F0" height="30.4883" rx="2.5" ry="2.5" style="stroke:#181818;stroke-width:0.5;" width="146" x="1226" y="50"/><text fill="#000000" font-family="sans-serif" font-size="14" lengthAdjust="spacing" textLength="132" x="1233" y="70.5352">CompactAndRefine</text><rect fill="#E2E2F0" height="30.4883" rx="2.5" ry="2.5" style="stroke:#181818;stroke-width:0.5;" width="146" x="1226" y="674.3008"/><text fill="#000000" font-family="sans-serif" font-size="14" lengthAdjust="spacing" textLength="132" x="1233" y="694.8359">CompactAndRefine</text><rect fill="#FFFFFF" height="227.041" style="stroke:#181818;stroke-width:1.0;" width="10" x="275" y="183.5977"/><rect fill="#FFFFFF" height="148.2422" style="stroke:#181818;stroke-width:1.0;" width="10" x="280" y="262.3965"/><rect fill="#FFFFFF" height="105.9316" style="stroke:#181818;stroke-width:1.0;" width="10" x="285" y="304.707"/><rect fill="#FFFFFF" height="34.3105" style="stroke:#181818;stroke-width:1.0;" width="10" x="290" y="347.0176"/><rect fill="#FFFFFF" height="226.3516" style="stroke:#181818;stroke-width:1.0;" width="10" x="275" y="439.9492"/><rect fill="#FFFFFF" height="202.3516" style="stroke:#181818;stroke-width:1.0;" width="10" x="280" y="463.9492"/><rect fill="#FFFFFF" height="58.6211" style="stroke:#181818;stroke-width:1.0;" width="10" x="810" y="540.0586"/><rect fill="#FFFFFF" height="38.3105" style="stroke:#181818;stroke-width:1.0;" width="10" x="978.5" y="627.9902"/><polygon fill="#181818" points="84.5,108.7988,94.5,112.7988,84.5,116.7988,88.5,112.7988" style="stroke:#181818;stroke-width:1.0;"/><line style="stroke:#181818;stroke-width:1.0;" x1="23.5" x2="90.5" y1="112.7988" y2="112.7988"/><text fill="#000000" font-family="sans-serif" font-size="13" lengthAdjust="spacing" textLength="49" x="30.5" y="108.0566">readFile</text><polygon fill="#181818" points="107.5,122.7988,117.5,126.7988,107.5,130.7988,111.5,126.7988" style="stroke:#181818;stroke-width:1.0;"/><line style="stroke:#181818;stroke-width:1.0;" x1="23.5" x2="113.5" y1="126.7988" y2="126.7988"/><rect fill="#E2E2F0" height="30.4883" rx="2.5" ry="2.5" style="stroke:#181818;stroke-width:0.5;" width="84" x="119.5" y="120.7988"/><text fill="#000000" font-family="sans-serif" font-size="14" lengthAdjust="spacing" textLength="70" x="126.5" y="141.334">Document</text><polygon fill="#181818" points="263,179.5977,273,183.5977,263,187.5977,267,183.5977" style="stroke:#181818;stroke-width:1.0;"/><line style="stroke:#181818;stroke-width:1.0;" x1="23.5" x2="269" y1="183.5977" y2="183.5977"/><text fill="#000000" font-family="sans-serif" font-size="13" lengthAdjust="spacing" textLength="102" x="30.5" y="178.8555">fromDocuments</text><polygon fill="#181818" points="1061,193.5977,1071,197.5977,1061,201.5977,1065,197.5977" style="stroke:#181818;stroke-width:1.0;"/><line style="stroke:#181818;stroke-width:1.0;" x1="285" x2="1067" y1="197.5977" y2="197.5977"/><rect fill="#E2E2F0" height="30.4883" rx="2.5" ry="2.5" style="stroke:#181818;stroke-width:0.5;" width="143" x="1073" y="191.5977"/><text fill="#000000" font-family="sans-serif" font-size="14" lengthAdjust="spacing" textLength="129" x="1080" y="212.1328">OpenAIEmbedding</text><line style="stroke:#181818;stroke-width:1.0;" x1="285" x2="332" y1="249.3965" y2="249.3965"/><line style="stroke:#181818;stroke-width:1.0;" x1="332" x2="332" y1="249.3965" y2="262.3965"/><line style="stroke:#181818;stroke-width:1.0;" x1="291" x2="332" y1="262.3965" y2="262.3965"/><polygon fill="#181818" points="301,258.3965,291,262.3965,301,266.3965,297,262.3965" style="stroke:#181818;stroke-width:1.0;"/><text fill="#000000" font-family="sans-serif" font-size="13" lengthAdjust="spacing" textLength="21" x="297" y="244.6543">init</text><line style="stroke:#181818;stroke-width:1.0;" x1="290" x2="337" y1="291.707" y2="291.707"/><line style="stroke:#181818;stroke-width:1.0;" x1="337" x2="337" y1="291.707" y2="304.707"/><line style="stroke:#181818;stroke-width:1.0;" x1="296" x2="337" y1="304.707" y2="304.707"/><polygon fill="#181818" points="306,300.707,296,304.707,306,308.707,302,304.707" style="stroke:#181818;stroke-width:1.0;"/><text fill="#000000" font-family="sans-serif" font-size="13" lengthAdjust="spacing" textLength="139" x="302" y="286.9648">buildIndexFromNodes</text><line style="stroke:#181818;stroke-width:1.0;" x1="295" x2="342" y1="334.0176" y2="334.0176"/><line style="stroke:#181818;stroke-width:1.0;" x1="342" x2="342" y1="334.0176" y2="347.0176"/><line style="stroke:#181818;stroke-width:1.0;" x1="301" x2="342" y1="347.0176" y2="347.0176"/><polygon fill="#181818" points="311,343.0176,301,347.0176,311,351.0176,307,347.0176" style="stroke:#181818;stroke-width:1.0;"/><text fill="#000000" font-family="sans-serif" font-size="13" lengthAdjust="spacing" textLength="169" x="307" y="329.2754">getNodeEmbeddingResults</text><polygon fill="#181818" points="1132.5,377.3281,1142.5,381.3281,1132.5,385.3281,1136.5,381.3281" style="stroke:#181818;stroke-width:1.0;"/><line style="stroke:#181818;stroke-width:1.0;" x1="295" x2="1138.5" y1="381.3281" y2="381.3281"/><text fill="#000000" font-family="sans-serif" font-size="13" lengthAdjust="spacing" textLength="118" x="302" y="376.5859">getTextEmbedding</text><polygon fill="#181818" points="471,406.6387,481,410.6387,471,414.6387,475,410.6387" style="stroke:#181818;stroke-width:1.0;"/><line style="stroke:#181818;stroke-width:1.0;" x1="280" x2="477" y1="410.6387" y2="410.6387"/><text fill="#000000" font-family="sans-serif" font-size="13" lengthAdjust="spacing" textLength="23" x="287" y="405.8965">add</text><polygon fill="#181818" points="263,435.9492,273,439.9492,263,443.9492,267,439.9492" style="stroke:#181818;stroke-width:1.0;"/><line style="stroke:#181818;stroke-width:1.0;" x1="23.5" x2="269" y1="439.9492" y2="439.9492"/><text fill="#000000" font-family="sans-serif" font-size="13" lengthAdjust="spacing" textLength="93" x="30.5" y="435.207">asQueryEngine</text><polygon fill="#181818" points="551,449.9492,561,453.9492,551,457.9492,555,453.9492" style="stroke:#181818;stroke-width:1.0;"/><line style="stroke:#181818;stroke-width:1.0;" x1="285" x2="557" y1="453.9492" y2="453.9492"/><rect fill="#E2E2F0" height="30.4883" rx="2.5" ry="2.5" style="stroke:#181818;stroke-width:0.5;" width="163" x="563" y="447.9492"/><text fill="#000000" font-family="sans-serif" font-size="14" lengthAdjust="spacing" textLength="149" x="570" y="468.4844">RetrieverQueryEngine</text><polygon fill="#181818" points="632.5,506.748,642.5,510.748,632.5,514.748,636.5,510.748" style="stroke:#181818;stroke-width:1.0;"/><line style="stroke:#181818;stroke-width:1.0;" x1="290" x2="638.5" y1="510.748" y2="510.748"/><text fill="#000000" font-family="sans-serif" font-size="13" lengthAdjust="spacing" textLength="35" x="297" y="506.0059">query</text><polygon fill="#181818" points="798,536.0586,808,540.0586,798,544.0586,802,540.0586" style="stroke:#181818;stroke-width:1.0;"/><line style="stroke:#181818;stroke-width:1.0;" x1="644.5" x2="804" y1="540.0586" y2="540.0586"/><text fill="#000000" font-family="sans-serif" font-size="13" lengthAdjust="spacing" textLength="47" x="651.5" y="535.3164">retrieve</text><polygon fill="#181818" points="1132.5,565.3691,1142.5,569.3691,1132.5,573.3691,1136.5,569.3691" style="stroke:#181818;stroke-width:1.0;"/><line style="stroke:#181818;stroke-width:1.0;" x1="820" x2="1138.5" y1="569.3691" y2="569.3691"/><text fill="#000000" font-family="sans-serif" font-size="13" lengthAdjust="spacing" textLength="127" x="827" y="564.627">getQueryEmbedding</text><polygon fill="#181818" points="494,594.6797,484,598.6797,494,602.6797,490,598.6797" style="stroke:#181818;stroke-width:1.0;"/><line style="stroke:#181818;stroke-width:1.0;" x1="488" x2="814" y1="598.6797" y2="598.6797"/><text fill="#000000" font-family="sans-serif" font-size="13" lengthAdjust="spacing" textLength="35" x="500" y="593.9375">query</text><polygon fill="#181818" points="966.5,623.9902,976.5,627.9902,966.5,631.9902,970.5,627.9902" style="stroke:#181818;stroke-width:1.0;"/><line style="stroke:#181818;stroke-width:1.0;" x1="644.5" x2="972.5" y1="627.9902" y2="627.9902"/><text fill="#000000" font-family="sans-serif" font-size="13" lengthAdjust="spacing" textLength="67" x="651.5" y="623.248">synthesize</text><polygon fill="#181818" points="1287,653.3008,1297,657.3008,1287,661.3008,1291,657.3008" style="stroke:#181818;stroke-width:1.0;"/><line style="stroke:#181818;stroke-width:1.0;" x1="988.5" x2="1293" y1="657.3008" y2="657.3008"/><text fill="#000000" font-family="sans-serif" font-size="13" lengthAdjust="spacing" textLength="80" x="995.5" y="652.5586">getResponse</text><!--MD5=[c9b8a3d2bdd9d49c5d92683c5e65b1e0]

PlantUML version 1.2022.7(Tue Aug 23 02:01:30 KST 2022)
(GPL source distribution)
Java Runtime: OpenJDK Runtime Environment
JVM: OpenJDK 64-Bit Server VM
Default Encoding: UTF-8
Language: ko
Country: KR
--></g></svg>
